<svg width="100" height="100" viewBox="0 0 100 100" fill="none" xmlns="http://www.w3.org/2000/svg">
<path fill-rule="evenodd" clip-rule="evenodd" d="M50 23C47.2386 23 45 25.2386 45 28V40.1699H32C29.2386 40.1699 27 42.4084 27 45.1699V46.1699C27 48.9313 29.2386 51.1699 32 51.1699H45V63C45 65.7614 47.2386 68 50 68H51C53.7614 68 56 65.7614 56 63V51.1699H67.0002C69.7616 51.1699 72.0002 48.9313 72.0002 46.1699V45.1699C72.0002 42.4085 69.7616 40.1699 67.0002 40.1699H56V28C56 25.2386 53.7614 23 51 23H50Z" fill="#247DC9"/>
<path fill-rule="evenodd" clip-rule="evenodd" d="M50 0C73.196 0 92 15.3858 92 43C92 67.2846 59.5178 92.9393 51.6846 98.7729C50.6738 99.5257 49.3262 99.5257 48.3154 98.7729C40.4822 92.9393 8 67.2846 8 43C8 15.3858 26.804 0 50 0ZM50 11C67.6731 11 82 22.9166 82 44.3045C82 62.7778 58.127 81.1914 51.6207 85.8667C50.6382 86.5727 49.3618 86.5727 48.3793 85.8667C41.873 81.1914 18 62.7778 18 44.3045C18 22.9166 32.3269 11 50 11Z" fill="#247DC9"/>
</svg>
