<svg width="1080" height="1080" viewBox="0 0 1080 1080" fill="none" xmlns="http://www.w3.org/2000/svg">
<path fill-rule="evenodd" clip-rule="evenodd" d="M166.422 799.928C63.8588 728.062 0 626.898 0 514.829C0 296.771 241.766 120 540 120C838.234 120 1080 296.771 1080 514.829C1080 732.887 838.234 909.659 540 909.659C461.96 909.659 387.786 897.554 320.799 875.774L176.539 972L166.422 799.928Z" fill="#247DC9"/>
<path d="M414.985 450.258H389.35V410.561H266.303V450.258H240.668V387.562H258.393C269.819 368.715 278.315 346.986 283.881 322.377C289.545 297.67 292.377 272.67 292.377 247.377H395.209V387.562H414.985V450.258ZM367.67 387.562V270.521H318.305C317.036 295.033 313.276 317.396 307.026 337.611C300.776 357.826 293.598 374.477 285.493 387.562H367.67ZM585.053 411H557.514V270.521H496.43C496.137 278.627 495.844 286.439 495.551 293.959C495.258 301.479 494.965 308.266 494.672 314.32C493.989 330.629 492.866 343.666 491.303 353.432C489.741 363.1 487.69 371.156 485.151 377.602C482.807 383.656 480.17 388.588 477.241 392.396C474.409 396.107 471.333 399.477 468.012 402.504C464.692 405.434 460.981 407.631 456.879 409.096C452.875 410.561 448.481 411.293 443.696 411.293C442.036 411.293 439.594 411.244 436.372 411.146C433.247 411.049 431.196 411 430.219 411V386.977H431.684C432.465 386.977 433.588 387.025 435.053 387.123C436.518 387.221 437.739 387.27 438.715 387.27C441.059 387.27 443.452 386.928 445.893 386.244C448.432 385.561 450.581 384.291 452.338 382.436C457.319 377.553 461.323 369.301 464.35 357.68C467.377 346.059 469.379 329.262 470.356 307.289C470.747 299.281 471.088 289.809 471.381 278.871C471.772 267.836 472.114 257.338 472.407 247.377H585.053V411ZM765.083 411H737.543V346.107H705.17L654.487 411H622.114L677.192 343.471C663.032 339.564 652.68 333.607 646.137 325.6C639.594 317.494 636.323 306.898 636.323 293.812C636.323 285.121 638.276 277.748 642.182 271.693C646.088 265.639 651.02 260.707 656.977 256.898C662.836 253.188 669.575 250.697 677.192 249.428C684.809 248.061 693.11 247.377 702.094 247.377H765.083V411ZM737.543 324.428V269.35H702.827C695.307 269.35 689.887 269.594 686.567 270.082C683.247 270.57 679.633 271.889 675.727 274.037C671.918 276.186 669.086 279.115 667.231 282.826C665.473 286.439 664.594 290.395 664.594 294.691C664.594 300.062 665.131 304.408 666.206 307.729C667.377 311.049 669.721 314.174 673.237 317.104C676.85 319.936 681.245 321.889 686.42 322.963C691.596 323.939 697.358 324.428 703.706 324.428H737.543ZM370.6 636.547H311.42V776H283.881V636.547H224.702V612.377H370.6V636.547ZM536.127 697.045H415.571C415.571 707.104 417.084 715.893 420.112 723.412C423.139 730.834 427.29 736.938 432.563 741.723C437.641 746.41 443.647 749.926 450.581 752.27C457.612 754.613 465.327 755.785 473.725 755.785C484.858 755.785 496.04 753.588 507.27 749.193C518.598 744.701 526.655 740.307 531.44 736.01H532.905V766.039C523.627 769.945 514.155 773.217 504.487 775.854C494.819 778.49 484.663 779.809 474.018 779.809C446.87 779.809 425.678 772.484 410.444 757.836C395.209 743.09 387.592 722.191 387.592 695.141C387.592 668.383 394.868 647.143 409.418 631.42C424.067 615.697 443.305 607.836 467.133 607.836C489.204 607.836 506.196 614.281 518.11 627.172C530.122 640.062 536.127 658.373 536.127 682.104V697.045ZM509.321 675.951C509.223 661.498 505.561 650.316 498.334 642.406C491.206 634.496 480.317 630.541 465.668 630.541C450.922 630.541 439.155 634.887 430.366 643.578C421.674 652.27 416.743 663.061 415.571 675.951H509.321ZM698.139 636.547C704.975 643.383 710.151 651.684 713.667 661.449C717.182 671.117 718.94 682.494 718.94 695.58C718.94 719.994 711.616 740.258 696.967 756.371C682.319 772.484 664.301 780.541 642.915 780.541C632.368 780.541 622.651 778.783 613.764 775.268C604.877 771.654 597.309 766.137 591.059 758.715C583.247 749.438 577.387 737.768 573.481 723.705C569.672 709.545 567.768 692.309 567.768 671.996C567.768 664.672 568.11 657.25 568.793 649.73C569.477 642.113 571.04 633.031 573.481 622.484C575.434 613.402 578.266 604.662 581.977 596.264C585.786 587.865 590.278 581.078 595.454 575.902C602.485 568.773 611.713 563.061 623.139 558.764C634.663 554.369 649.897 551.342 668.842 549.682C676.557 548.998 683.735 548.461 690.375 548.07C697.016 547.582 702.973 547.143 708.247 546.752V572.094C701.801 572.484 695.405 572.875 689.057 573.266C682.807 573.656 676.557 574.145 670.307 574.73C657.807 575.805 646.479 577.855 636.323 580.883C626.264 583.91 618.891 587.816 614.204 592.602C609.028 597.777 605.122 604.564 602.485 612.963C599.946 621.264 598.286 629.174 597.504 636.693C604.829 631.42 612.836 627.025 621.528 623.51C630.317 619.896 639.643 618.09 649.506 618.09C658.686 618.09 667.524 619.604 676.02 622.631C684.516 625.658 691.889 630.297 698.139 636.547ZM690.961 697.191C690.961 679.125 686.616 665.648 677.924 656.762C669.233 647.777 657.758 643.285 643.5 643.285C635.004 643.285 626.85 644.652 619.038 647.387C611.225 650.023 603.803 653.588 596.772 658.08C596.577 660.521 596.381 663.402 596.186 666.723C596.088 669.945 596.04 672.924 596.04 675.658C596.04 692.65 597.456 706.42 600.288 716.967C603.12 727.514 607.124 735.912 612.299 742.162C616.792 747.436 621.674 751.195 626.948 753.441C632.221 755.59 637.885 756.664 643.94 756.664C658.686 756.664 670.209 751.342 678.51 740.697C686.811 730.053 690.961 715.551 690.961 697.191ZM899.116 697.045H778.559C778.559 707.104 780.073 715.893 783.1 723.412C786.127 730.834 790.278 736.938 795.551 741.723C800.629 746.41 806.635 749.926 813.569 752.27C820.6 754.613 828.315 755.785 836.713 755.785C847.846 755.785 859.028 753.588 870.258 749.193C881.586 744.701 889.643 740.307 894.428 736.01H895.893V766.039C886.616 769.945 877.143 773.217 867.475 775.854C857.807 778.49 847.651 779.809 837.006 779.809C809.858 779.809 788.667 772.484 773.432 757.836C758.198 743.09 750.581 722.191 750.581 695.141C750.581 668.383 757.856 647.143 772.407 631.42C787.055 615.697 806.293 607.836 830.122 607.836C852.192 607.836 869.184 614.281 881.098 627.172C893.11 640.062 899.116 658.373 899.116 682.104V697.045ZM872.309 675.951C872.211 661.498 868.549 650.316 861.323 642.406C854.194 634.496 843.305 630.541 828.657 630.541C813.911 630.541 802.143 634.887 793.354 643.578C784.663 652.27 779.731 663.061 778.559 675.951H872.309Z" fill="white"/>
</svg>
