<svg width="100" height="100" viewBox="0 0 100 100" fill="none" xmlns="http://www.w3.org/2000/svg">
<g clip-path="url(#clip0_35_101)">
<g filter="url(#filter0_d_35_101)">
<path fill-rule="evenodd" clip-rule="evenodd" d="M86.1579 47.5283L84.8811 47.1026C84.6771 47.0347 84.4636 47 84.2486 47H83.4756H81.2805H80.959C80.4621 47 79.9855 47.1974 79.6342 47.5488C79.2828 47.9002 78.8062 48.0976 78.3093 48.0976H77.439H76.1041C75.9047 48.0976 75.7135 48.0183 75.5725 47.8774C75.3711 47.676 75.0733 47.6057 74.8031 47.6957L73.5976 48.0976L72.2591 48.5437C72.0552 48.6117 71.8416 48.6463 71.6267 48.6463H70.6929C70.4445 48.6463 70.2062 48.745 70.0305 48.9207C69.8548 49.0964 69.6165 49.1951 69.3681 49.1951H69.2073C68.856 49.1951 68.5257 49.0421 68.2236 48.8626C68.0231 48.7434 67.7872 48.6463 67.561 48.6463H67.2918C66.8529 48.6463 66.4407 48.8228 66.0332 48.9972C65.9483 49.0336 65.8636 49.0698 65.7788 49.1044C65.6443 49.1593 65.5033 49.1951 65.3659 49.1951C64.9268 49.1951 64.4512 48.8293 64.2683 48.6463L64.2139 48.5919C63.8973 48.2754 63.468 48.0976 63.0204 48.0976C62.7584 48.0976 62.5 48.0366 62.2656 47.9194L61.8147 47.6939C61.6224 47.5978 61.4469 47.4713 61.2949 47.3193L60.6563 46.6807C60.5043 46.5287 60.3778 46.3532 60.2817 46.1609L60.2485 46.0946C60.0113 45.6202 59.5954 45.2594 59.0921 45.0917L58.4858 44.8896C58.3172 44.8334 58.1568 44.7549 58.0089 44.6563L56.5854 43.7073L54.6805 42.7549C54.4883 42.6588 54.3128 42.5323 54.1608 42.3803L52.7439 40.9634L51.6464 39.8659C51.4634 39.6829 51.0976 39.2073 51.0976 38.7683C51.0976 38.3293 50.7317 37.4878 50.5488 37.122L49.6624 35.3491C49.5235 35.0714 49.4512 34.7652 49.4512 34.4547V33.8293V32.1063C49.4512 31.7958 49.5235 31.4896 49.6624 31.2119L49.9364 30.6637C49.9788 30.5791 50.015 30.4915 50.045 30.4017L50.4462 29.1981C50.5141 28.9942 50.5488 28.7807 50.5488 28.5657V28.0723C50.5488 27.5419 50.3381 27.0332 49.963 26.6581L49.6317 26.3268C49.5122 26.2073 49.4127 26.0693 49.3371 25.9181C49.1236 25.4912 48.7075 25.1901 48.3075 24.9006C48.2083 24.8289 48.1101 24.7578 48.0163 24.6857C47.9458 24.6316 47.8749 24.57 47.8049 24.5C47.3659 24.061 47.2561 23.2195 47.2561 22.8537V21.4535C47.2561 21.29 47.2762 21.1271 47.3158 20.9685L47.6255 19.73C47.7412 19.2668 47.6875 18.7775 47.474 18.3505L47.3538 18.11C47.2891 17.9806 47.2039 17.8625 47.1016 17.7602C46.8492 17.5077 46.7073 17.1653 46.7073 16.8082V16.6667C46.7073 16.4047 46.7683 16.1463 46.8855 15.9119L47.045 15.593C47.112 15.4589 47.1635 15.3182 47.1989 15.1736C47.0353 15.1717 46.8714 15.1707 46.7073 15.1707C23.673 15.1707 5.00001 33.8437 5.00001 56.878C5.00001 79.9124 23.673 98.5854 46.7073 98.5854C69.7416 98.5854 88.4146 79.9124 88.4146 56.878C88.4146 53.6197 88.041 50.4486 87.3342 47.4053C87.0679 47.6721 86.6465 47.7623 86.2776 47.5778C86.2389 47.5585 86.1989 47.5419 86.1579 47.5283Z" fill="url(#paint0_radial_35_101)"/>
</g>
<g filter="url(#filter1_d_35_101)">
<path d="M25.2636 70.0488C25.7089 70.4783 26.3322 71.5949 25.2636 72.6257C24.195 73.6564 23.3342 74.2004 23.0374 74.3436L22.6318 74.5392C21.7459 74.9665 21.0482 75.7046 20.6714 76.6131V76.6131C20.4697 77.0996 20.3659 77.621 20.3659 78.1477V79.0679V79.9268" stroke="#BE6C12" stroke-opacity="0.6" stroke-width="0.7"/>
<path d="M37.2139 68.1608C37.6977 68.0619 38.8652 68.0828 39.6644 68.958C40.4636 69.8331 40.8352 70.4495 40.921 70.6483V70.6483C41.256 71.4238 41.8267 72.074 42.5522 72.5067L42.8406 72.6787C43.1642 72.8716 43.5083 73.0278 43.8666 73.1444L44.9612 73.5005L45.778 73.7662" stroke="#BE6C12" stroke-opacity="0.6" stroke-width="0.7"/>
<path d="M37.9268 38.2195C37.9268 37.6969 37.6799 36.4948 36.6921 35.8676C36.0467 35.4578 34.8976 35.472 33.9107 35.6039C33.0338 35.7211 32.1308 35.6979 31.3041 35.383V35.383C30.7854 35.1854 30.3113 34.8865 29.9094 34.5037L28.0488 32.7317" stroke="#BE6C12" stroke-opacity="0.6" stroke-width="0.7"/>
<path d="M59.3293 77.7317C60.2119 78.6502 60.6509 79.8765 60.8445 80.8434C60.9971 81.6057 60.8008 82.3787 60.4641 83.0794V83.0794C59.7505 84.5646 58.3735 85.6222 56.7545 85.9286L54.8018 86.298L52.9606 86.8455C52.2864 87.0459 51.6977 87.4642 51.2864 88.0348V88.0348C50.896 88.5765 50.686 89.2272 50.686 89.8949V90.5812V91.2092C50.686 92.1804 50.3102 93.1139 49.6373 93.8141V93.8141C49.5134 93.943 49.3805 94.0629 49.2396 94.1729L47.8049 95.2927" stroke="#BE6C12" stroke-opacity="0.6" stroke-width="0.7"/>
<path d="M19.9618 35.1293C18.8178 35.5621 17.6743 36.5376 16.964 37.2581C16.6255 37.6014 16.372 38.0156 16.1733 38.4549L16.0033 38.8306C15.3802 40.2076 15.4975 41.8212 16.299 43.1026V43.1026C16.4173 43.2917 16.5219 43.4921 16.609 43.6974L16.747 44.0225C17.0491 44.7348 17.0894 45.5309 16.8606 46.27V46.27C16.7317 46.6864 16.521 47.0729 16.2408 47.4068L15.564 48.2133L15.1342 48.7254C14.5134 49.4652 14.0929 50.3521 13.9131 51.301V51.301L13.8227 52.9027" stroke="#BE6C12" stroke-opacity="0.6" stroke-width="0.7"/>
<path d="M38.7389 45.9025C39.2804 46.4878 40.309 47.8342 40.0925 48.5366C39.901 49.1577 39.2721 49.8245 38.8796 50.173C38.7874 50.2547 38.697 50.3381 38.6133 50.4285L38.374 50.6873C38.0865 50.9981 37.9268 51.4059 37.9268 51.8293V51.8293C37.9268 52.2527 38.0865 52.6605 38.374 52.9713L38.7389 53.3659L39.0784 53.7328C39.3823 54.0614 39.5511 54.4925 39.5511 54.9401V54.9401C39.5511 55.5931 39.1931 56.1935 38.6186 56.5041L37.9268 56.8781" stroke="#BE6C12" stroke-opacity="0.6" stroke-width="0.7"/>
<path d="M13.7805 57.9756C11.8543 59.7317 8.74497 63.9463 11.7168 66.7561" stroke="#BE6C12" stroke-opacity="0.6" stroke-width="0.7"/>
<path d="M55.4878 47.1409C56.0507 46.8631 57.5141 46.8076 58.8649 48.8078C59.7814 50.1649 60.102 51.2151 60.1695 51.8802C60.2152 52.331 59.9916 52.7422 59.7175 53.1029L59.3149 53.6329C59.023 54.0171 58.8649 54.4864 58.8649 54.9689V54.9689C58.8649 55.5596 59.1015 56.1256 59.5219 56.5405L60.9756 57.9756" stroke="#BE6C12" stroke-opacity="0.6" stroke-width="0.7"/>
<path d="M73.1022 57.4435C73.0529 56.8177 73.544 55.4381 75.9026 54.9253C77.5028 54.5774 78.597 54.6691 79.2397 54.8532C79.6753 54.9778 79.9743 55.338 80.2077 55.7263L80.5505 56.2968C80.7991 56.7104 81.1763 57.0312 81.6244 57.2101V57.2101C82.1729 57.4291 82.7863 57.4193 83.3276 57.1828L85.1994 56.3649" stroke="#BE6C12" stroke-opacity="0.6" stroke-width="0.7"/>
<path d="M64.0324 17.4206C64.2053 17.6079 64.4413 18.0891 64.0018 18.5148C63.5624 18.9405 63.2117 19.1619 63.0914 19.2194L62.9597 19.2822C62.5792 19.4639 62.2784 19.7786 62.1142 20.1669V20.1669C62.0305 20.3646 61.9845 20.5762 61.9785 20.7907L61.9672 21.1955L61.957 21.5602" stroke="#BE6C12" stroke-opacity="0.6" stroke-width="0.3"/>
<path d="M56.6224 12.0128C56.7663 11.9521 57.0159 11.9162 56.8632 12.2585C56.7105 12.6008 56.5607 12.8493 56.5049 12.9307L56.2666 13.2785C56.2037 13.3704 56.1692 13.4787 56.1673 13.59L56.1672 13.5981C56.1647 13.7449 56.2211 13.8865 56.3239 13.9913V13.9913L56.4041 14.0732" stroke="#BE6C12" stroke-opacity="0.6" stroke-width="0.3"/>
<path d="M80.7317 17.9146H80.1829L79.6342 17.3659L79.0854 17.9146V18.4634L79.6342 19.0122L80.7317 18.4634V17.9146Z" fill="#E3B168"/>
<path d="M65.9146 12.9756L66.4634 12.4268L65.9146 11.8781H65.3659V12.4268V12.9756H65.9146Z" fill="#E3B168"/>
</g>
<path d="M74.8335 66.0155L73.4898 65.7467C73.1994 65.6887 72.8998 65.6958 72.6125 65.7676L69.082 66.6502C68.803 66.72 68.5423 66.8491 68.3177 67.0288L66.7886 68.252C66.2456 68.6865 65.9672 69.3718 66.0535 70.0618L66.4443 73.1884C66.457 73.2903 66.4776 73.3911 66.5058 73.4898L67.3193 76.337C67.4733 76.876 67.8465 77.3257 68.3479 77.5764L69.629 78.2169C69.7136 78.2592 69.8012 78.2955 69.8909 78.3254L72.3538 79.1464C72.8025 79.296 73.2898 79.2816 73.729 79.106L74.7868 78.6829C75.4143 78.4318 75.8726 77.8809 76.0052 77.2181L76.3415 75.5366L77.3364 72.5518C77.4044 72.3479 77.439 72.1343 77.439 71.9193V69.9721C77.439 69.6616 77.3667 69.3554 77.2279 69.0777L76.2301 67.0822C75.9541 66.5302 75.4387 66.1365 74.8335 66.0155Z" fill="#663722" stroke="black" stroke-width="0.2"/>
<path d="M46.5659 87.1686L46.1924 84.5544C46.1699 84.3967 46.1286 84.2423 46.0695 84.0945L45.479 82.6181C45.2194 81.9693 44.6401 81.503 43.9508 81.3881L41.9316 81.0516C41.8229 81.0335 41.7129 81.0244 41.6028 81.0244H40.1867C39.8107 81.0244 39.4669 80.8119 39.2988 80.4756C39.1306 80.1393 38.7869 79.9268 38.4108 79.9268H37.3509C36.6822 79.9268 36.0577 80.261 35.6868 80.8174L35.3751 81.2849C35.2479 81.4757 35.1545 81.6868 35.0989 81.9092L34.2648 85.2456C34.149 85.7088 34.2027 86.1981 34.4162 86.6251L35.1829 88.1585L36.2805 90.9024L36.9983 92.6968C37.2368 93.2931 37.7471 93.7386 38.3701 93.8944L39.1369 94.086C39.4242 94.1579 39.7238 94.165 40.0142 94.1069L41.4495 93.8198C42.0021 93.7093 42.4824 93.3709 42.7723 92.8877L43.8367 91.1136C43.9209 90.9733 44.0219 90.844 44.1375 90.7283L46.0002 88.8656C46.4453 88.4205 46.6549 87.7918 46.5659 87.1686Z" fill="#663722" stroke="black" stroke-width="0.2"/>
<path d="M45.49 24.8061L45.2463 24.3242C45.0255 23.8875 44.6522 23.5469 44.1971 23.367L43.4441 23.0692C43.0972 22.9319 42.7084 22.948 42.374 23.1133C42.1922 23.2032 41.992 23.25 41.7892 23.25H41.2817C41.0306 23.25 40.7818 23.2973 40.5482 23.3893L39.6894 23.7279C39.1795 23.9289 38.7744 24.3304 38.5688 24.8385L38.2351 25.6636C38.1386 25.9019 38.0891 26.1565 38.0891 26.4136V27.0504C38.0891 27.4163 38.1895 27.7752 38.3793 28.0879L39.2916 29.5915L40.1113 30.9422C40.3584 31.3494 40.7427 31.6551 41.1951 31.8042L42.3182 32.1743C42.6969 32.2992 43.1043 32.3079 43.488 32.1995L44.5306 31.905C45.2518 31.7012 45.7986 31.1114 45.9472 30.3768L46.0374 29.9311C46.0828 29.7063 46.0893 29.4755 46.0565 29.2485L45.7258 26.9593C45.7121 26.8646 45.7052 26.769 45.7052 26.6733V25.7086C45.7052 25.3951 45.6315 25.0859 45.49 24.8061Z" fill="#663722"/>
<path d="M29.9171 44.8596L29.0617 44.6904C28.9339 44.6652 28.804 44.6524 28.6737 44.6524H26.531C26.2236 44.6524 25.9203 44.7233 25.6447 44.8596L24.7722 45.2909C24.0902 45.6281 23.6585 46.323 23.6585 47.0838V48.2195C23.6585 48.4858 23.847 49.8887 23.9865 50.8791C24.0338 51.2146 24.1668 51.5318 24.3715 51.8017L25.0893 52.748C25.2038 52.899 25.3392 53.0329 25.4914 53.1458L26.1848 53.66C26.6198 53.9825 27.167 54.1149 27.7013 54.0269L29.1089 53.7949C29.2164 53.7772 29.3252 53.7683 29.4341 53.7683H29.5254C30.3404 53.7683 31.0739 53.2738 31.3795 52.5183L31.6755 51.7866L32.305 50.5417C32.4182 50.3179 32.4772 50.0705 32.4772 49.8196V48.6204C32.4772 48.399 32.2977 48.2195 32.0764 48.2195C31.855 48.2195 31.6755 48.04 31.6755 47.8187V46.9394C31.6755 46.7387 31.6283 46.5408 31.5378 46.3617L31.3139 45.9191C31.0361 45.3698 30.5209 44.979 29.9171 44.8596Z" fill="#663722"/>
<path d="M53.3213 62.0915L54.5966 60.2001C55.2187 59.2775 54.9681 58.0245 54.039 57.4121L53.6084 57.1282C53.4184 57.003 53.2085 56.9111 52.9876 56.8565L52.1496 56.6494C51.8653 56.5791 51.569 56.5721 51.2817 56.6289L49.9741 56.8875C49.8012 56.9217 49.6337 56.9786 49.4757 57.0567L46.5069 58.5244L44.5509 59.4914C44.2634 59.6335 44.0442 59.8842 43.9418 60.1881C43.7944 60.6252 43.909 61.1081 44.237 61.4325L44.9035 62.0915L45.4736 62.6551C45.627 62.8068 45.7547 62.9821 45.8521 63.1746L46.5069 64.4695C46.7862 65.0219 47.694 65.4139 48.2768 65.5931C48.4314 65.6406 48.5929 65.6585 48.7547 65.6585H50.1342C50.3861 65.6585 50.6356 65.611 50.8698 65.5184L51.7011 65.1896C52.1951 64.9942 52.5196 64.5168 52.5196 63.9856C52.5196 63.7826 52.5674 63.5824 52.659 63.4013L53.3213 62.0915Z" fill="#663722"/>
<path d="M69.1486 53.9644L69.0889 53.9447C68.7603 53.8364 68.3987 53.9214 68.1527 54.1646L67.9211 54.3936C67.6073 54.7039 67.6073 55.2107 67.9211 55.521C68.0695 55.6677 68.2697 55.75 68.4784 55.75H68.7099C68.8707 55.75 69.0294 55.7129 69.1736 55.6416L69.2637 55.5971C69.5652 55.448 69.7561 55.1407 69.7561 54.8043C69.7561 54.4226 69.5111 54.0839 69.1486 53.9644Z" fill="#663722"/>
<path d="M29.4328 59.9191L28.8833 60.0278C28.6107 60.0817 28.3546 60.1988 28.1357 60.3699C27.7053 60.706 27.4537 61.2216 27.4537 61.7677V62.0008C27.4537 62.5583 27.7105 63.0847 28.1499 63.4278L28.3399 63.5762C28.4247 63.6425 28.4939 63.7266 28.5425 63.8226C28.7236 64.1808 29.1595 64.3261 29.5194 64.1483L30.473 63.6768L31.5753 62.9502C31.6419 62.9063 31.7041 62.8559 31.7609 62.7997C32.1763 62.3889 32.2407 61.7406 31.914 61.2562L31.7612 61.0296C31.7042 60.945 31.639 60.8663 31.5665 60.7946L31.227 60.4589C30.7554 59.9927 30.0833 59.7905 29.4328 59.9191Z" fill="#663722"/>
<path d="M31.2002 28.6445L31.3442 28.7513C31.9177 29.1766 32.7384 28.9458 33.0062 28.2839C33.1713 27.8756 33.075 27.4081 32.7618 27.0984L32.3458 26.6871C32.1686 26.512 32.0349 26.2978 31.9553 26.0617C31.781 25.5447 31.3549 25.1524 30.8252 25.0215L30.2839 24.8877C30.1437 24.8531 30.0105 24.7948 29.89 24.7153C29.3203 24.3398 28.5557 24.482 28.1591 25.0371L27.4537 26.0244L26.5501 27.5702C26.2685 28.052 26.3721 28.6663 26.7962 29.029C27.1858 29.3623 27.7487 29.3984 28.1777 29.1176L28.7715 28.729C29.097 28.5159 29.4777 28.4024 29.8667 28.4024H30.4674C30.7313 28.4024 30.9882 28.4873 31.2002 28.6445Z" fill="#663722"/>
<path d="M45.49 24.8061L45.2463 24.3242C45.0255 23.8875 44.6522 23.5469 44.1971 23.367L43.4441 23.0692C43.0972 22.9319 42.7084 22.948 42.374 23.1133C42.1922 23.2032 41.992 23.25 41.7892 23.25H41.2817C41.0306 23.25 40.7818 23.2973 40.5482 23.3893L39.6894 23.7279C39.1795 23.9289 38.7744 24.3304 38.5688 24.8385L38.2351 25.6636C38.1386 25.9019 38.0891 26.1565 38.0891 26.4136V27.0504C38.0891 27.4163 38.1895 27.7752 38.3793 28.0879L39.2916 29.5915L40.1113 30.9422C40.3584 31.3494 40.7427 31.6551 41.1951 31.8042L42.3182 32.1743C42.6969 32.2992 43.1043 32.3079 43.488 32.1995L44.5306 31.905C45.2518 31.7012 45.7986 31.1114 45.9472 30.3768L46.0374 29.9311C46.0828 29.7063 46.0893 29.4755 46.0565 29.2485L45.7258 26.9593C45.7121 26.8646 45.7052 26.769 45.7052 26.6733V25.7086C45.7052 25.3951 45.6315 25.0859 45.49 24.8061Z" stroke="black" stroke-width="0.2"/>
<path d="M29.9171 44.8596L29.0617 44.6904C28.9339 44.6652 28.804 44.6524 28.6737 44.6524H26.531C26.2236 44.6524 25.9203 44.7233 25.6447 44.8596L24.7722 45.2909C24.0902 45.6281 23.6585 46.323 23.6585 47.0838V48.2195C23.6585 48.4858 23.847 49.8887 23.9865 50.8791C24.0338 51.2146 24.1668 51.5318 24.3715 51.8017L25.0893 52.748C25.2038 52.899 25.3392 53.0329 25.4914 53.1458L26.1848 53.66C26.6198 53.9825 27.167 54.1149 27.7013 54.0269L29.1089 53.7949C29.2164 53.7772 29.3252 53.7683 29.4341 53.7683H29.5254C30.3404 53.7683 31.0739 53.2738 31.3795 52.5183L31.6755 51.7866L32.305 50.5417C32.4182 50.3179 32.4772 50.0705 32.4772 49.8196V48.6204C32.4772 48.399 32.2977 48.2195 32.0764 48.2195C31.855 48.2195 31.6755 48.04 31.6755 47.8187V46.9394C31.6755 46.7387 31.6283 46.5408 31.5378 46.3617L31.3139 45.9191C31.0361 45.3698 30.5209 44.979 29.9171 44.8596Z" stroke="black" stroke-width="0.2"/>
<path d="M53.3213 62.0915L54.5966 60.2001C55.2187 59.2775 54.9681 58.0245 54.039 57.4121L53.6084 57.1282C53.4184 57.003 53.2085 56.9111 52.9876 56.8565L52.1496 56.6494C51.8653 56.5791 51.569 56.5721 51.2817 56.6289L49.9741 56.8875C49.8012 56.9217 49.6337 56.9786 49.4757 57.0567L46.5069 58.5244L44.5509 59.4914C44.2634 59.6335 44.0442 59.8842 43.9418 60.1881C43.7944 60.6252 43.909 61.1081 44.237 61.4325L44.9035 62.0915L45.4736 62.6551C45.627 62.8068 45.7547 62.9821 45.8521 63.1746L46.5069 64.4695C46.7862 65.0219 47.694 65.4139 48.2768 65.5931C48.4314 65.6406 48.5929 65.6585 48.7547 65.6585H50.1342C50.3861 65.6585 50.6356 65.611 50.8698 65.5184L51.7011 65.1896C52.1951 64.9942 52.5196 64.5168 52.5196 63.9856C52.5196 63.7826 52.5674 63.5824 52.659 63.4013L53.3213 62.0915Z" stroke="black" stroke-width="0.2"/>
<path d="M69.1486 53.9644L69.0889 53.9447C68.7603 53.8364 68.3987 53.9214 68.1527 54.1646L67.9211 54.3936C67.6073 54.7039 67.6073 55.2107 67.9211 55.521C68.0695 55.6677 68.2697 55.75 68.4784 55.75H68.7099C68.8707 55.75 69.0294 55.7129 69.1736 55.6416L69.2637 55.5971C69.5652 55.448 69.7561 55.1407 69.7561 54.8043C69.7561 54.4226 69.5111 54.0839 69.1486 53.9644Z" stroke="black" stroke-width="0.2"/>
<path d="M29.4328 59.9191L28.8833 60.0278C28.6107 60.0817 28.3546 60.1988 28.1357 60.3699C27.7053 60.706 27.4537 61.2216 27.4537 61.7677V62.0008C27.4537 62.5583 27.7105 63.0847 28.1499 63.4278L28.3399 63.5762C28.4247 63.6425 28.4939 63.7266 28.5425 63.8226C28.7236 64.1808 29.1595 64.3261 29.5194 64.1483L30.473 63.6768L31.5753 62.9502C31.6419 62.9063 31.7041 62.8559 31.7609 62.7997C32.1763 62.3889 32.2407 61.7406 31.914 61.2562L31.7612 61.0296C31.7042 60.945 31.639 60.8663 31.5665 60.7946L31.227 60.4589C30.7554 59.9927 30.0833 59.7905 29.4328 59.9191Z" stroke="black" stroke-width="0.2"/>
<path d="M31.2002 28.6445L31.3442 28.7513C31.9177 29.1766 32.7384 28.9458 33.0062 28.2839C33.1713 27.8756 33.075 27.4081 32.7618 27.0984L32.3458 26.6871C32.1686 26.512 32.0349 26.2978 31.9553 26.0617C31.781 25.5447 31.3549 25.1524 30.8252 25.0215L30.2839 24.8877C30.1437 24.8531 30.0105 24.7948 29.89 24.7153C29.3203 24.3398 28.5557 24.482 28.1591 25.0371L27.4537 26.0244L26.5501 27.5702C26.2685 28.052 26.3721 28.6663 26.7962 29.029C27.1858 29.3623 27.7487 29.3984 28.1777 29.1176L28.7715 28.729C29.097 28.5159 29.4777 28.4024 29.8667 28.4024H30.4674C30.7313 28.4024 30.9882 28.4873 31.2002 28.6445Z" stroke="black" stroke-width="0.2"/>
<g filter="url(#filter2_d_35_101)">
<path d="M70.3049 43.7073H69.7561L69.2073 43.1585L68.6585 43.7073V44.2561L69.2073 44.8049L70.3049 44.2561V43.7073Z" fill="url(#paint1_radial_35_101)"/>
<path d="M71.9512 40.4146L72.5 39.8659L71.9512 39.3171H71.4024V39.8659V40.4146H71.9512Z" fill="url(#paint2_radial_35_101)"/>
<path d="M70.8537 23.9512H70.3049L69.7561 23.4025L69.2073 23.9512V24.5L69.7561 25.0488L70.8537 24.5V23.9512Z" fill="url(#paint3_radial_35_101)"/>
<path d="M72.5 20.6585L73.0488 20.1098L72.5 19.561H71.9512V20.1098V20.6585H72.5Z" fill="url(#paint4_radial_35_101)"/>
<path d="M88.4146 14.0732H87.8659L87.3171 13.5244L86.7683 14.0732V14.622L87.3171 15.1707L88.4146 14.622V14.0732Z" fill="url(#paint5_radial_35_101)"/>
<path d="M90.061 10.7805L90.6098 10.2317L90.061 9.68294H89.5122V10.2317V10.7805H90.061Z" fill="url(#paint6_radial_35_101)"/>
<path d="M88.4146 29.439H86.2195H85.1219L84.0244 29.9878L82.9268 30.5366L81.8293 31.0854L81.2805 30.5366H80.7317V31.0854V31.6342L79.0854 32.1829H78.5366L77.9878 31.6342L77.439 32.1829L76.8902 32.7317L76.3415 33.4238L75.7927 33.8293V34.3781V35.4756H76.3415L76.8902 36.0244L77.439 36.5732V37.122L77.9878 37.6707L79.0854 38.7683L80.7317 39.3171L81.2805 39.8659H82.9268L84.0244 39.9254H85.1219H86.3981H86.9469L87.4957 40.4742C87.4957 40.6571 87.6054 41.023 88.0445 41.023H89.142L90.2396 41.5717L91.3372 41.023L92.4347 40.4742L92.9835 39.9254V39.3766L92.4347 38.8278L92.9835 38.2791L93.5323 37.7303V36.6327V34.9864L94.0811 33.34L93.5323 31.1449L93.2281 30.5366H93.2579L92.9835 30.0474L93.2281 30.5366H92.9835L92.4347 29.9878C92.4347 29.8049 92.325 29.439 91.8859 29.439H91.3372L90.7884 28.8902H90.2396H89.6908L89.142 29.439L89.5122 28.8902L88.9634 29.439H88.4146Z" fill="url(#paint7_radial_35_101)"/>
<path d="M57.6829 26.6951V25.5975H56.5854H55.4878L54.939 26.1463L54.3902 27.2439V28.3415L53.8415 28.8902H54.939V29.9878V30.5366L55.4878 31.6341L56.0366 31.0854L56.5854 29.9878H57.6829V28.8902V28.3415L57.1341 27.2439L57.6829 26.6951Z" fill="url(#paint8_radial_35_101)"/>
<path d="M67.0122 15.7195L66.4634 16.2683H65.9146H65.3659H64.8171L64.5777 15.4353L63.7195 15.1707L62.622 15.7195L61.5244 16.2683L60.9756 16.8171V17.9146L59.878 18.4634L59.3293 19.0122L58.7805 19.561L59.3293 20.6585V21.2073L58.7805 22.3049V22.8537H59.3293L59.878 22.3049V22.8537V23.9512C59.878 24.3902 60.6098 24.5 60.9756 24.5H61.5244L63.1707 23.9512L63.7195 23.4024L64.5777 22.6336C64.6575 22.707 64.9268 22.8097 65.3659 22.6336C65.8049 22.4576 65.9146 22.3411 65.9146 22.3049L66.4634 21.2073L67.0122 20.6585V20.1098L67.561 19.561V19.0122V17.9146L68.1098 17.3659V16.8171L67.561 16.2683L67.0122 15.7195Z" fill="url(#paint9_radial_35_101)"/>
<path d="M57.1341 9.68294L56.5854 10.2317H56.0366H54.939L54.7434 10.7805L54.3902 11.7517L53.8415 12.4268V12.9756V14.0732L54.3902 14.622H54.939V15.1707L55.4878 15.7195V16.2683H56.0366L56.5854 15.7195L57.1341 15.1707L57.6829 14.622H58.2317V14.0732V12.9756V12.4268V11.3293V10.7805L57.6829 10.2317L57.1341 9.68294Z" fill="url(#paint10_radial_35_101)"/>
<path d="M93.9024 20.1098L93.3537 20.6585L92.2561 21.2073L91.7073 21.7561V22.3049L92.8049 23.4024V23.9512H93.3537H93.9024L94.4512 23.4024L95 22.8537V21.7561V21.2073V20.6585L94.4512 20.1098H93.9024Z" fill="url(#paint11_radial_35_101)"/>
<path d="M86.2195 19.561L85.6707 19.0122V18.4634H84.5732L83.4756 19.0122L82.9268 20.1098V21.2073H84.0244C84.4634 21.2073 84.5732 21.5732 84.5732 21.7561V22.8537L85.6707 23.4024L86.2195 23.9512C86.6585 24.3902 86.7683 23.7683 86.7683 23.4024L87.3171 22.8537L86.7683 22.3049H85.6707V21.7561V21.2073L86.2195 20.6585V20.1098V19.561Z" fill="url(#paint12_radial_35_101)"/>
<path d="M68.6585 29.439H67.0122L66.4634 29.9878L64.8171 30.5366C65 30.7195 65.3658 31.1951 65.3658 31.6341V32.1829H65.9146H67.0122C67.1951 32.3659 67.561 32.8415 67.561 33.2805C67.561 33.7195 68.2927 33.0976 68.6585 32.7317V31.6341C68.6585 31.1951 69.0244 31.0854 69.2073 31.0854L69.7561 30.5366L70.3049 29.9878L69.7561 29.439H68.6585Z" fill="url(#paint13_radial_35_101)"/>
<path d="M72.5 4.19512V3.09756L73.0488 2.54878L72.5 2L70.8537 2.54878L70.3049 3.09756C70.122 3.46341 69.7561 4.30488 69.7561 4.7439V5.29268L70.3049 5.84146L69.7561 6.93902L70.8537 7.4878V8.03659H71.9512H73.0488V8.58537L73.5976 9.13415L74.1463 8.58537V7.4878L74.6951 6.93902L74.1463 6.39024L73.0488 6.93902H72.5L71.9512 6.39024V5.84146L72.5 5.29268L73.0488 4.7439L72.5 4.19512Z" fill="url(#paint14_radial_35_101)"/>
<path d="M65.9146 3.09756H64.2683V3.64635L63.7195 4.74391V5.84147L64.8171 6.39025V6.93903L65.3658 7.48781L66.4634 6.93903V5.84147L65.3658 5.29269L65.9146 4.19513V3.09756Z" fill="url(#paint15_radial_35_101)"/>
<path d="M55.4878 8.03657L54.939 7.48779L54.3902 6.93901L53.8415 7.48779L52.7439 8.03657C53.1098 8.2195 53.8415 8.69511 53.8415 9.13413C53.8415 9.57316 54.5732 9.31706 54.939 9.13413L55.4878 8.58535V8.03657Z" fill="url(#paint16_radial_35_101)"/>
<path d="M53.8415 15.1707C53.4756 15.1707 52.7439 15.2805 52.7439 15.7195H52.1951L51.0976 15.1707L50 15.7195V16.8171C50.3659 16.8171 51.0976 16.9268 51.0976 17.3659C51.0976 17.9146 51.6463 17.9146 51.6463 18.4634C51.6463 19.0122 51.0976 19.561 51.6463 19.561C52.0854 19.561 52.561 19.1951 52.7439 19.0122L53.2927 17.9146L53.8415 16.8171L54.3902 15.7195L53.8415 15.1707Z" fill="url(#paint17_radial_35_101)"/>
<path d="M56.5854 10.2317H56.0366H55.4878L54.3902 11.3293C54.2073 11.6951 53.8415 12.5366 53.8415 12.9756V14.0732L54.939 15.1707C55.1219 15.3537 55.4878 15.8293 55.4878 16.2683C55.4878 16.8171 56.5854 16.2683 56.5854 15.7195C56.5854 15.2805 57.3171 15.1707 57.6829 15.1707V14.0732L58.074 13.1858L58.2317 11.878L58.074 10.7805L57.1341 10.2317H56.5854Z" fill="url(#paint18_radial_35_101)"/>
<path d="M88.5397 32.9578C88.8415 32.9175 89.4172 33.0174 89.3059 33.7396C89.1945 34.4617 89.0197 34.9566 88.9463 35.1137L88.7687 35.4935C88.599 35.8565 88.5674 36.2689 88.6798 36.6535V36.6535C88.7559 36.9134 88.8948 37.1506 89.0844 37.344L89.3064 37.5706L89.5618 37.8312" stroke="#BE6C12" stroke-opacity="0.6" stroke-width="0.3"/>
<path d="M78.0057 33.6232C78.0742 33.3266 78.3704 32.8229 79.0071 33.1814C79.6438 33.5399 80.0455 33.8778 80.1667 34.0019L80.4596 34.3018C80.7396 34.5885 81.1144 34.7633 81.514 34.7934V34.7934C81.7841 34.8138 82.055 34.7673 82.3027 34.658L82.593 34.5299L82.9268 34.3826" stroke="#BE6C12" stroke-opacity="0.6" stroke-width="0.3"/>
</g>
</g>
<defs>
<filter id="filter0_d_35_101" x="1" y="11.2707" width="91.4146" height="91.4146" filterUnits="userSpaceOnUse" color-interpolation-filters="sRGB">
<feFlood flood-opacity="0" result="BackgroundImageFix"/>
<feColorMatrix in="SourceAlpha" type="matrix" values="0 0 0 0 0 0 0 0 0 0 0 0 0 0 0 0 0 0 127 0" result="hardAlpha"/>
<feOffset dy="0.1"/>
<feGaussianBlur stdDeviation="2"/>
<feComposite in2="hardAlpha" operator="out"/>
<feColorMatrix type="matrix" values="0 0 0 0 0 0 0 0 0 0 0 0 0 0 0 0 0 0 0.25 0"/>
<feBlend mode="normal" in2="BackgroundImageFix" result="effect1_dropShadow_35_101"/>
<feBlend mode="normal" in="SourceGraphic" in2="effect1_dropShadow_35_101" result="shape"/>
</filter>
<filter id="filter1_d_35_101" x="6.1378" y="7.9233" width="83.2018" height="91.7453" filterUnits="userSpaceOnUse" color-interpolation-filters="sRGB">
<feFlood flood-opacity="0" result="BackgroundImageFix"/>
<feColorMatrix in="SourceAlpha" type="matrix" values="0 0 0 0 0 0 0 0 0 0 0 0 0 0 0 0 0 0 127 0" result="hardAlpha"/>
<feOffset dy="0.1"/>
<feGaussianBlur stdDeviation="2"/>
<feComposite in2="hardAlpha" operator="out"/>
<feColorMatrix type="matrix" values="0 0 0 0 0 0 0 0 0 0 0 0 0 0 0 0 0 0 0.25 0"/>
<feBlend mode="normal" in2="BackgroundImageFix" result="effect1_dropShadow_35_101"/>
<feBlend mode="normal" in="SourceGraphic" in2="effect1_dropShadow_35_101" result="shape"/>
</filter>
<filter id="filter2_d_35_101" x="46" y="-1.9" width="53" height="50.8049" filterUnits="userSpaceOnUse" color-interpolation-filters="sRGB">
<feFlood flood-opacity="0" result="BackgroundImageFix"/>
<feColorMatrix in="SourceAlpha" type="matrix" values="0 0 0 0 0 0 0 0 0 0 0 0 0 0 0 0 0 0 127 0" result="hardAlpha"/>
<feOffset dy="0.1"/>
<feGaussianBlur stdDeviation="2"/>
<feComposite in2="hardAlpha" operator="out"/>
<feColorMatrix type="matrix" values="0 0 0 0 0 0 0 0 0 0 0 0 0 0 0 0 0 0 0.25 0"/>
<feBlend mode="normal" in2="BackgroundImageFix" result="effect1_dropShadow_35_101"/>
<feBlend mode="normal" in="SourceGraphic" in2="effect1_dropShadow_35_101" result="shape"/>
</filter>
<radialGradient id="paint0_radial_35_101" cx="0" cy="0" r="1" gradientUnits="userSpaceOnUse" gradientTransform="translate(46.7073 56.878) rotate(90) scale(41.7073)">
<stop offset="0.229167" stop-color="#E8AB59"/>
<stop offset="0.619792" stop-color="#CF994F"/>
<stop offset="1" stop-color="#A87B3E"/>
</radialGradient>
<radialGradient id="paint1_radial_35_101" cx="0" cy="0" r="1" gradientUnits="userSpaceOnUse" gradientTransform="translate(69.4817 43.9817) rotate(90) scale(0.823171)">
<stop offset="0.4375" stop-color="#DAA558"/>
<stop offset="1" stop-color="#C99952" stop-opacity="0.94"/>
</radialGradient>
<radialGradient id="paint2_radial_35_101" cx="0" cy="0" r="1" gradientUnits="userSpaceOnUse" gradientTransform="translate(71.9512 39.8659) rotate(90) scale(0.548781)">
<stop offset="0.4375" stop-color="#DAA558"/>
<stop offset="1" stop-color="#C99952" stop-opacity="0.94"/>
</radialGradient>
<radialGradient id="paint3_radial_35_101" cx="0" cy="0" r="1" gradientUnits="userSpaceOnUse" gradientTransform="translate(70.0305 24.2256) rotate(90) scale(0.823171)">
<stop offset="0.4375" stop-color="#DAA558"/>
<stop offset="1" stop-color="#C99952" stop-opacity="0.94"/>
</radialGradient>
<radialGradient id="paint4_radial_35_101" cx="0" cy="0" r="1" gradientUnits="userSpaceOnUse" gradientTransform="translate(72.5 20.1098) rotate(90) scale(0.548781)">
<stop offset="0.4375" stop-color="#DAA558"/>
<stop offset="1" stop-color="#C99952" stop-opacity="0.94"/>
</radialGradient>
<radialGradient id="paint5_radial_35_101" cx="0" cy="0" r="1" gradientUnits="userSpaceOnUse" gradientTransform="translate(87.5915 14.3476) rotate(90) scale(0.823171)">
<stop offset="0.4375" stop-color="#DAA558"/>
<stop offset="1" stop-color="#C99952" stop-opacity="0.94"/>
</radialGradient>
<radialGradient id="paint6_radial_35_101" cx="0" cy="0" r="1" gradientUnits="userSpaceOnUse" gradientTransform="translate(90.061 10.2317) rotate(90) scale(0.548781)">
<stop offset="0.4375" stop-color="#DAA558"/>
<stop offset="1" stop-color="#C99952" stop-opacity="0.94"/>
</radialGradient>
<radialGradient id="paint7_radial_35_101" cx="0" cy="0" r="1" gradientUnits="userSpaceOnUse" gradientTransform="translate(84.9369 35.231) rotate(90) scale(6.34075 9.14419)">
<stop offset="0.4375" stop-color="#DAA558"/>
<stop offset="1" stop-color="#C99952" stop-opacity="0.94"/>
</radialGradient>
<radialGradient id="paint8_radial_35_101" cx="0" cy="0" r="1" gradientUnits="userSpaceOnUse" gradientTransform="translate(55.7622 28.6158) rotate(90) scale(3.01829 1.92073)">
<stop offset="0.4375" stop-color="#DAA558"/>
<stop offset="1" stop-color="#C99952" stop-opacity="0.94"/>
</radialGradient>
<radialGradient id="paint9_radial_35_101" cx="0" cy="0" r="1" gradientUnits="userSpaceOnUse" gradientTransform="translate(63.4451 19.8354) rotate(90) scale(4.66463)">
<stop offset="0.4375" stop-color="#DAA558"/>
<stop offset="1" stop-color="#C99952" stop-opacity="0.94"/>
</radialGradient>
<radialGradient id="paint10_radial_35_101" cx="0" cy="0" r="1" gradientUnits="userSpaceOnUse" gradientTransform="translate(56.0366 12.9756) rotate(90) scale(3.29268 2.19512)">
<stop offset="0.4375" stop-color="#DAA558"/>
<stop offset="1" stop-color="#C99952" stop-opacity="0.94"/>
</radialGradient>
<radialGradient id="paint11_radial_35_101" cx="0" cy="0" r="1" gradientUnits="userSpaceOnUse" gradientTransform="translate(90.6098 22.0305) rotate(90) scale(1.92073 4.39024)">
<stop offset="0.4375" stop-color="#DAA558"/>
<stop offset="1" stop-color="#C99952" stop-opacity="0.94"/>
</radialGradient>
<radialGradient id="paint12_radial_35_101" cx="0" cy="0" r="1" gradientUnits="userSpaceOnUse" gradientTransform="translate(85.1219 21.2828) rotate(90) scale(2.8194 2.19512)">
<stop offset="0.4375" stop-color="#DAA558"/>
<stop offset="1" stop-color="#C99952" stop-opacity="0.94"/>
</radialGradient>
<radialGradient id="paint13_radial_35_101" cx="0" cy="0" r="1" gradientUnits="userSpaceOnUse" gradientTransform="translate(67.561 31.4353) rotate(90) scale(1.99623 2.7439)">
<stop offset="0.4375" stop-color="#DAA558"/>
<stop offset="1" stop-color="#C99952" stop-opacity="0.94"/>
</radialGradient>
<radialGradient id="paint14_radial_35_101" cx="0" cy="0" r="1" gradientUnits="userSpaceOnUse" gradientTransform="translate(72.2256 5.56707) rotate(90) scale(3.56707 2.46951)">
<stop offset="0.4375" stop-color="#DAA558"/>
<stop offset="1" stop-color="#C99952" stop-opacity="0.94"/>
</radialGradient>
<radialGradient id="paint15_radial_35_101" cx="0" cy="0" r="1" gradientUnits="userSpaceOnUse" gradientTransform="translate(65.0915 5.29269) rotate(90) scale(2.19512 1.37195)">
<stop offset="0.4375" stop-color="#DAA558"/>
<stop offset="1" stop-color="#C99952" stop-opacity="0.94"/>
</radialGradient>
<radialGradient id="paint16_radial_35_101" cx="0" cy="0" r="1" gradientUnits="userSpaceOnUse" gradientTransform="translate(54.1159 8.15778) rotate(90) scale(1.21877 1.37195)">
<stop offset="0.4375" stop-color="#DAA558"/>
<stop offset="1" stop-color="#C99952" stop-opacity="0.94"/>
</radialGradient>
<radialGradient id="paint17_radial_35_101" cx="0" cy="0" r="1" gradientUnits="userSpaceOnUse" gradientTransform="translate(52.1951 17.3659) rotate(90) scale(2.19512)">
<stop offset="0.4375" stop-color="#DAA558"/>
<stop offset="1" stop-color="#C99952" stop-opacity="0.94"/>
</radialGradient>
<radialGradient id="paint18_radial_35_101" cx="0" cy="0" r="1" gradientUnits="userSpaceOnUse" gradientTransform="translate(56.0366 13.3637) rotate(90) scale(3.13195 2.19512)">
<stop offset="0.4375" stop-color="#DAA558"/>
<stop offset="1" stop-color="#C99952" stop-opacity="0.94"/>
</radialGradient>
<clipPath id="clip0_35_101">
<rect width="100" height="100" fill="white"/>
</clipPath>
</defs>
</svg>
