<svg width="100" height="100" viewBox="0 0 100 100" fill="none" xmlns="http://www.w3.org/2000/svg">
<rect x="3" y="25" width="94" height="50" rx="5" fill="#247DC9"/>
<rect x="49" y="25" width="2" height="50" fill="white"/>
<path d="M70.8439 44.4H71.0839V47.01H70.8439C69.6639 47.01 68.5639 47.24 67.5439 47.7C66.5239 48.16 65.7239 48.8 65.1439 49.62V60H62.4139V44.7H64.8139L65.1439 46.62V47.07H65.2039C66.6439 45.29 68.5239 44.4 70.8439 44.4ZM79.2655 60.3C77.6055 60.3 76.2955 59.74 75.3355 58.62C74.3755 57.5 73.8955 56.1 73.8955 54.42V44.7H76.6255V54.12C76.6255 56.56 77.7255 57.78 79.9255 57.78C81.6655 57.78 83.3055 56.82 84.8455 54.9V44.7H87.5755V60H85.1755L84.8455 58.08V57.63H84.7855C83.1655 59.41 81.3255 60.3 79.2655 60.3Z" fill="white"/>
<path d="M15.1444 60.3C13.4844 60.3 12.1744 59.74 11.2144 58.62C10.2544 57.5 9.77441 56.1 9.77441 54.42V44.7H12.5044V54.12C12.5044 56.56 13.6044 57.78 15.8044 57.78C17.5444 57.78 19.1844 56.82 20.7244 54.9V44.7H23.4544V60H21.0544L20.7244 58.08V57.63H20.6644C19.0444 59.41 17.2044 60.3 15.1444 60.3ZM28.475 45.54C30.215 44.78 32.075 44.4 34.055 44.4C36.055 44.4 37.585 44.98 38.645 46.14C39.705 47.3 40.235 48.69 40.235 50.31V60H37.835L37.505 58.08H37.415C35.975 59.56 34.125 60.3 31.865 60.3C30.505 60.3 29.345 59.89 28.385 59.07C27.445 58.25 26.975 57.13 26.975 55.71C26.975 54.29 27.555 53.14 28.715 52.26C29.895 51.38 31.615 50.94 33.875 50.94H37.505V50.7C37.505 49.38 37.175 48.43 36.515 47.85C35.875 47.27 34.755 46.98 33.155 46.98C31.555 46.98 30.055 47.32 28.655 48H28.475V45.54ZM37.505 55.65V53.13H34.235C31.215 53.13 29.705 53.93 29.705 55.53C29.705 57.11 30.765 57.9 32.885 57.9C33.765 57.9 34.615 57.69 35.435 57.27C36.255 56.83 36.945 56.29 37.505 55.65Z" fill="white"/>
</svg>
