<svg width="1920" height="666" viewBox="0 0 1920 666" fill="none" xmlns="http://www.w3.org/2000/svg">
<g clip-path="url(#clip0_39_2)">
<path d="M1111.16 0H1256.99H1334.01L1398.84 6.15135C1402.51 6.49987 1406.14 7.17554 1409.7 8.17032L1461.62 22.7074C1466.22 23.996 1470.66 25.8125 1474.84 28.1205L1553.27 71.373L1623.61 119.126L1633.07 125.496C1643.3 132.389 1655.36 136.071 1667.7 136.071H1693.44L1803.33 146.34L1840.93 154.47C1841.19 154.526 1841.43 154.652 1841.63 154.833L1847.88 160.604C1847.96 160.68 1848.03 160.764 1848.1 160.856L1853.53 168.768C1853.61 168.878 1853.67 168.997 1853.71 169.122L1857.16 178.962C1857.21 179.121 1857.24 179.289 1857.24 179.458V196.148L1862.35 279.464C1862.37 279.713 1862.45 279.955 1862.58 280.167L1864.73 283.603C1864.87 283.831 1864.95 284.094 1864.95 284.363L1866.96 368.751C1866.98 369.566 1867.65 370.216 1868.46 370.216H1870.45C1870.87 370.216 1871.27 370.392 1871.55 370.702L1876.57 376.171C1876.69 376.307 1876.79 376.466 1876.86 376.638L1881.38 388.187L1882.87 394.17C1882.9 394.289 1882.92 394.411 1882.92 394.534V432.86L1881.38 450.831L1876.78 472.799C1876.76 472.873 1876.74 472.946 1876.71 473.018L1872.2 485.054C1872.16 485.174 1872.1 485.287 1872.02 485.391L1862.5 498.93C1862.42 499.041 1862.32 499.142 1862.22 499.228L1857.01 503.491C1856.82 503.641 1856.61 503.745 1856.38 503.796L1844.92 506.287L1821.3 512.962L1787.41 519.637L1736.69 529.371C1736.61 529.386 1736.54 529.406 1736.47 529.431L1690.61 545.737C1690.45 545.795 1690.28 545.824 1690.1 545.824H1668.28L1649.29 545.311L121.348 549.418C121.238 549.418 121.129 549.407 121.022 549.383L95.6621 543.804C95.5606 543.781 95.4617 543.749 95.367 543.706L79.716 536.638C79.6333 536.6 79.5542 536.556 79.4796 536.504L66.4285 527.469C66.3044 527.383 66.194 527.279 66.101 527.16L57.1251 515.691C57.0413 515.583 56.9724 515.465 56.9204 515.34L50.8371 500.638L41.5945 466.749L102.287 469.257C103.091 469.29 103.725 469.951 103.725 470.756V480.42C103.725 482.003 101.591 482.507 100.883 481.091L100.319 479.963C100.196 479.716 100.007 479.508 99.7728 479.362L92.0727 474.55C91.968 474.484 91.8557 474.432 91.7382 474.394L76.1735 469.373C76.0565 469.335 75.9354 469.312 75.8127 469.304L60.5931 468.289L41.5945 466.749L38.5137 430.806V409.753L40.0358 390.98C40.0479 390.831 40.0824 390.684 40.1382 390.544L45.1888 377.918L48.6455 371.004C48.7363 370.823 48.8631 370.661 49.0182 370.53L54.865 365.583C55.2371 365.268 55.433 364.792 55.3903 364.307L51.3694 318.569C51.3569 318.427 51.3648 318.284 51.3928 318.144L53.4045 308.085L56.9049 297.584C56.9669 297.398 57.0647 297.226 57.1927 297.078L66.5637 286.227C66.6899 286.081 66.8432 285.96 67.0151 285.872L87.8073 275.223L108.346 267.007L155.586 249.035L223.878 228.496L348.653 198.715L453.402 185.365L524.893 182.301C525.152 182.29 525.404 182.212 525.623 182.075L661.873 97.0468L803.373 6.30214C803.518 6.20921 803.677 6.14191 803.845 6.10321L830.126 0.0384131C830.237 0.0128868 830.35 0 830.463 0H1111.16Z" fill="#247DC9"/>
<mask id="path-2-inside-1_39_2" fill="white">
<path d="M1677.01 545.824C1677.01 522.83 1672.96 500.062 1665.09 478.818C1657.22 457.575 1645.69 438.272 1631.14 422.013C1616.6 405.754 1599.34 392.857 1580.33 384.057C1561.33 375.258 1540.97 370.729 1520.4 370.729C1499.84 370.729 1479.47 375.258 1460.47 384.057C1441.47 392.857 1424.21 405.754 1409.66 422.013C1395.12 438.272 1383.58 457.575 1375.71 478.818C1367.84 500.062 1363.79 522.83 1363.79 545.824L1520.4 545.824H1677.01Z"/>
</mask>
<path d="M1677.01 545.824C1677.01 522.83 1672.96 500.062 1665.09 478.818C1657.22 457.575 1645.69 438.272 1631.14 422.013C1616.6 405.754 1599.34 392.857 1580.33 384.057C1561.33 375.258 1540.97 370.729 1520.4 370.729C1499.84 370.729 1479.47 375.258 1460.47 384.057C1441.47 392.857 1424.21 405.754 1409.66 422.013C1395.12 438.272 1383.58 457.575 1375.71 478.818C1367.84 500.062 1363.79 522.83 1363.79 545.824L1520.4 545.824H1677.01Z" fill="black" stroke="black" stroke-width="2" mask="url(#path-2-inside-1_39_2)"/>
<circle cx="1520.4" cy="519.123" r="143.787" fill="black" stroke="white"/>
<circle cx="1520.4" cy="519.123" r="110.924" fill="#C1BFC0" stroke="black"/>
<path d="M1533.9 423.104C1535.16 423.104 1536.1 424.248 1535.86 425.481L1526.36 474.883C1526.18 475.824 1525.36 476.505 1524.4 476.505H1517.43C1516.47 476.505 1515.65 475.824 1515.47 474.883L1505.97 425.481C1505.73 424.248 1506.68 423.104 1507.93 423.104H1533.9Z" fill="#434345"/>
<path d="M1507.93 615.143C1506.68 615.143 1505.73 613.999 1505.97 612.766L1515.47 563.364C1515.65 562.423 1516.47 561.742 1517.43 561.742H1524.4C1525.36 561.742 1526.18 562.423 1526.36 563.364L1535.86 612.766C1536.1 613.999 1535.16 615.143 1533.9 615.143H1507.93Z" fill="#434345"/>
<path d="M1424.9 506.508C1424.9 505.252 1426.04 504.307 1427.28 504.544L1476.68 514.044C1477.62 514.226 1478.3 515.05 1478.3 516.008V522.974C1478.3 523.933 1477.62 524.757 1476.68 524.938L1427.28 534.438C1426.04 534.675 1424.9 533.73 1424.9 532.474V506.508Z" fill="#434345"/>
<path d="M1616.94 531.739C1616.94 532.995 1615.79 533.94 1614.56 533.703L1565.16 524.202C1564.21 524.021 1563.53 523.197 1563.53 522.238V515.273C1563.53 514.314 1564.21 513.49 1565.16 513.309L1614.56 503.809C1615.79 503.571 1616.94 504.517 1616.94 505.773V531.739Z" fill="#434345"/>
<path d="M1461.9 442.275C1462.79 441.383 1464.27 441.518 1464.97 442.555L1493.35 484.096C1493.89 484.887 1493.79 485.952 1493.12 486.632L1488.21 491.577C1487.54 492.257 1486.47 492.363 1485.68 491.828L1443.92 463.776C1442.87 463.075 1442.73 461.598 1443.61 460.707L1461.9 442.275Z" fill="#434345"/>
<path d="M1579.93 595.972C1579.05 596.864 1577.57 596.729 1576.86 595.691L1548.48 554.151C1547.94 553.359 1548.04 552.295 1548.72 551.614L1553.62 546.67C1554.3 545.989 1555.36 545.884 1556.16 546.419L1597.92 574.471C1598.96 575.172 1599.11 576.649 1598.22 577.54L1579.93 595.972Z" fill="#434345"/>
<path d="M1444.33 578.396C1443.44 577.511 1443.57 576.033 1444.61 575.325L1486.15 546.949C1486.94 546.408 1488.01 546.506 1488.69 547.181L1493.63 552.087C1494.31 552.763 1494.42 553.826 1493.88 554.622L1465.83 596.381C1465.13 597.424 1463.65 597.57 1462.76 596.686L1444.33 578.396Z" fill="#434345"/>
<path d="M1597.5 459.85C1598.39 460.735 1598.26 462.213 1597.22 462.922L1555.68 491.297C1554.89 491.838 1553.83 491.741 1553.15 491.065L1548.2 486.159C1547.52 485.484 1547.41 484.42 1547.95 483.624L1576 441.865C1576.7 440.823 1578.18 440.676 1579.07 441.561L1597.5 459.85Z" fill="#434345"/>
<mask id="path-13-inside-2_39_2" fill="white">
<path d="M549.421 548.905C549.421 525.911 545.37 503.142 537.5 481.899C529.629 460.655 518.094 441.353 503.551 425.094C489.008 408.835 471.744 395.937 452.743 387.138C433.742 378.339 413.377 373.81 392.811 373.81C372.245 373.81 351.88 378.339 332.879 387.138C313.878 395.937 296.614 408.835 282.071 425.094C267.529 441.353 255.993 460.655 248.122 481.899C240.252 503.142 236.201 525.911 236.201 548.905L392.811 548.905H549.421Z"/>
</mask>
<path d="M549.421 548.905C549.421 525.911 545.37 503.142 537.5 481.899C529.629 460.655 518.094 441.353 503.551 425.094C489.008 408.835 471.744 395.937 452.743 387.138C433.742 378.339 413.377 373.81 392.811 373.81C372.245 373.81 351.88 378.339 332.879 387.138C313.878 395.937 296.614 408.835 282.071 425.094C267.529 441.353 255.993 460.655 248.122 481.899C240.252 503.142 236.201 525.911 236.201 548.905L392.811 548.905H549.421Z" fill="black" stroke="black" stroke-width="2" mask="url(#path-13-inside-2_39_2)"/>
<circle cx="392.811" cy="522.204" r="143.787" fill="black" stroke="white"/>
<circle cx="392.811" cy="522.204" r="110.924" fill="#C1BFC0" stroke="black"/>
<path d="M406.308 426.184C407.564 426.184 408.509 427.329 408.272 428.562L398.771 477.963C398.59 478.905 397.766 479.586 396.807 479.586H389.842C388.883 479.586 388.059 478.905 387.878 477.963L378.378 428.562C378.141 427.329 379.086 426.184 380.342 426.184H406.308Z" fill="#434345"/>
<path d="M380.342 618.224C379.086 618.224 378.14 617.08 378.378 615.846L387.878 566.445C388.059 565.503 388.883 564.823 389.842 564.823H396.807C397.766 564.823 398.59 565.503 398.771 566.445L408.272 615.846C408.509 617.08 407.564 618.224 406.308 618.224H380.342Z" fill="#434345"/>
<path d="M297.306 509.589C297.306 508.333 298.45 507.388 299.683 507.625L349.085 517.125C350.026 517.306 350.707 518.13 350.707 519.089V526.055C350.707 527.014 350.026 527.838 349.085 528.019L299.683 537.519C298.45 537.756 297.306 536.811 297.306 535.555V509.589Z" fill="#434345"/>
<path d="M489.343 534.819C489.343 536.076 488.199 537.021 486.966 536.783L437.564 527.283C436.622 527.102 435.942 526.278 435.942 525.319V518.354C435.942 517.395 436.622 516.571 437.564 516.39L486.966 506.889C488.199 506.652 489.343 507.597 489.343 508.853V534.819Z" fill="#434345"/>
<path d="M334.311 445.356C335.195 444.464 336.673 444.599 337.382 445.636L365.757 487.176C366.298 487.968 366.201 489.032 365.526 489.713L360.62 494.658C359.944 495.338 358.881 495.444 358.085 494.909L316.326 466.856C315.283 466.156 315.137 464.679 316.021 463.787L334.311 445.356Z" fill="#434345"/>
<path d="M452.339 599.053C451.455 599.944 449.977 599.809 449.268 598.772L420.892 557.232C420.352 556.44 420.449 555.376 421.124 554.695L426.03 549.751C426.706 549.07 427.769 548.965 428.565 549.499L470.324 577.552C471.367 578.253 471.513 579.729 470.629 580.621L452.339 599.053Z" fill="#434345"/>
<path d="M316.738 581.477C315.846 580.592 315.981 579.114 317.018 578.406L358.558 550.03C359.35 549.489 360.415 549.587 361.095 550.262L366.04 555.168C366.72 555.844 366.826 556.907 366.291 557.703L338.238 599.462C337.538 600.505 336.061 600.651 335.17 599.767L316.738 581.477Z" fill="#434345"/>
<path d="M469.911 462.932C470.803 463.816 470.668 465.294 469.631 466.003L428.09 494.378C427.299 494.919 426.234 494.822 425.554 494.147L420.609 489.24C419.929 488.565 419.823 487.501 420.358 486.705L448.41 444.947C449.111 443.904 450.588 443.757 451.479 444.642L469.911 462.932Z" fill="#434345"/>
<path d="M51.5012 317.722L53.1812 310.666C53.6125 308.855 55.2368 307.58 57.0989 307.593L131.453 308.085L146.04 309.594C146.242 309.615 146.442 309.651 146.638 309.702L157.546 312.548C157.948 312.653 158.332 312.82 158.683 313.044L162.867 315.706C163.479 316.095 163.973 316.643 164.297 317.292L164.92 318.537C165.197 319.092 165.342 319.705 165.342 320.326V320.491C165.342 321.112 165.197 321.725 164.92 322.28L164.136 323.848C163.915 324.29 163.614 324.687 163.249 325.019L158.153 329.651L146.701 338.614C146.463 338.8 146.206 338.958 145.933 339.086L129.912 346.596L109.887 353.271L94.4825 358.406L73.43 362.513L59.5337 364.102C57.2997 364.357 55.2943 362.721 55.0952 360.482L51.4082 319.002C51.37 318.573 51.4015 318.141 51.5012 317.722Z" fill="white" stroke="black" stroke-width="0.5"/>
<path d="M1808.46 235.672V218.596C1808.46 212.912 1811.3 207.604 1816.03 204.451L1819.34 202.245C1821.31 200.933 1823.53 200.046 1825.86 199.641L1832.69 198.453C1833.65 198.286 1834.63 198.201 1835.6 198.201H1844.92H1848.85C1854.71 198.201 1860.16 201.221 1863.26 206.191L1863.39 206.39C1865.08 209.092 1865.97 212.214 1865.97 215.4V265.642C1865.97 266.88 1865.7 268.103 1865.18 269.226C1863.79 272.256 1860.75 274.196 1857.42 274.196H1844.82C1842.19 274.196 1839.58 273.581 1837.22 272.401L1834.08 270.832C1833.09 270.337 1832.16 269.747 1831.28 269.069L1820.07 260.387C1817.84 258.666 1816.08 256.419 1814.94 253.849L1809.93 242.576C1808.96 240.403 1808.46 238.05 1808.46 235.672Z" fill="white" stroke="black" stroke-width="0.5"/>
<path d="M1512.7 179.203C1512.7 159.446 1507.05 134.812 1487.03 116.559C1467 98.3058 1437.65 81.7205 1400.65 67.7501C1363.65 53.7797 1319.73 42.6978 1271.38 35.137C1223.04 27.5763 1166.57 28.7548 1114.24 28.7548L1114.24 179.203H1512.7Z" fill="white"/>
<path d="M822.22 32.4612L597.86 175.993C596.172 177.073 596.945 179.689 598.949 179.677L1046 177.169C1047.1 177.163 1047.98 176.269 1047.98 175.169V31.7815C1047.98 30.6769 1047.09 29.7815 1045.98 29.7815H831.381C828.134 29.7815 824.955 30.7114 822.22 32.4612Z" fill="white"/>
<rect x="428.241" y="274.196" width="36.9702" height="20.539" rx="10.2695" fill="white"/>
<path d="M1081.38 514.502V16.4312H829.677C826.392 16.4312 823.178 17.3828 820.422 19.171L580.562 174.836C575.855 177.89 572.959 183.07 572.821 188.679L565.253 497.085C565.019 506.634 572.696 514.502 582.248 514.502H1081.38Z" stroke="black" stroke-width="0.5"/>
<path d="M1081.38 514.502V16.4312H1246.72L1334.26 25.9899C1335.46 26.1211 1336.64 26.3798 1337.79 26.7618L1411.94 51.4789C1412.7 51.7333 1413.45 52.0415 1414.17 52.4012L1479.87 85.2518C1481.21 85.9235 1482.46 86.7703 1483.58 87.77L1517.81 118.3C1519.19 119.527 1520.35 120.97 1521.27 122.573L1540.77 156.806C1542.23 159.369 1543 162.269 1543 165.22V196.252C1543 198.555 1542.53 200.833 1541.62 202.949L1521.06 250.927C1520.28 252.733 1519.2 254.391 1517.86 255.828L1412.57 368.675L1363.15 421.002C1361.21 423.055 1359.82 425.559 1359.09 428.288L1339.43 501.888C1337.45 509.327 1330.71 514.502 1323.01 514.502H1081.38Z" stroke="black" stroke-width="0.5"/>
<rect x="1520.92" y="369.702" width="346.082" height="0.513475" fill="black"/>
<rect x="38" y="405.646" width="263.926" height="0.513475" fill="black"/>
<rect x="1457.25" y="219.767" width="55.4553" height="9.24255" rx="4" fill="white"/>
<rect x="1457.25" y="219.767" width="55.4553" height="9.24255" rx="4" fill="white"/>
<rect x="992.037" y="219.767" width="55.4553" height="9.24255" rx="4" fill="white"/>
<rect x="992.037" y="219.767" width="55.4553" height="9.24255" rx="4" fill="white"/>
</g>
<defs>
<clipPath id="clip0_39_2">
<rect width="1920" height="666" fill="white"/>
</clipPath>
</defs>
</svg>
