<svg width="1920" height="1053" viewBox="0 0 1920 1053" fill="none" xmlns="http://www.w3.org/2000/svg">
<g clip-path="url(#clip0_40_2)">
<path d="M1130 404H1272H1347L1409.98 409.976C1413.65 410.325 1417.29 411 1420.84 411.995L1471.07 426.061C1475.68 427.349 1480.11 429.166 1484.3 431.474L1560.5 473.5L1629 520L1637.8 525.925C1648.03 532.818 1660.09 536.5 1672.43 536.5H1697L1804 546.5L1840.6 554.414C1840.86 554.47 1841.1 554.596 1841.3 554.777L1847.38 560.386C1847.46 560.462 1847.53 560.546 1847.6 560.638L1852.89 568.335C1852.96 568.444 1853.02 568.564 1853.07 568.689L1856.42 578.259C1856.47 578.419 1856.5 578.586 1856.5 578.755V595L1861.48 676.12C1861.49 676.369 1861.57 676.611 1861.7 676.823L1863.78 680.152C1863.92 680.38 1864 680.642 1864.01 680.911L1865.97 763.036C1865.98 763.85 1866.65 764.5 1867.46 764.5H1869.34C1869.76 764.5 1870.16 764.676 1870.45 764.986L1875.31 770.294C1875.44 770.43 1875.53 770.588 1875.6 770.761L1880 782L1881.46 787.821C1881.48 787.94 1881.5 788.062 1881.5 788.185V825.5L1880 843L1875.52 864.388C1875.51 864.463 1875.49 864.536 1875.46 864.607L1871.07 876.32C1871.02 876.44 1870.96 876.553 1870.89 876.657L1861.62 889.832C1861.54 889.944 1861.45 890.044 1861.34 890.13L1856.28 894.272C1856.1 894.422 1855.88 894.526 1855.65 894.577L1844.5 897L1821.5 903.5L1788.5 910L1739.11 919.478C1739.04 919.493 1738.96 919.513 1738.89 919.538L1694.24 935.413C1694.08 935.471 1693.91 935.5 1693.74 935.5H1672.5L1654 935L166.165 939C166.055 939 165.946 938.988 165.839 938.965L141.153 933.534C141.051 933.511 140.952 933.478 140.858 933.436L125.624 926.556C125.542 926.519 125.462 926.474 125.388 926.422L112.687 917.63C112.563 917.544 112.453 917.44 112.36 917.321L103.626 906.161C103.543 906.054 103.474 905.936 103.422 905.811L97.5 891.5L88.5 858.5L147.562 860.941C148.366 860.974 149 861.635 149 862.439V871.646C149 873.229 146.866 873.732 146.158 872.317L145.689 871.378C145.565 871.131 145.376 870.923 145.142 870.776L137.658 866.099C137.553 866.033 137.441 865.981 137.323 865.943L122.176 861.057C122.059 861.019 121.938 860.996 121.815 860.988L107 860L88.5 858.5L85.5 823.5V803L86.9817 784.726C86.9938 784.576 87.0283 784.429 87.0841 784.29L92 772L95.3623 765.275C95.4532 765.094 95.58 764.932 95.735 764.801L101.407 760.002C101.779 759.687 101.975 759.211 101.932 758.726L98.0189 714.214C98.0063 714.072 98.0142 713.929 98.0422 713.789L100 704L103.406 693.782C103.468 693.596 103.566 693.424 103.694 693.275L112.809 682.721C112.935 682.575 113.088 682.455 113.26 682.367L133.5 672L153.5 664L199.5 646.5L266 626.5L387.5 597.5L489.5 584.5L559.105 581.517C559.364 581.506 559.615 581.428 559.835 581.291L692.5 498.5L830.281 410.14C830.426 410.048 830.586 409.98 830.753 409.942L856.334 404.038C856.444 404.013 856.557 404 856.671 404H1130Z" fill="#247DC9"/>
<mask id="path-2-inside-1_40_2" fill="white">
<path d="M1681 935.5C1681 913.11 1677.06 890.938 1669.39 870.252C1661.73 849.566 1650.49 830.771 1636.33 814.938C1622.17 799.106 1605.36 786.547 1586.86 777.979C1568.36 769.41 1548.53 765 1528.5 765C1508.47 765 1488.64 769.41 1470.14 777.979C1451.64 786.547 1434.83 799.106 1420.67 814.938C1406.51 830.771 1395.27 849.566 1387.61 870.252C1379.94 890.938 1376 913.11 1376 935.5L1528.5 935.5H1681Z"/>
</mask>
<path d="M1681 935.5C1681 913.11 1677.06 890.938 1669.39 870.252C1661.73 849.566 1650.49 830.771 1636.33 814.938C1622.17 799.106 1605.36 786.547 1586.86 777.979C1568.36 769.41 1548.53 765 1528.5 765C1508.47 765 1488.64 769.41 1470.14 777.979C1451.64 786.547 1434.83 799.106 1420.67 814.938C1406.51 830.771 1395.27 849.566 1387.61 870.252C1379.94 890.938 1376 913.11 1376 935.5L1528.5 935.5H1681Z" fill="black" stroke="black" stroke-width="2" mask="url(#path-2-inside-1_40_2)"/>
<circle cx="1528.5" cy="909.5" r="140" fill="black" stroke="white"/>
<circle cx="1528.5" cy="909.5" r="108" fill="#C1BFC0" stroke="black"/>
<path d="M1541.58 816C1542.83 816 1543.78 817.144 1543.54 818.378L1534.31 866.378C1534.13 867.319 1533.31 868 1532.35 868H1525.65C1524.69 868 1523.87 867.319 1523.69 866.378L1514.46 818.378C1514.22 817.144 1515.17 816 1516.42 816H1541.58Z" fill="#434345"/>
<path d="M1516.42 1003C1515.17 1003 1514.22 1001.86 1514.46 1000.62L1523.69 952.622C1523.87 951.681 1524.69 951 1525.65 951H1532.35C1533.31 951 1534.13 951.681 1534.31 952.622L1543.54 1000.62C1543.78 1001.86 1542.83 1003 1541.58 1003H1516.42Z" fill="#434345"/>
<path d="M1435.5 897.279C1435.5 896.023 1436.65 895.078 1437.88 895.315L1485.88 904.546C1486.82 904.727 1487.5 905.551 1487.5 906.51V913.206C1487.5 914.165 1486.82 914.989 1485.88 915.17L1437.88 924.401C1436.65 924.638 1435.5 923.693 1435.5 922.437V897.279Z" fill="#434345"/>
<path d="M1622.5 921.721C1622.5 922.977 1621.35 923.922 1620.12 923.685L1572.12 914.454C1571.18 914.273 1570.5 913.449 1570.5 912.49V905.794C1570.5 904.835 1571.18 904.011 1572.12 903.83L1620.12 894.599C1621.35 894.362 1622.5 895.307 1622.5 896.563V921.721Z" fill="#434345"/>
<path d="M1471.49 834.713C1472.37 833.822 1473.85 833.957 1474.56 834.994L1502.13 875.356C1502.67 876.148 1502.58 877.212 1501.9 877.893L1497.18 882.646C1496.51 883.326 1495.44 883.432 1494.65 882.897L1454.07 855.64C1453.03 854.94 1452.89 853.463 1453.77 852.571L1471.49 834.713Z" fill="#434345"/>
<path d="M1586.51 984.287C1585.63 985.178 1584.15 985.043 1583.44 984.006L1555.87 943.644C1555.33 942.852 1555.42 941.788 1556.1 941.107L1560.82 936.354C1561.49 935.674 1562.56 935.568 1563.35 936.103L1603.93 963.36C1604.97 964.06 1605.11 965.537 1604.23 966.429L1586.51 984.287Z" fill="#434345"/>
<path d="M1454.47 967.262C1453.58 966.377 1453.71 964.899 1454.75 964.191L1495.11 936.62C1495.9 936.079 1496.97 936.176 1497.65 936.852L1502.4 941.568C1503.08 942.244 1503.19 943.307 1502.65 944.103L1475.4 984.677C1474.7 985.72 1473.22 985.867 1472.33 984.982L1454.47 967.262Z" fill="#434345"/>
<path d="M1603.53 851.738C1604.42 852.623 1604.29 854.101 1603.25 854.809L1562.89 882.38C1562.1 882.921 1561.03 882.824 1560.35 882.148L1555.6 877.432C1554.92 876.756 1554.81 875.693 1555.35 874.897L1582.6 834.323C1583.3 833.28 1584.78 833.133 1585.67 834.018L1603.53 851.738Z" fill="#434345"/>
<mask id="path-13-inside-2_40_2" fill="white">
<path d="M583 938.5C583 916.11 579.055 893.938 571.392 873.252C563.728 852.566 552.495 833.771 538.334 817.938C524.173 802.106 507.361 789.547 488.859 780.979C470.357 772.41 450.527 768 430.5 768C410.473 768 390.643 772.41 372.141 780.979C353.639 789.547 336.827 802.106 322.666 817.938C308.505 833.771 297.272 852.566 289.608 873.252C281.945 893.938 278 916.11 278 938.5L430.5 938.5H583Z"/>
</mask>
<path d="M583 938.5C583 916.11 579.055 893.938 571.392 873.252C563.728 852.566 552.495 833.771 538.334 817.938C524.173 802.106 507.361 789.547 488.859 780.979C470.357 772.41 450.527 768 430.5 768C410.473 768 390.643 772.41 372.141 780.979C353.639 789.547 336.827 802.106 322.666 817.938C308.505 833.771 297.272 852.566 289.608 873.252C281.945 893.938 278 916.11 278 938.5L430.5 938.5H583Z" fill="black" stroke="black" stroke-width="2" mask="url(#path-13-inside-2_40_2)"/>
<circle cx="430.5" cy="912.5" r="140" fill="black" stroke="white"/>
<circle cx="430.5" cy="912.5" r="108" fill="#C1BFC0" stroke="black"/>
<path d="M443.579 819C444.835 819 445.78 820.144 445.543 821.378L436.312 869.378C436.131 870.319 435.307 871 434.348 871H427.652C426.693 871 425.869 870.319 425.688 869.378L416.457 821.378C416.22 820.144 417.165 819 418.421 819H443.579Z" fill="#434345"/>
<path d="M418.421 1006C417.165 1006 416.22 1004.86 416.457 1003.62L425.688 955.622C425.869 954.681 426.693 954 427.652 954H434.348C435.307 954 436.131 954.681 436.312 955.622L445.543 1003.62C445.78 1004.86 444.835 1006 443.579 1006H418.421Z" fill="#434345"/>
<path d="M337.501 900.279C337.501 899.023 338.645 898.078 339.879 898.315L387.879 907.546C388.82 907.727 389.501 908.551 389.501 909.51V916.206C389.501 917.165 388.82 917.989 387.879 918.17L339.879 927.401C338.645 927.638 337.501 926.693 337.501 925.437V900.279Z" fill="#434345"/>
<path d="M524.499 924.721C524.499 925.977 523.355 926.922 522.121 926.685L474.121 917.454C473.18 917.273 472.499 916.449 472.499 915.49V908.794C472.499 907.835 473.18 907.011 474.121 906.83L522.121 897.599C523.355 897.362 524.499 898.307 524.499 899.563V924.721Z" fill="#434345"/>
<path d="M373.49 837.713C374.375 836.822 375.853 836.957 376.561 837.994L404.132 878.356C404.673 879.148 404.575 880.212 403.9 880.893L399.184 885.646C398.508 886.326 397.445 886.432 396.649 885.897L356.074 858.64C355.032 857.94 354.885 856.463 355.77 855.571L373.49 837.713Z" fill="#434345"/>
<path d="M488.51 987.287C487.625 988.178 486.147 988.043 485.439 987.006L457.868 946.644C457.327 945.852 457.425 944.788 458.1 944.107L462.816 939.354C463.492 938.674 464.555 938.568 465.351 939.103L505.926 966.36C506.968 967.06 507.115 968.537 506.23 969.429L488.51 987.287Z" fill="#434345"/>
<path d="M356.469 970.262C355.577 969.377 355.712 967.899 356.749 967.191L397.111 939.62C397.903 939.079 398.967 939.176 399.648 939.852L404.401 944.568C405.082 945.244 405.187 946.307 404.652 947.103L377.395 987.677C376.695 988.72 375.218 988.867 374.327 987.982L356.469 970.262Z" fill="#434345"/>
<path d="M505.531 854.738C506.423 855.623 506.288 857.101 505.251 857.809L464.889 885.38C464.097 885.921 463.033 885.824 462.352 885.148L457.599 880.432C456.918 879.756 456.813 878.693 457.348 877.897L484.605 837.323C485.305 836.28 486.782 836.133 487.673 837.018L505.531 854.738Z" fill="#434345"/>
<path d="M98.1507 713.367L99.7632 706.594C100.195 704.783 101.819 703.509 103.681 703.521L176 704L190.197 705.469C190.399 705.49 190.599 705.526 190.795 705.577L201.392 708.341C201.795 708.447 202.179 708.614 202.53 708.837L206.565 711.405C207.177 711.794 207.671 712.343 207.995 712.991L208.578 714.155C208.855 714.711 209 715.323 209 715.944V716.056C209 716.677 208.855 717.289 208.578 717.845L207.834 719.332C207.613 719.773 207.313 720.17 206.947 720.503L202 725L190.857 733.721C190.62 733.906 190.362 734.065 190.09 734.192L174.5 741.5L155 748L140 753L119.5 757L106.075 758.534C103.841 758.79 101.836 757.154 101.637 754.914L98.0576 714.648C98.0194 714.219 98.0509 713.786 98.1507 713.367Z" fill="white" stroke="black" stroke-width="0.5"/>
<path d="M1809 633.392V617.098C1809 611.414 1811.84 606.106 1816.57 602.953L1819.52 600.989C1821.48 599.678 1823.7 598.791 1826.03 598.386L1832.55 597.251C1833.52 597.084 1834.49 597 1835.47 597H1844.5H1848.17C1853.98 597 1859.37 599.989 1862.44 604.908C1864.11 607.582 1865 610.672 1865 613.825V662.671C1865 663.876 1864.74 665.067 1864.23 666.161C1862.87 669.111 1859.92 671 1856.67 671H1844.51C1841.87 671 1839.27 670.386 1836.91 669.205L1833.99 667.744C1833 667.249 1832.06 666.659 1831.18 665.981L1820.39 657.623C1818.16 655.901 1816.4 653.655 1815.26 651.085L1810.47 640.297C1809.5 638.123 1809 635.771 1809 633.392Z" fill="white" stroke="black" stroke-width="0.5"/>
<path d="M1521 578.5C1521 559.261 1515.5 535.274 1496 517.5C1476.5 499.726 1447.92 483.576 1411.89 469.972C1375.86 456.368 1333.09 445.577 1286.02 438.215C1238.94 430.852 1183.95 432 1133 432L1133 578.5H1521Z" fill="white"/>
<path d="M848.53 435.68L630.32 575.277C628.632 576.357 629.405 578.972 631.409 578.961L1066.49 576.52C1067.59 576.514 1068.48 575.62 1068.48 574.52V435C1068.48 433.895 1067.58 433 1066.48 433H857.691C854.444 433 851.265 433.93 848.53 435.68Z" fill="white"/>
<rect x="465" y="671" width="36" height="20" rx="10" fill="white"/>
<path d="M1101 905V420H856.033C852.748 420 849.534 420.952 846.778 422.74L613.52 574.119C608.814 577.174 605.918 582.354 605.78 587.963L598.427 887.583C598.193 897.132 605.87 905 615.422 905H1101Z" stroke="black" stroke-width="0.5"/>
<path d="M1101 905V420H1262L1347.19 429.303C1348.39 429.434 1349.58 429.693 1350.72 430.075L1422.85 454.118C1423.62 454.372 1424.36 454.681 1425.08 455.04L1488.98 486.988C1490.32 487.66 1491.57 488.506 1492.69 489.506L1525.92 519.147C1527.3 520.374 1528.47 521.817 1529.38 523.419L1548.27 556.588C1549.73 559.152 1550.5 562.052 1550.5 565.002V595.011C1550.5 597.313 1550.03 599.591 1549.13 601.707L1529.17 648.27C1528.4 650.076 1527.31 651.735 1525.97 653.171L1423.5 763L1375.45 813.871C1373.52 815.925 1372.12 818.429 1371.39 821.158L1352.37 892.386C1350.38 899.825 1343.64 905 1335.94 905H1101Z" stroke="black" stroke-width="0.5"/>
<rect x="1529" y="764" width="337" height="0.5" fill="black"/>
<rect x="85" y="799" width="257" height="0.5" fill="black"/>
<rect x="1467" y="618" width="54" height="9" rx="4" fill="white"/>
<rect x="1467" y="618" width="54" height="9" rx="4" fill="white"/>
<rect x="1014" y="618" width="54" height="9" rx="4" fill="white"/>
<rect x="1014" y="618" width="54" height="9" rx="4" fill="white"/>
<rect x="588.477" y="960.048" width="35.3908" height="51.7251" fill="#FFCEB5"/>
<rect x="724.596" y="958.687" width="35.3908" height="51.7251" fill="#FFCEB5"/>
<path fill-rule="evenodd" clip-rule="evenodd" d="M510.513 1034.88C509.011 1035.86 507.943 1037.38 507.529 1039.13L507.189 1040.56C506.937 1041.62 506.937 1042.73 507.189 1043.79L507.895 1046.77C508.077 1047.53 508.479 1048.23 509.052 1048.78C509.806 1049.49 510.804 1049.89 511.842 1049.89H618.098C629.936 1049.89 638.551 1038.66 635.484 1027.22L628.316 1000.5C627.795 998.56 626.477 996.968 624.737 996.08C623.815 995.609 622.792 996.272 622.068 997.013C621.045 998.059 619.34 998.85 617.09 999.294C613.69 999.964 609.325 999.786 604.954 998.797C600.584 997.809 596.567 996.091 593.787 994.023C592.097 992.766 590.949 991.443 590.406 990.163C590.046 989.315 589.414 988.513 588.512 988.326L586.247 987.857C584.436 987.482 582.55 987.84 581.001 988.851L510.513 1034.88Z" fill="#B05841"/>
<rect x="559.892" y="1001.77" width="2.72237" height="15.2728" transform="rotate(-31.7393 559.892 1001.77)" fill="white"/>
<rect x="564.905" y="998.691" width="2.72237" height="14.7336" transform="rotate(-31.7393 564.905 998.691)" fill="white"/>
<rect x="570.066" y="995.51" width="2.72237" height="14.7336" transform="rotate(-31.7393 570.066 995.51)" fill="white"/>
<path fill-rule="evenodd" clip-rule="evenodd" d="M837.785 1035C839.287 1035.98 840.355 1037.5 840.769 1039.24L841.109 1040.67C841.361 1041.74 841.361 1042.84 841.109 1043.91L840.403 1046.88C840.221 1047.65 839.819 1048.35 839.245 1048.89C838.492 1049.6 837.494 1050 836.456 1050H730.199C718.362 1050 709.747 1038.77 712.814 1027.34L719.982 1000.61C720.503 998.674 721.821 997.081 723.561 996.193C724.483 995.722 725.506 996.386 726.23 997.126C727.253 998.172 728.958 998.964 731.208 999.407C734.608 1000.08 738.973 999.899 743.343 998.911C747.713 997.922 751.731 996.205 754.511 994.137C756.2 992.88 757.349 991.556 757.892 990.276C758.252 989.428 758.884 988.626 759.786 988.44L762.051 987.971C763.862 987.596 765.748 987.953 767.297 988.965L837.785 1035Z" fill="#B05841"/>
<rect width="2.72237" height="15.2728" transform="matrix(-0.850451 -0.526055 -0.526055 0.850451 787.032 1001.09)" fill="white"/>
<rect width="2.72237" height="14.7336" transform="matrix(-0.850451 -0.526055 -0.526055 0.850451 782.02 998.01)" fill="white"/>
<rect width="2.72237" height="14.7336" transform="matrix(-0.850451 -0.526055 -0.526055 0.850451 776.858 994.829)" fill="white"/>
<path d="M592.56 517.697L683.079 516.336L639.521 737.529L641.554 972.686C641.559 973.241 641.11 973.694 640.554 973.694H571.092C570.543 973.694 570.097 973.252 570.092 972.703L568.059 737.529L592.56 517.697Z" fill="#898377"/>
<path d="M674.912 516.819L746.374 516.819L774.892 972.598C774.929 973.173 774.471 973.66 773.894 973.66L704.436 973.66C703.908 973.66 703.471 973.25 703.438 972.723L674.912 516.819Z" fill="#898377"/>
<path d="M592.559 514.975H746.373L745.693 587.118H591.879L592.559 514.975Z" fill="#898377"/>
<rect x="642.618" y="580.312" width="46.2803" height="2.72006" transform="rotate(7.91922 642.618 580.312)" fill="#767066"/>
<path d="M647.688 218.202H685.121L689.204 274.011H642.924L647.688 218.202Z" fill="#FFCEB5"/>
<ellipse cx="666.064" cy="274.691" rx="88.4771" ry="17.0148" fill="#F7BF3E"/>
<path d="M698.733 265.163C698.733 272.681 683.802 284.9 665.384 284.9C646.966 284.9 632.035 272.681 632.035 265.163C632.035 257.645 646.966 257.677 665.384 257.677C683.802 257.677 698.733 257.645 698.733 265.163Z" fill="#F7BF3E"/>
<path d="M577.587 275.372H754.541L745.113 518.344H594.267L577.587 275.372Z" fill="#F7BF3E"/>
<path d="M600.353 270C601.396 270 602.264 270.801 602.347 271.84L606.247 320.574C606.271 320.874 606.227 321.176 606.118 321.456L561.028 437.897C560.81 438.46 560.858 439.091 561.159 439.615L581.668 475.34C581.743 475.472 581.834 475.595 581.938 475.707L608.536 504.3C608.819 504.604 608.884 505.051 608.701 505.423L592.616 538.058C592.311 538.677 591.485 538.808 591.003 538.313L553.197 499.476L512.821 455.082C511.649 453.794 511 452.114 511 450.372V439.322C511 438.966 511.027 438.61 511.081 438.258L512.922 426.281C513.002 425.764 513.139 425.257 513.331 424.771L570.777 279.499C571.298 278.181 572.16 277.025 573.274 276.15L580.557 270.427C580.91 270.151 581.345 270 581.793 270H600.353Z" fill="#F7BF3E"/>
<path d="M730.653 269C729.61 269 728.742 269.801 728.659 270.84L724.759 319.574C724.735 319.874 724.779 320.176 724.888 320.456L769.978 436.897C770.196 437.46 770.148 438.091 769.847 438.615L749.338 474.34C749.262 474.472 749.172 474.595 749.068 474.707L722.47 503.3C722.187 503.604 722.122 504.051 722.305 504.423L738.389 537.058C738.695 537.677 739.521 537.808 740.003 537.313L777.809 498.476L818.184 454.082C819.356 452.794 820.006 451.114 820.006 449.372V438.322C820.006 437.966 819.979 437.61 819.925 437.258L818.084 425.281C818.004 424.764 817.867 424.257 817.674 423.771L760.229 278.499C759.708 277.181 758.846 276.025 757.732 275.15L750.449 269.427C750.096 269.151 749.661 269 749.213 269H730.653Z" fill="#F7BF3E"/>
<path d="M595.963 549.651L592.342 534.376L605.752 505.412L627.32 531.166C628.35 532.396 629.571 533.453 630.936 534.296L631.544 534.671C632.628 535.341 633.62 536.15 634.495 537.077L636.372 539.064C636.746 539.461 637.02 539.941 637.17 540.465L637.297 540.905C637.415 541.318 637.399 541.759 637.249 542.163C637.053 542.69 636.646 543.112 636.126 543.326L635.831 543.447C635.499 543.584 635.144 543.654 634.785 543.654H633.997C633.453 543.654 632.91 543.588 632.381 543.457L630.453 542.98C629.404 542.72 628.387 542.348 627.418 541.87L625.649 540.996C624.786 541.261 624.452 542.304 625.001 543.02L625.696 543.928C625.837 544.112 625.947 544.318 626.02 544.538L627.27 548.29L595.963 549.651Z" fill="#FFCEB5"/>
<rect width="35.4082" height="1.89725" transform="matrix(0.998988 -0.0449701 0.0231534 0.999732 593.922 549.201)" fill="black"/>
<path d="M735.516 549.239L739.138 533.964L725.727 505L704.159 530.754C703.129 531.984 701.908 533.04 700.544 533.884L699.936 534.259C698.851 534.929 697.859 535.738 696.984 536.664L695.107 538.652C694.733 539.048 694.459 539.529 694.309 540.053L694.183 540.492C694.064 540.906 694.081 541.347 694.231 541.751C694.427 542.278 694.833 542.699 695.353 542.914L695.649 543.035C695.98 543.172 696.336 543.242 696.695 543.242H697.482C698.027 543.242 698.569 543.176 699.098 543.045L701.026 542.568C702.075 542.308 703.093 541.936 704.062 541.457L705.831 540.584C706.693 540.848 707.028 541.892 706.479 542.608L705.783 543.516C705.642 543.7 705.533 543.906 705.46 544.126L704.209 547.877L735.516 549.239Z" fill="#FFCEB5"/>
<rect width="35.4082" height="1.89725" transform="matrix(-0.998988 -0.0449701 -0.0231534 0.999732 737.558 548.789)" fill="black"/>
<path d="M620.375 192.43L617 125.738V115C617 112.791 618.791 111 621 111H714C716.209 111 718 112.791 718 115V125.738L713.272 193.807C713.24 194.277 713.125 194.736 712.932 195.166L705.231 212.354C704.939 213.005 704.478 213.567 703.896 213.98L684.019 228.087L677.462 232.353C676.813 232.775 676.055 233 675.281 233H657.969C657.109 233 656.272 232.723 655.582 232.21L650.037 228.087L630.174 213.99C629.583 213.57 629.117 212.999 628.826 212.335L620.707 193.835C620.512 193.391 620.4 192.915 620.375 192.43Z" fill="#FFCEB5"/>
<path d="M609.14 118.946L618.423 103.863L629.993 116.113L623.867 124.961L620.916 130.274C620.616 130.814 620.366 131.381 620.171 131.968L618.936 135.672C618.596 136.692 618.423 137.76 618.423 138.834V150.143V168.519H609.575L607.666 124.622C607.58 122.625 608.093 120.648 609.14 118.946Z" fill="#625247"/>
<path d="M723.869 113.067L712 100L704.177 110.668L710.302 119.516L713.254 124.829C713.554 125.37 713.804 125.937 713.999 126.523L715.234 130.227C715.574 131.247 715.747 132.315 715.747 133.39V144.698V163.074H724.595L726.458 120.225C726.572 117.591 725.642 115.018 723.869 113.067Z" fill="#625247"/>
<path fill-rule="evenodd" clip-rule="evenodd" d="M713.764 101.95C701.982 87.4736 682.39 78 660.213 78C637.575 78 617.631 87.8715 605.938 102.859C617.72 117.335 637.311 126.809 659.489 126.809C682.127 126.809 702.071 116.937 713.764 101.95Z" fill="#625247"/>
<path d="M610.789 159.838C612.886 157.315 615.819 155.807 618.947 155.64L619.58 168.586L620.213 181.533C617.084 181.671 614.018 180.457 611.685 178.15C610.519 176.998 610.048 175.434 609.849 173.721C609.749 172.865 609.718 171.973 609.7 171.079C609.696 170.842 609.692 170.605 609.689 170.368C609.679 169.712 609.669 169.06 609.638 168.426C609.606 167.763 609.551 167.13 609.498 166.522C609.482 166.34 609.466 166.159 609.451 165.981C609.387 165.211 609.339 164.482 609.363 163.782C609.409 162.383 609.74 161.101 610.789 159.838Z" fill="#FFCEB5" stroke="#999898" stroke-width="0.1"/>
<path d="M620.356 155.588C617.194 155.742 614.229 157.26 612.112 159.806C609.995 162.353 610.781 164.982 610.95 168.429C611.118 171.876 610.656 175.858 613.011 178.186C615.366 180.514 618.465 181.735 621.627 181.58L620.992 168.584L620.356 155.588Z" fill="#FFCEB5"/>
<path d="M723.183 159.838C721.086 157.315 718.153 155.807 715.025 155.64L714.391 168.586L713.758 181.533C716.888 181.671 719.954 180.457 722.287 178.15C723.453 176.998 723.924 175.434 724.123 173.721C724.223 172.865 724.254 171.973 724.271 171.079C724.276 170.842 724.279 170.605 724.283 170.368C724.293 169.712 724.302 169.06 724.333 168.426C724.366 167.763 724.421 167.13 724.474 166.522C724.49 166.34 724.506 166.159 724.521 165.981C724.585 165.211 724.633 164.482 724.609 163.782C724.562 162.383 724.232 161.101 723.183 159.838Z" fill="#FFCEB5" stroke="#999898" stroke-width="0.1"/>
<path d="M713.616 155.588C716.778 155.742 719.743 157.26 721.86 159.806C723.976 162.353 723.19 164.982 723.022 168.429C722.853 171.876 723.316 175.858 720.961 178.186C718.606 180.514 715.506 181.735 712.344 181.58L712.98 168.584L713.616 155.588Z" fill="#FFCEB5"/>
<path d="M619.71 176.679C619.596 174.402 621.404 172.49 623.684 172.478L709.979 172.021C712.196 172.01 714 173.804 714 176.021V194.746C714 195.566 713.899 196.383 713.7 197.179L713.005 199.948C707.984 219.964 689.993 234 669.357 234H665.402C645.047 234 627.227 220.336 621.944 200.679L620.958 197.01C620.774 196.326 620.663 195.624 620.628 194.917L619.71 176.679Z" fill="#625247"/>
<path d="M623.867 180.089L623.187 171.922H710.302L708.941 180.089L706.219 190.298L702.816 197.784L700.094 202.548L699.024 203.974C698.444 204.748 697.432 205.064 696.514 204.758C696.182 204.648 695.881 204.462 695.634 204.215L694.572 203.152C694.17 202.751 693.81 202.311 693.495 201.839L693.473 201.806C692.9 200.946 692.479 199.994 692.228 198.992L691.926 197.784L691.889 197.672C691.466 196.403 690.753 195.25 689.807 194.304C689.406 193.903 688.966 193.542 688.494 193.227L688.336 193.122C687.557 192.603 686.712 192.19 685.824 191.893L685.316 191.724C683.834 191.23 682.282 190.978 680.72 190.978H653.43C651.876 190.978 650.329 191.169 648.822 191.546L648.368 191.659L647.26 192.028C646.641 192.235 646.051 192.523 645.508 192.885C644.701 193.424 644.008 194.116 643.47 194.924L642.924 195.743L642.341 196.617C641.826 197.389 641.447 198.245 641.222 199.146L641.181 199.31C640.983 200.102 640.65 200.854 640.198 201.533C639.75 202.205 639.191 202.796 638.545 203.281L637.115 204.353C636.905 204.51 636.672 204.632 636.423 204.715C635.428 205.047 634.332 204.705 633.703 203.865L632.715 202.548L629.992 197.784L626.589 190.298L623.867 180.089Z" fill="#FFCEB5"/>
<rect x="649.729" y="196.423" width="36.752" height="21.779" rx="10.8895" fill="#FFCEB5"/>
<rect x="654" y="200" width="29" height="15" rx="7.5" fill="#FFCEB5"/>
<path d="M622.996 170.561H710.552L710.018 173.283H623.375L622.996 170.561Z" fill="#FFCEB5"/>
<path d="M667.974 179.346C668.557 179.977 668.109 181 667.25 181C666.948 181 666.664 180.862 666.477 180.626L665.161 178.965C664.409 178.016 664 176.841 664 175.631V173V170.82C664 169.635 664.362 168.478 665.037 167.504L666.462 165.449C666.656 165.168 666.977 165 667.319 165C668.195 165 668.681 166.016 668.13 166.698L666.739 168.422C666.437 168.796 666.273 169.262 666.273 169.742V173V176.804C666.273 177.252 666.441 177.683 666.744 178.012L667.974 179.346Z" fill="#8F776C"/>
<path d="M632.5 145.615L630.923 147.965C630.761 148.207 630.674 148.493 630.674 148.785C630.674 150.107 632.283 150.758 633.202 149.808L633.418 149.586C633.473 149.529 633.523 149.468 633.569 149.403L635.205 147.113C635.721 146.392 636.461 145.862 637.311 145.607L641 144.5L645.861 143.681C646.284 143.609 646.717 143.606 647.141 143.673L651.751 144.391C652.209 144.462 652.678 144.398 653.1 144.206L653.281 144.124C654.02 143.788 654.495 143.04 654.495 142.228C654.495 141.101 653.58 140.17 652.453 140.17H644.966L639.282 140.801C638.989 140.834 638.7 140.899 638.422 140.995L636.14 141.78C635.716 141.926 635.321 142.141 634.969 142.418L634.218 143.008C633.746 143.38 633.363 143.853 633.099 144.393L632.5 145.615Z" fill="#625247"/>
<path d="M701.994 145.445L703.571 147.795C703.733 148.038 703.82 148.323 703.82 148.615C703.82 149.937 702.211 150.588 701.292 149.638L701.077 149.416C701.022 149.359 700.971 149.298 700.925 149.233L699.289 146.943C698.774 146.222 698.033 145.692 697.184 145.437L693.494 144.33L688.634 143.511C688.21 143.439 687.777 143.437 687.353 143.503L682.744 144.221C682.285 144.292 681.816 144.228 681.394 144.036L681.213 143.954C680.474 143.619 680 142.871 680 142.059C680 140.931 680.914 140 682.041 140H689.528L695.213 140.632C695.505 140.664 695.794 140.729 696.072 140.825L698.354 141.61C698.778 141.756 699.174 141.972 699.525 142.248L700.276 142.838C700.748 143.21 701.131 143.683 701.396 144.223L701.994 145.445Z" fill="#625247"/>
<path fill-rule="evenodd" clip-rule="evenodd" d="M653.32 158.982C653.641 158.34 653.814 157.657 653.814 156.949C653.814 153.19 648.939 150.143 642.925 150.143C636.911 150.143 632.035 153.19 632.035 156.949C632.035 157.619 632.19 158.266 632.479 158.878C632.75 158.903 633.055 158.943 633.396 159C633.396 155.241 637.662 152.194 642.925 152.194C648.187 152.194 652.453 155.241 652.453 159C652.822 158.947 653.108 158.944 653.32 158.982Z" fill="#8F776C"/>
<path fill-rule="evenodd" clip-rule="evenodd" d="M699.482 159.204C699.879 158.498 700.094 157.739 700.094 156.949C700.094 153.19 695.219 150.143 689.205 150.143C683.191 150.143 678.315 153.19 678.315 156.949C678.315 157.707 678.514 158.436 678.879 159.117C679.064 159.139 679.261 159.168 679.472 159.203C679.472 155.444 683.738 152.397 689 152.397C694.263 152.397 698.529 155.444 698.529 159.203C698.951 159.143 699.265 159.147 699.482 159.204Z" fill="#8F776C"/>
<path fill-rule="evenodd" clip-rule="evenodd" d="M652.181 201.004C652.17 201.001 652.158 201 652.146 201C652.065 201 651.999 201.066 652 201.147C652.038 205.337 653.71 209.348 656.659 212.314C659.643 215.314 663.689 217 667.908 217C672.128 217 676.174 215.314 679.158 212.314C682.123 209.332 683.796 205.295 683.817 201.08C683.818 201.036 683.782 201 683.737 201C683.731 201 683.724 201.001 683.718 201.002C683.164 201.138 682.555 201.268 681.895 201.389C678.196 202.071 673.178 202.455 667.946 202.455C662.714 202.455 657.696 202.071 653.997 201.389C653.339 201.268 652.733 201.14 652.181 201.004Z" fill="#404040"/>
<path fill-rule="evenodd" clip-rule="evenodd" d="M677.157 214.019C674.407 213.13 670.907 212.636 667.272 212.636C664.027 212.636 660.887 213.03 658.294 213.748C661.044 215.846 664.417 217 667.909 217C671.247 217 674.476 215.945 677.157 214.019Z" fill="white"/>
<path fill-rule="evenodd" clip-rule="evenodd" d="M652.164 201C652.073 201 651.999 201.074 652.002 201.164C652.052 202.64 652.815 203.952 656.665 205.114C659.652 206.205 663.704 206.818 667.928 206.818C672.06 206.818 676.027 206.232 678.994 205.185C679.126 205.139 679.263 205.105 679.402 205.082C682.572 204.56 683.809 202.59 683.856 201.089C683.857 201.04 683.817 201 683.768 201C683.21 201.05 682.597 201.097 681.932 201.142C678.228 201.39 673.204 201.529 667.966 201.529C662.727 201.529 657.703 201.39 653.999 201.142C653.334 201.097 652.721 201.05 652.164 201Z" fill="white"/>
<path d="M829.5 74C829.5 62.9543 838.454 54 849.5 54H1691.5C1702.55 54 1711.5 62.9543 1711.5 74V239C1711.5 250.046 1702.55 259 1691.5 259H849H811.5L825.25 241.43C828.004 237.912 829.5 233.572 829.5 229.104V74Z" fill="#4698D0"/>
<path d="M890.99 105.487C890.99 107.743 890.591 109.84 889.794 111.776C889.019 113.69 887.925 115.354 886.513 116.767C884.758 118.521 882.685 119.843 880.292 120.731C877.899 121.597 874.88 122.03 871.234 122.03H864.467V141H857.699V90.1064H871.508C874.561 90.1064 877.147 90.3685 879.267 90.8926C881.386 91.3939 883.266 92.1914 884.906 93.2852C886.843 94.584 888.336 96.2018 889.384 98.1387C890.455 100.076 890.99 102.525 890.99 105.487ZM883.949 105.658C883.949 103.904 883.642 102.377 883.026 101.078C882.411 99.7793 881.477 98.7197 880.224 97.8994C879.13 97.193 877.877 96.6917 876.464 96.3955C875.074 96.0765 873.308 95.917 871.166 95.917H864.467V116.254H870.175C872.909 116.254 875.131 116.015 876.84 115.536C878.549 115.035 879.939 114.249 881.01 113.178C882.081 112.084 882.833 110.933 883.266 109.726C883.721 108.518 883.949 107.162 883.949 105.658ZM906.337 96.4297H899.091V89.7646H906.337V96.4297ZM905.927 141H899.501V102.821H905.927V141ZM949.608 141H943.183V137.001C941.337 138.596 939.411 139.838 937.406 140.727C935.401 141.615 933.225 142.06 930.878 142.06C926.321 142.06 922.698 140.305 920.009 136.796C917.343 133.287 916.01 128.422 916.01 122.201C916.01 118.965 916.465 116.083 917.377 113.554C918.311 111.024 919.564 108.871 921.137 107.094C922.686 105.362 924.486 104.04 926.537 103.129C928.611 102.217 930.753 101.762 932.963 101.762C934.968 101.762 936.745 101.978 938.295 102.411C939.844 102.821 941.474 103.471 943.183 104.359V87.8164H949.608V141ZM943.183 131.601V109.691C941.451 108.917 939.901 108.381 938.534 108.085C937.167 107.789 935.674 107.641 934.057 107.641C930.456 107.641 927.654 108.894 925.648 111.4C923.643 113.907 922.641 117.462 922.641 122.064C922.641 126.599 923.415 130.051 924.965 132.421C926.514 134.768 928.998 135.941 932.416 135.941C934.239 135.941 936.085 135.543 937.953 134.745C939.822 133.925 941.565 132.877 943.183 131.601ZM995.272 102.821L979.823 141H973.363L958.017 102.821H964.989L976.815 133.207L988.539 102.821H995.272ZM1035.02 122.577H1006.89C1006.89 124.924 1007.25 126.975 1007.95 128.729C1008.66 130.461 1009.63 131.885 1010.86 133.002C1012.04 134.096 1013.44 134.916 1015.06 135.463C1016.7 136.01 1018.5 136.283 1020.46 136.283C1023.06 136.283 1025.67 135.771 1028.29 134.745C1030.93 133.697 1032.81 132.672 1033.93 131.669H1034.27V138.676C1032.11 139.587 1029.9 140.351 1027.64 140.966C1025.38 141.581 1023.01 141.889 1020.53 141.889C1014.2 141.889 1009.25 140.18 1005.7 136.762C1002.14 133.321 1000.37 128.445 1000.37 122.133C1000.37 115.889 1002.06 110.933 1005.46 107.265C1008.88 103.596 1013.36 101.762 1018.92 101.762C1024.07 101.762 1028.04 103.266 1030.82 106.273C1033.62 109.281 1035.02 113.554 1035.02 119.091V122.577ZM1028.77 117.655C1028.75 114.283 1027.89 111.674 1026.21 109.828C1024.54 107.982 1022 107.06 1018.58 107.06C1015.14 107.06 1012.4 108.074 1010.35 110.102C1008.32 112.13 1007.17 114.647 1006.89 117.655H1028.77ZM1072.45 141H1041.62V136.249L1063.87 108.188H1042.1V102.821H1071.87V107.401L1049.52 135.565H1072.45V141ZM1113.19 141H1106.77V136.762C1104.6 138.471 1102.53 139.781 1100.55 140.692C1098.56 141.604 1096.38 142.06 1093.98 142.06C1089.97 142.06 1086.85 140.84 1084.62 138.402C1082.39 135.941 1081.27 132.341 1081.27 127.602V102.821H1087.69V124.56C1087.69 126.496 1087.79 128.16 1087.97 129.55C1088.15 130.917 1088.54 132.09 1089.13 133.07C1089.75 134.073 1090.54 134.802 1091.52 135.258C1092.5 135.714 1093.93 135.941 1095.79 135.941C1097.46 135.941 1099.27 135.508 1101.23 134.643C1103.21 133.777 1105.06 132.672 1106.77 131.327V102.821H1113.19V141ZM1183.4 121.449H1149.35V115.98H1183.4V121.449ZM1254.22 150.16H1248.24V140.897H1219.53V150.16H1213.54V135.531H1217.68C1220.35 131.133 1222.33 126.063 1223.63 120.321C1224.95 114.556 1225.61 108.723 1225.61 102.821H1249.6V135.531H1254.22V150.16ZM1243.18 135.531V108.222H1231.66C1231.36 113.941 1230.49 119.159 1229.03 123.876C1227.57 128.593 1225.89 132.478 1224 135.531H1243.18ZM1295.64 121.928C1295.64 128.148 1294.05 133.059 1290.86 136.659C1287.67 140.259 1283.4 142.06 1278.04 142.06C1272.64 142.06 1268.35 140.259 1265.16 136.659C1261.99 133.059 1260.4 128.148 1260.4 121.928C1260.4 115.707 1261.99 110.797 1265.16 107.196C1268.35 103.573 1272.64 101.762 1278.04 101.762C1283.4 101.762 1287.67 103.573 1290.86 107.196C1294.05 110.797 1295.64 115.707 1295.64 121.928ZM1289.01 121.928C1289.01 116.983 1288.04 113.314 1286.11 110.922C1284.17 108.507 1281.48 107.299 1278.04 107.299C1274.55 107.299 1271.84 108.507 1269.91 110.922C1267.99 113.314 1267.04 116.983 1267.04 121.928C1267.04 126.713 1268 130.347 1269.94 132.831C1271.88 135.292 1274.58 136.522 1278.04 136.522C1281.46 136.522 1284.14 135.303 1286.07 132.865C1288.03 130.404 1289.01 126.758 1289.01 121.928ZM1337.58 141H1331.16V108.358H1312.05V141H1305.62V102.821H1337.58V141ZM1382.8 121.928C1382.8 128.148 1381.21 133.059 1378.02 136.659C1374.83 140.259 1370.55 142.06 1365.2 142.06C1359.8 142.06 1355.5 140.259 1352.31 136.659C1349.15 133.059 1347.56 128.148 1347.56 121.928C1347.56 115.707 1349.15 110.797 1352.31 107.196C1355.5 103.573 1359.8 101.762 1365.2 101.762C1370.55 101.762 1374.83 103.573 1378.02 107.196C1381.21 110.797 1382.8 115.707 1382.8 121.928ZM1376.17 121.928C1376.17 116.983 1375.2 113.314 1373.27 110.922C1371.33 108.507 1368.64 107.299 1365.2 107.299C1361.71 107.299 1359 108.507 1357.06 110.922C1355.15 113.314 1354.19 116.983 1354.19 121.928C1354.19 126.713 1355.16 130.347 1357.1 132.831C1359.04 135.292 1361.74 136.522 1365.2 136.522C1368.62 136.522 1371.29 135.303 1373.23 132.865C1375.19 130.404 1376.17 126.758 1376.17 121.928ZM1428.88 141H1422.52V110.854L1413.02 130.473H1408.23L1398.8 110.854V141H1392.78V102.821H1400.54L1410.93 124.184L1420.98 102.821H1428.88V141ZM1474.06 121.928C1474.06 128.148 1472.47 133.059 1469.28 136.659C1466.09 140.259 1461.81 142.06 1456.46 142.06C1451.06 142.06 1446.76 140.259 1443.57 136.659C1440.41 133.059 1438.82 128.148 1438.82 121.928C1438.82 115.707 1440.41 110.797 1443.57 107.196C1446.76 103.573 1451.06 101.762 1456.46 101.762C1461.81 101.762 1466.09 103.573 1469.28 107.196C1472.47 110.797 1474.06 115.707 1474.06 121.928ZM1467.43 121.928C1467.43 116.983 1466.46 113.314 1464.53 110.922C1462.59 108.507 1459.9 107.299 1456.46 107.299C1452.97 107.299 1450.26 108.507 1448.32 110.922C1446.41 113.314 1445.45 116.983 1445.45 121.928C1445.45 126.713 1446.42 130.347 1448.36 132.831C1450.3 135.292 1453 136.522 1456.46 136.522C1459.88 136.522 1462.55 135.303 1464.49 132.865C1466.45 130.404 1467.43 126.758 1467.43 121.928ZM1531.93 141H1524.17L1511.93 123.568H1508.82V141H1502.46V123.568H1499.7L1486.91 141H1479.5L1494.23 121.005C1493.11 120.412 1492.12 119.569 1491.25 118.476C1490.41 117.382 1489.64 115.73 1488.93 113.52C1488.31 111.583 1487.59 110.238 1486.74 109.486C1485.9 108.734 1484.52 108.358 1482.61 108.358H1480.79V102.821H1483.15C1485.98 102.821 1488.25 103.391 1489.96 104.53C1491.66 105.67 1493.03 107.663 1494.06 110.512C1494.26 111.104 1494.51 111.788 1494.81 112.562C1495.13 113.314 1495.4 113.952 1495.63 114.477C1496.38 116.208 1497.34 117.439 1498.5 118.168C1499.68 118.874 1501.01 119.273 1502.46 119.364V102.821H1508.82V119.364C1510.28 119.273 1511.6 118.863 1512.79 118.134C1513.99 117.405 1514.97 116.186 1515.73 114.477C1515.98 113.907 1516.25 113.246 1516.55 112.494C1516.87 111.742 1517.12 111.081 1517.3 110.512C1518.3 107.709 1519.65 105.727 1521.33 104.564C1523.02 103.402 1525.29 102.821 1528.13 102.821H1530.49V108.358H1528.68C1526.74 108.358 1525.34 108.757 1524.48 109.555C1523.63 110.352 1522.93 111.674 1522.36 113.52C1521.72 115.548 1520.96 117.131 1520.07 118.271C1519.2 119.387 1518.26 120.23 1517.23 120.8L1531.93 141ZM1571.85 122.577H1543.72C1543.72 124.924 1544.07 126.975 1544.78 128.729C1545.49 130.461 1546.45 131.885 1547.68 133.002C1548.87 134.096 1550.27 134.916 1551.89 135.463C1553.53 136.01 1555.33 136.283 1557.29 136.283C1559.89 136.283 1562.5 135.771 1565.12 134.745C1567.76 133.697 1569.64 132.672 1570.76 131.669H1571.1V138.676C1568.93 139.587 1566.72 140.351 1564.47 140.966C1562.21 141.581 1559.84 141.889 1557.36 141.889C1551.02 141.889 1546.08 140.18 1542.52 136.762C1538.97 133.321 1537.19 128.445 1537.19 122.133C1537.19 115.889 1538.89 110.933 1542.28 107.265C1545.7 103.596 1550.19 101.762 1555.75 101.762C1560.9 101.762 1564.87 103.266 1567.65 106.273C1570.45 109.281 1571.85 113.554 1571.85 119.091V122.577ZM1565.59 117.655C1565.57 114.283 1564.72 111.674 1563.03 109.828C1561.37 107.982 1558.83 107.06 1555.41 107.06C1551.97 107.06 1549.22 108.074 1547.17 110.102C1545.14 112.13 1543.99 114.647 1543.72 117.655H1565.59ZM1617.68 141H1611.33V110.854L1601.83 130.473H1597.04L1587.61 110.854V141H1581.59V102.821H1589.35L1599.74 124.184L1609.79 102.821H1617.68V141ZM1662.87 121.928C1662.87 128.148 1661.28 133.059 1658.08 136.659C1654.89 140.259 1650.62 142.06 1645.27 142.06C1639.87 142.06 1635.57 140.259 1632.38 136.659C1629.21 133.059 1627.63 128.148 1627.63 121.928C1627.63 115.707 1629.21 110.797 1632.38 107.196C1635.57 103.573 1639.87 101.762 1645.27 101.762C1650.62 101.762 1654.89 103.573 1658.08 107.196C1661.28 110.797 1662.87 115.707 1662.87 121.928ZM1656.24 121.928C1656.24 116.983 1655.27 113.314 1653.33 110.922C1651.4 108.507 1648.71 107.299 1645.27 107.299C1641.78 107.299 1639.07 108.507 1637.13 110.922C1635.22 113.314 1634.26 116.983 1634.26 121.928C1634.26 126.713 1635.23 130.347 1637.17 132.831C1639.1 135.292 1641.8 136.522 1645.27 136.522C1648.69 136.522 1651.36 135.303 1653.3 132.865C1655.26 130.404 1656.24 126.758 1656.24 121.928ZM1176.12 226H1169.69V193.222H1155.44C1155.37 195.113 1155.3 196.936 1155.23 198.69C1155.17 200.445 1155.1 202.029 1155.03 203.441C1154.87 207.247 1154.61 210.289 1154.24 212.567C1153.88 214.823 1153.4 216.703 1152.81 218.207C1152.26 219.62 1151.64 220.771 1150.96 221.659C1150.3 222.525 1149.58 223.311 1148.81 224.018C1148.03 224.701 1147.17 225.214 1146.21 225.556C1145.28 225.897 1144.25 226.068 1143.13 226.068C1142.75 226.068 1142.18 226.057 1141.42 226.034C1140.7 226.011 1140.22 226 1139.99 226V220.395H1140.33C1140.51 220.395 1140.78 220.406 1141.12 220.429C1141.46 220.451 1141.74 220.463 1141.97 220.463C1142.52 220.463 1143.08 220.383 1143.65 220.224C1144.24 220.064 1144.74 219.768 1145.15 219.335C1146.31 218.196 1147.25 216.27 1147.95 213.559C1148.66 210.847 1149.13 206.928 1149.35 201.801C1149.45 199.932 1149.53 197.722 1149.59 195.17C1149.68 192.595 1149.76 190.146 1149.83 187.821H1176.12V226ZM1230.94 206.928C1230.94 202.029 1230 198.371 1228.1 195.956C1226.21 193.518 1223.59 192.299 1220.24 192.299C1216.76 192.299 1214.09 193.575 1212.25 196.127C1210.42 198.656 1209.51 202.257 1209.51 206.928C1209.51 211.758 1210.47 215.404 1212.38 217.865C1214.3 220.303 1216.92 221.522 1220.24 221.522C1223.57 221.522 1226.18 220.315 1228.07 217.899C1229.98 215.461 1230.94 211.804 1230.94 206.928ZM1203.15 208.705H1195.22V226H1188.8V187.821H1195.22V203.305H1203.32C1203.89 198.041 1205.73 193.974 1208.83 191.103C1211.95 188.209 1215.78 186.762 1220.31 186.762C1225.58 186.762 1229.77 188.562 1232.89 192.162C1236.01 195.762 1237.57 200.684 1237.57 206.928C1237.57 213.103 1236.03 218.002 1232.96 221.625C1229.88 225.248 1225.67 227.06 1220.31 227.06C1215.25 227.06 1211.2 225.419 1208.14 222.138C1205.11 218.856 1203.45 214.379 1203.15 208.705ZM1282.18 235.16H1276.2V225.897H1247.48V235.16H1241.5V220.531H1245.64C1248.3 216.133 1250.29 211.063 1251.59 205.321C1252.91 199.556 1253.57 193.723 1253.57 187.821H1277.56V220.531H1282.18V235.16ZM1271.14 220.531V193.222H1259.62C1259.32 198.941 1258.44 204.159 1256.99 208.876C1255.53 213.593 1253.85 217.478 1251.96 220.531H1271.14ZM1320.39 226H1313.96V210.858H1306.41L1294.58 226H1287.03L1299.88 210.243C1296.58 209.332 1294.16 207.942 1292.64 206.073C1291.11 204.182 1290.35 201.71 1290.35 198.656C1290.35 196.628 1290.8 194.908 1291.71 193.495C1292.62 192.082 1293.78 190.932 1295.17 190.043C1296.53 189.177 1298.1 188.596 1299.88 188.3C1301.66 187.981 1303.6 187.821 1305.69 187.821H1320.39V226ZM1313.96 205.8V192.948H1305.86C1304.11 192.948 1302.84 193.005 1302.07 193.119C1301.29 193.233 1300.45 193.541 1299.54 194.042C1298.65 194.543 1297.99 195.227 1297.56 196.093C1297.15 196.936 1296.94 197.859 1296.94 198.861C1296.94 200.115 1297.07 201.129 1297.32 201.903C1297.59 202.678 1298.14 203.407 1298.96 204.091C1299.8 204.752 1300.83 205.207 1302.04 205.458C1303.24 205.686 1304.59 205.8 1306.07 205.8H1313.96ZM1369.13 226H1362.77V195.854L1353.27 215.473H1348.49L1339.05 195.854V226H1333.04V187.821H1340.79L1351.19 209.184L1361.23 187.821H1369.13V226ZM1393.06 175.106L1392.17 211.986H1386.36L1385.4 175.106H1393.06ZM1392.71 226H1385.74V218.788H1392.71V226Z" fill="white"/>
</g>
<defs>
<clipPath id="clip0_40_2">
<rect width="1920" height="1053" fill="white"/>
</clipPath>
</defs>
</svg>
