<svg width="100" height="100" viewBox="0 0 100 100" fill="none" xmlns="http://www.w3.org/2000/svg">
<circle cx="50" cy="50" r="50" fill="#247DC9"/>
<path d="M70.8167 30.0472C73.0391 29.1694 75.3457 31.1155 74.8546 33.454L66.4789 73.3386C66.0251 75.4994 63.4715 76.4463 61.7187 75.1037L42.397 60.3041C42.1333 60.1021 41.8456 59.9338 41.5403 59.803L35 57L22.0504 53.1501C20.229 52.6086 20.1183 50.0709 21.8857 49.3729L70.8167 30.0472Z" fill="#FFFBFB"/>
<path d="M35 57L63.9529 38.0319C64.369 37.7593 64.9258 37.8624 65.2167 38.2659V38.2659C65.4956 38.6528 65.4365 39.1881 65.0798 39.5048L42 60L35 57Z" fill="#C8DAEA"/>
<path d="M35 57L42 60L41 73V73C39.8246 73 38.8 72.2 38.5149 71.0597L35 57Z" fill="#C8DAEA"/>
<path d="M42 60L50 66L41 73L42 60Z" fill="#A9C9DD"/>
</svg>
