<svg width="100" height="100" viewBox="0 0 100 100" fill="none" xmlns="http://www.w3.org/2000/svg">
<circle cx="50.5" cy="27.5" r="23.5" fill="#C4C4C4"/>
<path fill-rule="evenodd" clip-rule="evenodd" d="M32.4021 50.4189C32.2725 50.4712 32.1431 50.5241 32.0139 50.5777C26.3116 52.9396 21.1303 56.4016 16.766 60.766C12.4016 65.1303 8.93963 70.3116 6.57766 76.0139C4.21569 81.7162 3 87.8279 3 94L50 94H97C97 87.8279 95.7843 81.7162 93.4223 76.0139C91.0604 70.3116 87.5984 65.1303 83.234 60.766C78.8697 56.4016 73.6884 52.9396 67.9861 50.5777C67.6251 50.4281 67.2625 50.2832 66.8982 50.1429C62.3421 54.3967 56.225 57 49.5 57C42.9217 57 36.9251 54.509 32.4021 50.4189Z" fill="#C4C4C4"/>
</svg>
