<svg width="1920" height="1080" viewBox="0 0 1920 1080" fill="none" xmlns="http://www.w3.org/2000/svg">
<g clip-path="url(#clip0_34_2)">
<path d="M1107 404H1249H1324L1386.98 409.976C1390.65 410.325 1394.29 411 1397.84 411.995L1448.07 426.061C1452.68 427.349 1457.11 429.166 1461.3 431.474L1537.5 473.5L1606 520L1614.8 525.925C1625.03 532.818 1637.09 536.5 1649.43 536.5H1674L1781 546.5L1817.6 554.414C1817.86 554.47 1818.1 554.596 1818.3 554.777L1824.38 560.386C1824.46 560.462 1824.53 560.546 1824.6 560.638L1829.89 568.335C1829.96 568.444 1830.02 568.564 1830.07 568.689L1833.42 578.259C1833.47 578.419 1833.5 578.586 1833.5 578.755V595L1838.48 676.12C1838.49 676.369 1838.57 676.611 1838.7 676.823L1840.78 680.152C1840.92 680.38 1841 680.642 1841.01 680.911L1842.97 763.036C1842.98 763.85 1843.65 764.5 1844.46 764.5H1846.34C1846.76 764.5 1847.16 764.676 1847.45 764.986L1852.31 770.294C1852.44 770.43 1852.53 770.588 1852.6 770.761L1857 782L1858.46 787.821C1858.48 787.94 1858.5 788.062 1858.5 788.185V825.5L1857 843L1852.52 864.388C1852.51 864.463 1852.49 864.536 1852.46 864.607L1848.07 876.32C1848.02 876.44 1847.96 876.553 1847.89 876.657L1838.62 889.832C1838.54 889.944 1838.45 890.044 1838.34 890.13L1833.28 894.272C1833.1 894.422 1832.88 894.526 1832.65 894.577L1821.5 897L1798.5 903.5L1765.5 910L1716.11 919.478C1716.04 919.493 1715.96 919.513 1715.89 919.538L1671.24 935.413C1671.08 935.471 1670.91 935.5 1670.74 935.5H1649.5L1631 935L143.165 939C143.055 939 142.946 938.988 142.839 938.965L118.153 933.534C118.051 933.511 117.952 933.478 117.858 933.436L102.624 926.556C102.542 926.519 102.462 926.474 102.388 926.422L89.6872 917.63C89.5631 917.544 89.4527 917.44 89.3597 917.321L80.6264 906.161C80.5425 906.054 80.4736 905.936 80.4216 905.811L74.5 891.5L65.5 858.5L124.562 860.941C125.366 860.974 126 861.635 126 862.439V871.646C126 873.229 123.866 873.732 123.158 872.317L122.689 871.377C122.565 871.131 122.376 870.923 122.142 870.776L114.658 866.099C114.553 866.033 114.441 865.981 114.323 865.943L99.1761 861.057C99.0591 861.019 98.938 860.996 98.8154 860.988L84 860L65.5 858.5L62.5 823.5V803L63.9817 784.726C63.9938 784.576 64.0283 784.429 64.0841 784.29L69 772L72.3623 765.275C72.4532 765.094 72.58 764.932 72.735 764.801L78.4066 760.002C78.7787 759.687 78.9746 759.211 78.9319 758.726L75.0189 714.214C75.0063 714.072 75.0142 713.929 75.0422 713.789L77 704L80.4062 693.782C80.4681 693.596 80.5659 693.424 80.694 693.275L89.8089 682.721C89.9351 682.575 90.0884 682.455 90.2603 682.367L110.5 672L130.5 664L176.5 646.5L243 626.5L364.5 597.5L466.5 584.5L536.105 581.517C536.364 581.506 536.615 581.428 536.835 581.291L669.5 498.5L807.281 410.14C807.426 410.048 807.586 409.98 807.753 409.942L833.334 404.038C833.444 404.013 833.557 404 833.671 404H1107Z" fill="#247DC9"/>
<mask id="path-2-inside-1_34_2" fill="white">
<path d="M1658 935.5C1658 913.11 1654.06 890.938 1646.39 870.252C1638.73 849.566 1627.49 830.771 1613.33 814.938C1599.17 799.106 1582.36 786.547 1563.86 777.979C1545.36 769.41 1525.53 765 1505.5 765C1485.47 765 1465.64 769.41 1447.14 777.979C1428.64 786.547 1411.83 799.106 1397.67 814.938C1383.51 830.771 1372.27 849.566 1364.61 870.252C1356.94 890.939 1353 913.11 1353 935.5L1505.5 935.5H1658Z"/>
</mask>
<path d="M1658 935.5C1658 913.11 1654.06 890.938 1646.39 870.252C1638.73 849.566 1627.49 830.771 1613.33 814.938C1599.17 799.106 1582.36 786.547 1563.86 777.979C1545.36 769.41 1525.53 765 1505.5 765C1485.47 765 1465.64 769.41 1447.14 777.979C1428.64 786.547 1411.83 799.106 1397.67 814.938C1383.51 830.771 1372.27 849.566 1364.61 870.252C1356.94 890.939 1353 913.11 1353 935.5L1505.5 935.5H1658Z" fill="black" stroke="black" stroke-width="2" mask="url(#path-2-inside-1_34_2)"/>
<circle cx="1505.5" cy="909.5" r="140" fill="black" stroke="white"/>
<circle cx="1505.5" cy="909.5" r="108" fill="#C1BFC0" stroke="black"/>
<path d="M1518.58 816C1519.83 816 1520.78 817.144 1520.54 818.378L1511.31 866.378C1511.13 867.319 1510.31 868 1509.35 868H1502.65C1501.69 868 1500.87 867.319 1500.69 866.378L1491.46 818.378C1491.22 817.144 1492.17 816 1493.42 816H1518.58Z" fill="#434345"/>
<path d="M1493.42 1003C1492.17 1003 1491.22 1001.86 1491.46 1000.62L1500.69 952.622C1500.87 951.681 1501.69 951 1502.65 951H1509.35C1510.31 951 1511.13 951.681 1511.31 952.622L1520.54 1000.62C1520.78 1001.86 1519.83 1003 1518.58 1003H1493.42Z" fill="#434345"/>
<path d="M1412.5 897.279C1412.5 896.023 1413.65 895.078 1414.88 895.315L1462.88 904.546C1463.82 904.727 1464.5 905.551 1464.5 906.51V913.206C1464.5 914.165 1463.82 914.989 1462.88 915.17L1414.88 924.401C1413.65 924.638 1412.5 923.693 1412.5 922.437V897.279Z" fill="#434345"/>
<path d="M1599.5 921.721C1599.5 922.977 1598.35 923.922 1597.12 923.685L1549.12 914.454C1548.18 914.273 1547.5 913.449 1547.5 912.49V905.794C1547.5 904.835 1548.18 904.011 1549.12 903.83L1597.12 894.599C1598.35 894.362 1599.5 895.307 1599.5 896.563V921.721Z" fill="#434345"/>
<path d="M1448.49 834.713C1449.37 833.822 1450.85 833.957 1451.56 834.994L1479.13 875.356C1479.67 876.147 1479.58 877.212 1478.9 877.892L1474.18 882.646C1473.51 883.326 1472.44 883.432 1471.65 882.897L1431.07 855.64C1430.03 854.94 1429.89 853.463 1430.77 852.571L1448.49 834.713Z" fill="#434345"/>
<path d="M1563.51 984.287C1562.63 985.178 1561.15 985.043 1560.44 984.006L1532.87 943.644C1532.33 942.853 1532.42 941.788 1533.1 941.108L1537.82 936.354C1538.49 935.674 1539.56 935.568 1540.35 936.103L1580.93 963.36C1581.97 964.06 1582.11 965.537 1581.23 966.429L1563.51 984.287Z" fill="#434345"/>
<path d="M1431.47 967.262C1430.58 966.377 1430.71 964.899 1431.75 964.191L1472.11 936.62C1472.9 936.079 1473.97 936.177 1474.65 936.852L1479.4 941.568C1480.08 942.244 1480.19 943.307 1479.65 944.103L1452.4 984.678C1451.69 985.72 1450.22 985.867 1449.33 984.982L1431.47 967.262Z" fill="#434345"/>
<path d="M1580.53 851.738C1581.42 852.623 1581.29 854.101 1580.25 854.809L1539.89 882.38C1539.1 882.921 1538.03 882.823 1537.35 882.148L1532.6 877.432C1531.92 876.756 1531.81 875.693 1532.35 874.897L1559.6 834.322C1560.31 833.28 1561.78 833.133 1562.67 834.018L1580.53 851.738Z" fill="#434345"/>
<mask id="path-13-inside-2_34_2" fill="white">
<path d="M560 938.5C560 916.11 556.055 893.938 548.392 873.252C540.728 852.566 529.495 833.771 515.334 817.938C501.173 802.106 484.361 789.547 465.859 780.979C447.357 772.41 427.527 768 407.5 768C387.473 768 367.643 772.41 349.141 780.979C330.639 789.547 313.827 802.106 299.666 817.938C285.505 833.771 274.272 852.566 266.608 873.252C258.945 893.939 255 916.11 255 938.5L407.5 938.5H560Z"/>
</mask>
<path d="M560 938.5C560 916.11 556.055 893.938 548.392 873.252C540.728 852.566 529.495 833.771 515.334 817.938C501.173 802.106 484.361 789.547 465.859 780.979C447.357 772.41 427.527 768 407.5 768C387.473 768 367.643 772.41 349.141 780.979C330.639 789.547 313.827 802.106 299.666 817.938C285.505 833.771 274.272 852.566 266.608 873.252C258.945 893.939 255 916.11 255 938.5L407.5 938.5H560Z" fill="black" stroke="black" stroke-width="2" mask="url(#path-13-inside-2_34_2)"/>
<circle cx="407.5" cy="912.5" r="140" fill="black" stroke="white"/>
<circle cx="407.5" cy="912.5" r="108" fill="#C1BFC0" stroke="black"/>
<path d="M420.579 819C421.835 819 422.78 820.144 422.543 821.378L413.312 869.378C413.131 870.319 412.307 871 411.348 871H404.652C403.693 871 402.869 870.319 402.688 869.378L393.457 821.378C393.22 820.144 394.165 819 395.421 819H420.579Z" fill="#434345"/>
<path d="M395.421 1006C394.165 1006 393.22 1004.86 393.457 1003.62L402.688 955.622C402.869 954.681 403.693 954 404.652 954H411.348C412.307 954 413.131 954.681 413.312 955.622L422.543 1003.62C422.78 1004.86 421.835 1006 420.579 1006H395.421Z" fill="#434345"/>
<path d="M314.501 900.279C314.501 899.023 315.645 898.078 316.879 898.315L364.879 907.546C365.82 907.727 366.501 908.551 366.501 909.51V916.206C366.501 917.165 365.82 917.989 364.879 918.17L316.879 927.401C315.645 927.638 314.501 926.693 314.501 925.437V900.279Z" fill="#434345"/>
<path d="M501.499 924.721C501.499 925.977 500.355 926.922 499.121 926.685L451.121 917.454C450.18 917.273 449.499 916.449 449.499 915.49V908.794C449.499 907.835 450.18 907.011 451.121 906.83L499.121 897.599C500.355 897.362 501.499 898.307 501.499 899.563V924.721Z" fill="#434345"/>
<path d="M350.49 837.713C351.374 836.822 352.852 836.957 353.561 837.994L381.131 878.356C381.672 879.147 381.575 880.212 380.9 880.892L376.183 885.646C375.508 886.326 374.444 886.432 373.648 885.897L333.074 858.64C332.031 857.94 331.885 856.463 332.77 855.571L350.49 837.713Z" fill="#434345"/>
<path d="M465.51 987.287C464.626 988.178 463.148 988.043 462.439 987.006L434.869 946.644C434.328 945.853 434.425 944.788 435.1 944.108L439.817 939.354C440.492 938.674 441.556 938.568 442.352 939.103L482.926 966.36C483.969 967.06 484.115 968.537 483.23 969.429L465.51 987.287Z" fill="#434345"/>
<path d="M333.468 970.262C332.577 969.377 332.712 967.899 333.749 967.191L374.111 939.62C374.902 939.079 375.967 939.177 376.647 939.852L381.401 944.568C382.081 945.244 382.187 946.307 381.652 947.103L354.395 987.678C353.695 988.72 352.218 988.867 351.326 987.982L333.468 970.262Z" fill="#434345"/>
<path d="M482.532 854.738C483.423 855.623 483.288 857.101 482.251 857.809L441.889 885.38C441.098 885.921 440.033 885.823 439.353 885.148L434.599 880.432C433.919 879.756 433.813 878.693 434.348 877.897L461.605 837.322C462.305 836.28 463.782 836.133 464.674 837.018L482.532 854.738Z" fill="#434345"/>
<path d="M75.1507 713.367L76.7632 706.594C77.1945 704.783 78.8188 703.509 80.6809 703.521L153 704L167.197 705.469C167.399 705.49 167.599 705.526 167.795 705.577L178.392 708.341C178.795 708.447 179.179 708.614 179.53 708.837L183.565 711.405C184.177 711.794 184.671 712.343 184.995 712.991L185.578 714.155C185.855 714.711 186 715.323 186 715.944V716.056C186 716.677 185.855 717.289 185.578 717.845L184.834 719.332C184.613 719.773 184.313 720.17 183.947 720.503L179 725L167.857 733.721C167.62 733.906 167.362 734.065 167.09 734.192L151.5 741.5L132 748L117 753L96.5 757L83.0753 758.534C80.8413 758.79 78.8359 757.154 78.6368 754.914L75.0576 714.648C75.0194 714.219 75.0509 713.786 75.1507 713.367Z" fill="white" stroke="black" stroke-width="0.5"/>
<path d="M1786 633.392V617.098C1786 611.414 1788.84 606.106 1793.57 602.953L1796.52 600.989C1798.48 599.678 1800.7 598.791 1803.03 598.386L1809.55 597.251C1810.52 597.084 1811.49 597 1812.47 597H1821.5H1825.17C1830.98 597 1836.37 599.989 1839.44 604.908C1841.11 607.582 1842 610.672 1842 613.825V662.671C1842 663.876 1841.74 665.067 1841.23 666.161C1839.87 669.111 1836.92 671 1833.67 671H1821.51C1818.87 671 1816.27 670.386 1813.91 669.205L1810.99 667.744C1810 667.249 1809.06 666.659 1808.18 665.981L1797.39 657.623C1795.16 655.901 1793.4 653.655 1792.26 651.085L1787.47 640.297C1786.5 638.123 1786 635.771 1786 633.392Z" fill="white" stroke="black" stroke-width="0.5"/>
<path d="M1498 578.5C1498 559.261 1492.5 535.274 1473 517.5C1453.5 499.726 1424.92 483.576 1388.89 469.972C1352.86 456.368 1310.09 445.577 1263.02 438.215C1215.94 430.853 1160.95 432 1110 432L1110 578.5H1498Z" fill="white"/>
<path d="M825.53 435.68L607.32 575.277C605.632 576.357 606.405 578.972 608.409 578.961L1043.49 576.52C1044.59 576.514 1045.48 575.62 1045.48 574.52V435C1045.48 433.895 1044.58 433 1043.48 433H834.691C831.444 433 828.265 433.93 825.53 435.68Z" fill="white"/>
<rect x="442" y="671" width="36" height="20" rx="10" fill="white"/>
<path d="M1078 905V420H833.033C829.748 420 826.534 420.952 823.778 422.74L590.52 574.119C585.814 577.174 582.918 582.354 582.78 587.963L575.427 887.583C575.193 897.132 582.87 905 592.422 905H1078Z" stroke="black" stroke-width="0.5"/>
<path d="M1078 905V420H1239L1324.19 429.303C1325.39 429.434 1326.58 429.693 1327.72 430.075L1399.85 454.118C1400.62 454.372 1401.36 454.681 1402.08 455.04L1465.98 486.988C1467.32 487.66 1468.57 488.506 1469.69 489.506L1502.92 519.147C1504.3 520.374 1505.47 521.817 1506.38 523.419L1525.27 556.588C1526.73 559.152 1527.5 562.052 1527.5 565.002V595.011C1527.5 597.313 1527.03 599.591 1526.13 601.707L1506.17 648.27C1505.4 650.076 1504.31 651.735 1502.97 653.171L1400.5 763L1352.45 813.871C1350.52 815.925 1349.12 818.429 1348.39 821.158L1329.37 892.386C1327.38 899.825 1320.64 905 1312.94 905H1078Z" stroke="black" stroke-width="0.5"/>
<rect x="1506" y="764" width="337" height="0.5" fill="black"/>
<rect x="62" y="799" width="257" height="0.5" fill="black"/>
<rect x="1444" y="618" width="54" height="9" rx="4" fill="white"/>
<rect x="1444" y="618" width="54" height="9" rx="4" fill="white"/>
<rect x="991" y="618" width="54" height="9" rx="4" fill="white"/>
<rect x="991" y="618" width="54" height="9" rx="4" fill="white"/>
<path d="M813.961 820.164H770.797V902H733.297V820.164H594.039V775.242L734.859 611.18H770.797V788.914H813.961V820.164ZM733.297 788.914V657.664L620.602 788.914H733.297ZM1061.23 756.492C1061.23 808.706 1053.02 847.052 1036.62 871.531C1020.34 895.88 995.016 908.055 960.641 908.055C925.745 908.055 900.224 895.685 884.078 870.945C868.062 846.206 860.055 808.185 860.055 756.883C860.055 705.19 868.193 667.039 884.469 642.43C900.745 617.69 926.135 605.32 960.641 605.32C995.536 605.32 1020.99 617.885 1037.01 643.016C1053.15 668.016 1061.23 705.841 1061.23 756.492ZM1009.86 845.164C1014.42 834.617 1017.48 822.247 1019.04 808.055C1020.73 793.732 1021.58 776.544 1021.58 756.492C1021.58 736.701 1020.73 719.513 1019.04 704.93C1017.48 690.346 1014.35 677.977 1009.66 667.82C1005.11 657.794 998.857 650.242 990.914 645.164C983.102 640.086 973.01 637.547 960.641 637.547C948.401 637.547 938.245 640.086 930.172 645.164C922.229 650.242 915.914 657.924 911.227 668.211C906.799 677.846 903.74 690.411 902.047 705.906C900.484 721.401 899.703 738.393 899.703 756.883C899.703 777.195 900.419 794.188 901.852 807.859C903.284 821.531 906.344 833.771 911.031 844.578C915.328 854.734 921.383 862.482 929.195 867.82C937.138 873.159 947.62 875.828 960.641 875.828C972.88 875.828 983.036 873.289 991.109 868.211C999.182 863.133 1005.43 855.451 1009.86 845.164ZM1322.55 820.164H1279.39V902H1241.89V820.164H1102.63V775.242L1243.45 611.18H1279.39V788.914H1322.55V820.164ZM1241.89 788.914V657.664L1129.2 788.914H1241.89Z" fill="white"/>
<path d="M813.961 820.164V821.164H814.961V820.164H813.961ZM770.797 820.164V819.164H769.797V820.164H770.797ZM770.797 902V903H771.797V902H770.797ZM733.297 902H732.297V903H733.297V902ZM733.297 820.164H734.297V819.164H733.297V820.164ZM594.039 820.164H593.039V821.164H594.039V820.164ZM594.039 775.242L593.28 774.591L593.039 774.872V775.242H594.039ZM734.859 611.18V610.18H734.4L734.101 610.528L734.859 611.18ZM770.797 611.18H771.797V610.18H770.797V611.18ZM770.797 788.914H769.797V789.914H770.797V788.914ZM813.961 788.914H814.961V787.914H813.961V788.914ZM733.297 788.914V789.914H734.297V788.914H733.297ZM733.297 657.664H734.297V654.964L732.538 657.013L733.297 657.664ZM620.602 788.914L619.843 788.263L618.425 789.914H620.602V788.914ZM813.961 819.164H770.797V821.164H813.961V819.164ZM769.797 820.164V902H771.797V820.164H769.797ZM770.797 901H733.297V903H770.797V901ZM734.297 902V820.164H732.297V902H734.297ZM733.297 819.164H594.039V821.164H733.297V819.164ZM595.039 820.164V775.242H593.039V820.164H595.039ZM594.798 775.893L735.618 611.831L734.101 610.528L593.28 774.591L594.798 775.893ZM734.859 612.18H770.797V610.18H734.859V612.18ZM769.797 611.18V788.914H771.797V611.18H769.797ZM770.797 789.914H813.961V787.914H770.797V789.914ZM812.961 788.914V820.164H814.961V788.914H812.961ZM734.297 788.914V657.664H732.297V788.914H734.297ZM732.538 657.013L619.843 788.263L621.36 789.566L734.056 658.316L732.538 657.013ZM620.602 789.914H733.297V787.914H620.602V789.914ZM1036.62 871.531L1035.79 870.975L1035.79 870.976L1036.62 871.531ZM884.078 870.945L883.239 871.489L883.241 871.492L884.078 870.945ZM884.469 642.43L885.303 642.981L885.304 642.979L884.469 642.43ZM1037.01 643.016L1036.16 643.553L1036.17 643.558L1037.01 643.016ZM1009.86 845.164L1008.94 844.767L1008.94 844.769L1009.86 845.164ZM1019.04 808.055L1018.05 807.937L1018.05 807.945L1019.04 808.055ZM1019.04 704.93L1018.04 705.036L1018.05 705.045L1019.04 704.93ZM1009.66 667.82L1008.75 668.234L1008.76 668.239L1009.66 667.82ZM990.914 645.164L990.369 646.003L990.375 646.007L990.914 645.164ZM930.172 645.164L929.639 644.318L929.633 644.322L930.172 645.164ZM911.227 668.211L912.135 668.628L912.137 668.626L911.227 668.211ZM902.047 705.906L901.053 705.798L901.052 705.806L902.047 705.906ZM911.031 844.578L911.952 844.188L911.949 844.18L911.031 844.578ZM929.195 867.82L928.631 868.646L928.637 868.65L929.195 867.82ZM1060.23 756.492C1060.23 808.641 1052.03 846.744 1035.79 870.975L1037.45 872.088C1054.02 847.36 1062.23 808.77 1062.23 756.492H1060.23ZM1035.79 870.976C1019.73 894.995 994.749 907.055 960.641 907.055V909.055C995.282 909.055 1020.95 896.765 1037.45 872.087L1035.79 870.976ZM960.641 907.055C926.012 907.055 900.841 894.801 884.916 870.399L883.241 871.492C899.607 896.569 925.478 909.055 960.641 909.055V907.055ZM884.918 870.402C869.059 845.905 861.055 808.118 861.055 756.883H859.055C859.055 808.252 867.066 846.507 883.239 871.489L884.918 870.402ZM861.055 756.883C861.055 705.257 869.189 667.345 885.303 642.981L883.635 641.878C867.196 666.733 859.055 705.124 859.055 756.883H861.055ZM885.304 642.979C901.362 618.571 926.407 606.32 960.641 606.32V604.32C925.864 604.32 900.127 616.809 883.633 641.88L885.304 642.979ZM960.641 606.32C995.263 606.32 1020.37 618.764 1036.16 643.553L1037.85 642.478C1021.62 617.007 995.81 604.32 960.641 604.32V606.32ZM1036.17 643.558C1052.16 668.319 1060.23 705.914 1060.23 756.492H1062.23C1062.23 705.769 1054.15 667.712 1037.85 642.473L1036.17 643.558ZM1010.78 845.561C1015.38 834.903 1018.46 822.433 1020.03 808.164L1018.05 807.945C1016.49 822.062 1013.45 834.331 1008.94 844.767L1010.78 845.561ZM1020.03 808.172C1021.73 793.798 1022.58 776.57 1022.58 756.492H1020.58C1020.58 776.519 1019.73 793.665 1018.05 807.937L1020.03 808.172ZM1022.58 756.492C1022.58 736.674 1021.73 719.447 1020.03 704.814L1018.05 705.045C1019.73 719.58 1020.58 736.727 1020.58 756.492H1022.58ZM1020.03 704.823C1018.46 690.163 1015.32 677.682 1010.57 667.401L1008.76 668.239C1013.39 678.272 1016.49 690.529 1018.04 705.036L1020.03 704.823ZM1010.57 667.407C1005.95 657.235 999.584 649.52 991.453 644.322L990.375 646.007C998.13 650.964 1004.26 658.354 1008.75 668.234L1010.57 667.407ZM991.459 644.326C983.439 639.113 973.142 636.547 960.641 636.547V638.547C972.879 638.547 982.764 641.059 990.369 646.003L991.459 644.326ZM960.641 636.547C948.265 636.547 937.911 639.114 929.639 644.318L930.704 646.011C938.578 641.057 948.537 638.547 960.641 638.547V636.547ZM929.633 644.322C921.498 649.523 915.068 657.37 910.317 667.796L912.137 668.626C916.76 658.479 922.96 650.962 930.711 646.007L929.633 644.322ZM910.318 667.793C905.83 677.561 902.752 690.241 901.053 705.798L903.041 706.015C904.727 690.582 907.769 678.132 912.135 668.628L910.318 667.793ZM901.052 705.806C899.486 721.34 898.703 738.366 898.703 756.883H900.703C900.703 738.421 901.483 721.463 903.042 706.007L901.052 705.806ZM898.703 756.883C898.703 777.215 899.42 794.245 900.857 807.964L902.846 807.755C901.419 794.13 900.703 777.175 900.703 756.883H898.703ZM900.857 807.964C902.298 821.72 905.38 834.061 910.114 844.976L911.949 844.18C907.308 833.48 904.27 821.342 902.846 807.755L900.857 807.964ZM910.11 844.968C914.469 855.271 920.636 863.182 928.631 868.646L929.76 866.995C922.13 861.781 916.187 854.198 911.952 844.188L910.11 844.968ZM928.637 868.65C936.795 874.133 947.491 876.828 960.641 876.828V874.828C947.749 874.828 937.481 872.185 929.753 866.99L928.637 868.65ZM960.641 876.828C973.016 876.828 983.37 874.261 991.642 869.057L990.577 867.364C982.703 872.318 972.745 874.828 960.641 874.828V876.828ZM991.642 869.057C999.914 863.854 1006.29 855.999 1010.78 845.559L1008.94 844.769C1004.58 854.902 998.45 862.412 990.577 867.364L991.642 869.057ZM1322.55 820.164V821.164H1323.55V820.164H1322.55ZM1279.39 820.164V819.164H1278.39V820.164H1279.39ZM1279.39 902V903H1280.39V902H1279.39ZM1241.89 902H1240.89V903H1241.89V902ZM1241.89 820.164H1242.89V819.164H1241.89V820.164ZM1102.63 820.164H1101.63V821.164H1102.63V820.164ZM1102.63 775.242L1101.87 774.591L1101.63 774.872V775.242H1102.63ZM1243.45 611.18V610.18H1242.99L1242.69 610.528L1243.45 611.18ZM1279.39 611.18H1280.39V610.18H1279.39V611.18ZM1279.39 788.914H1278.39V789.914H1279.39V788.914ZM1322.55 788.914H1323.55V787.914H1322.55V788.914ZM1241.89 788.914V789.914H1242.89V788.914H1241.89ZM1241.89 657.664H1242.89V654.964L1241.13 657.013L1241.89 657.664ZM1129.2 788.914L1128.44 788.263L1127.02 789.914H1129.2V788.914ZM1322.55 819.164H1279.39V821.164H1322.55V819.164ZM1278.39 820.164V902H1280.39V820.164H1278.39ZM1279.39 901H1241.89V903H1279.39V901ZM1242.89 902V820.164H1240.89V902H1242.89ZM1241.89 819.164H1102.63V821.164H1241.89V819.164ZM1103.63 820.164V775.242H1101.63V820.164H1103.63ZM1103.39 775.893L1244.21 611.831L1242.69 610.528L1101.87 774.591L1103.39 775.893ZM1243.45 612.18H1279.39V610.18H1243.45V612.18ZM1278.39 611.18V788.914H1280.39V611.18H1278.39ZM1279.39 789.914H1322.55V787.914H1279.39V789.914ZM1321.55 788.914V820.164H1323.55V788.914H1321.55ZM1242.89 788.914V657.664H1240.89V788.914H1242.89ZM1241.13 657.013L1128.44 788.263L1129.95 789.566L1242.65 658.316L1241.13 657.013ZM1129.2 789.914H1241.89V787.914H1129.2V789.914Z" fill="black"/>
</g>
<defs>
<clipPath id="clip0_34_2">
<rect width="1920" height="1080" fill="white"/>
</clipPath>
</defs>
</svg>
