<svg width="100" height="100" viewBox="0 0 100 100" fill="none" xmlns="http://www.w3.org/2000/svg">
<path fill-rule="evenodd" clip-rule="evenodd" d="M16.2441 73.2469C6.84939 66.6676 1 57.4062 1 47.1463C1 27.1833 23.1455 11 50.4634 11C77.7813 11 99.9268 27.1833 99.9268 47.1463C99.9268 67.1094 77.7813 83.2927 50.4634 83.2927C43.315 83.2927 36.5208 82.1846 30.3849 80.1906L17.1707 89L16.2441 73.2469Z" fill="#247DC9"/>
<path d="M37.7188 43.1406H35.668V39.9648H25.8242V43.1406H23.7734V38.125H25.1914C26.1055 36.6172 26.7852 34.8789 27.2305 32.9102C27.6836 30.9336 27.9102 28.9336 27.9102 26.9102H36.1367V38.125H37.7188V43.1406ZM33.9336 38.125V28.7617H29.9844C29.8828 30.7227 29.582 32.5117 29.082 34.1289C28.582 35.7461 28.0078 37.0781 27.3594 38.125H33.9336ZM51.3242 40H49.1211V28.7617H44.2344C44.2109 29.4102 44.1875 30.0352 44.1641 30.6367C44.1406 31.2383 44.1172 31.7812 44.0938 32.2656C44.0391 33.5703 43.9492 34.6133 43.8242 35.3945C43.6992 36.168 43.5352 36.8125 43.332 37.3281C43.1445 37.8125 42.9336 38.207 42.6992 38.5117C42.4727 38.8086 42.2266 39.0781 41.9609 39.3203C41.6953 39.5547 41.3984 39.7305 41.0703 39.8477C40.75 39.9648 40.3984 40.0234 40.0156 40.0234C39.8828 40.0234 39.6875 40.0195 39.4297 40.0117C39.1797 40.0039 39.0156 40 38.9375 40V38.0781H39.0547C39.1172 38.0781 39.207 38.082 39.3242 38.0898C39.4414 38.0977 39.5391 38.1016 39.6172 38.1016C39.8047 38.1016 39.9961 38.0742 40.1914 38.0195C40.3945 37.9648 40.5664 37.8633 40.707 37.7148C41.1055 37.3242 41.4258 36.6641 41.668 35.7344C41.9102 34.8047 42.0703 33.4609 42.1484 31.7031C42.1797 31.0625 42.207 30.3047 42.2305 29.4297C42.2617 28.5469 42.2891 27.707 42.3125 26.9102H51.3242V40ZM65.7266 40H63.5234V34.8086H60.9336L56.8789 40H54.2891L58.6953 34.5977C57.5625 34.2852 56.7344 33.8086 56.2109 33.168C55.6875 32.5195 55.4258 31.6719 55.4258 30.625C55.4258 29.9297 55.582 29.3398 55.8945 28.8555C56.207 28.3711 56.6016 27.9766 57.0781 27.6719C57.5469 27.375 58.0859 27.1758 58.6953 27.0742C59.3047 26.9648 59.9688 26.9102 60.6875 26.9102H65.7266V40ZM63.5234 33.0742V28.668H60.7461C60.1445 28.668 59.7109 28.6875 59.4453 28.7266C59.1797 28.7656 58.8906 28.8711 58.5781 29.043C58.2734 29.2148 58.0469 29.4492 57.8984 29.7461C57.7578 30.0352 57.6875 30.3516 57.6875 30.6953C57.6875 31.125 57.7305 31.4727 57.8164 31.7383C57.9102 32.0039 58.0977 32.2539 58.3789 32.4883C58.668 32.7148 59.0195 32.8711 59.4336 32.957C59.8477 33.0352 60.3086 33.0742 60.8164 33.0742H63.5234ZM34.168 57.8438H29.4336V69H27.2305V57.8438H22.4961V55.9102H34.168V57.8438ZM47.4102 62.6836H37.7656C37.7656 63.4883 37.8867 64.1914 38.1289 64.793C38.3711 65.3867 38.7031 65.875 39.125 66.2578C39.5312 66.6328 40.0117 66.9141 40.5664 67.1016C41.1289 67.2891 41.7461 67.3828 42.418 67.3828C43.3086 67.3828 44.2031 67.207 45.1016 66.8555C46.0078 66.4961 46.6523 66.1445 47.0352 65.8008H47.1523V68.2031C46.4102 68.5156 45.6523 68.7773 44.8789 68.9883C44.1055 69.1992 43.293 69.3047 42.4414 69.3047C40.2695 69.3047 38.5742 68.7188 37.3555 67.5469C36.1367 66.3672 35.5273 64.6953 35.5273 62.5312C35.5273 60.3906 36.1094 58.6914 37.2734 57.4336C38.4453 56.1758 39.9844 55.5469 41.8906 55.5469C43.6562 55.5469 45.0156 56.0625 45.9688 57.0938C46.9297 58.125 47.4102 59.5898 47.4102 61.4883V62.6836ZM45.2656 60.9961C45.2578 59.8398 44.9648 58.9453 44.3867 58.3125C43.8164 57.6797 42.9453 57.3633 41.7734 57.3633C40.5938 57.3633 39.6523 57.7109 38.9492 58.4062C38.2539 59.1016 37.8594 59.9648 37.7656 60.9961H45.2656ZM60.3711 57.8438C60.918 58.3906 61.332 59.0547 61.6133 59.8359C61.8945 60.6094 62.0352 61.5195 62.0352 62.5664C62.0352 64.5195 61.4492 66.1406 60.2773 67.4297C59.1055 68.7188 57.6641 69.3633 55.9531 69.3633C55.1094 69.3633 54.332 69.2227 53.6211 68.9414C52.9102 68.6523 52.3047 68.2109 51.8047 67.6172C51.1797 66.875 50.7109 65.9414 50.3984 64.8164C50.0938 63.6836 49.9414 62.3047 49.9414 60.6797C49.9414 60.0938 49.9688 59.5 50.0234 58.8984C50.0781 58.2891 50.2031 57.5625 50.3984 56.7188C50.5547 55.9922 50.7812 55.293 51.0781 54.6211C51.3828 53.9492 51.7422 53.4062 52.1562 52.9922C52.7188 52.4219 53.457 51.9648 54.3711 51.6211C55.293 51.2695 56.5117 51.0273 58.0273 50.8945C58.6445 50.8398 59.2188 50.7969 59.75 50.7656C60.2812 50.7266 60.7578 50.6914 61.1797 50.6602V52.6875C60.6641 52.7188 60.1523 52.75 59.6445 52.7812C59.1445 52.8125 58.6445 52.8516 58.1445 52.8984C57.1445 52.9844 56.2383 53.1484 55.4258 53.3906C54.6211 53.6328 54.0312 53.9453 53.6562 54.3281C53.2422 54.7422 52.9297 55.2852 52.7188 55.957C52.5156 56.6211 52.3828 57.2539 52.3203 57.8555C52.9062 57.4336 53.5469 57.082 54.2422 56.8008C54.9453 56.5117 55.6914 56.3672 56.4805 56.3672C57.2148 56.3672 57.9219 56.4883 58.6016 56.7305C59.2812 56.9727 59.8711 57.3438 60.3711 57.8438ZM59.7969 62.6953C59.7969 61.25 59.4492 60.1719 58.7539 59.4609C58.0586 58.7422 57.1406 58.3828 56 58.3828C55.3203 58.3828 54.668 58.4922 54.043 58.7109C53.418 58.9219 52.8242 59.207 52.2617 59.5664C52.2461 59.7617 52.2305 59.9922 52.2148 60.2578C52.207 60.5156 52.2031 60.7539 52.2031 60.9727C52.2031 62.332 52.3164 63.4336 52.543 64.2773C52.7695 65.1211 53.0898 65.793 53.5039 66.293C53.8633 66.7148 54.2539 67.0156 54.6758 67.1953C55.0977 67.3672 55.5508 67.4531 56.0352 67.4531C57.2148 67.4531 58.1367 67.0273 58.8008 66.1758C59.4648 65.3242 59.7969 64.1641 59.7969 62.6953ZM76.4492 62.6836H66.8047C66.8047 63.4883 66.9258 64.1914 67.168 64.793C67.4102 65.3867 67.7422 65.875 68.1641 66.2578C68.5703 66.6328 69.0508 66.9141 69.6055 67.1016C70.168 67.2891 70.7852 67.3828 71.457 67.3828C72.3477 67.3828 73.2422 67.207 74.1406 66.8555C75.0469 66.4961 75.6914 66.1445 76.0742 65.8008H76.1914V68.2031C75.4492 68.5156 74.6914 68.7773 73.918 68.9883C73.1445 69.1992 72.332 69.3047 71.4805 69.3047C69.3086 69.3047 67.6133 68.7188 66.3945 67.5469C65.1758 66.3672 64.5664 64.6953 64.5664 62.5312C64.5664 60.3906 65.1484 58.6914 66.3125 57.4336C67.4844 56.1758 69.0234 55.5469 70.9297 55.5469C72.6953 55.5469 74.0547 56.0625 75.0078 57.0938C75.9688 58.125 76.4492 59.5898 76.4492 61.4883V62.6836ZM74.3047 60.9961C74.2969 59.8398 74.0039 58.9453 73.4258 58.3125C72.8555 57.6797 71.9844 57.3633 70.8125 57.3633C69.6328 57.3633 68.6914 57.7109 67.9883 58.4062C67.293 59.1016 66.8984 59.9648 66.8047 60.9961H74.3047Z" fill="white"/>
</svg>
