<svg width="1920" height="1080" viewBox="0 0 1920 1080" fill="none" xmlns="http://www.w3.org/2000/svg">
<g clip-path="url(#clip0_35_86)">
<path d="M1107 404H1249H1324L1386.98 409.976C1390.65 410.325 1394.29 411 1397.84 411.995L1448.07 426.061C1452.68 427.349 1457.11 429.166 1461.3 431.474L1537.5 473.5L1606 520L1614.8 525.925C1625.03 532.818 1637.09 536.5 1649.43 536.5H1674L1781 546.5L1817.6 554.414C1817.86 554.47 1818.1 554.596 1818.3 554.777L1824.38 560.386C1824.46 560.462 1824.53 560.546 1824.6 560.638L1829.89 568.335C1829.96 568.444 1830.02 568.564 1830.07 568.689L1833.42 578.259C1833.47 578.419 1833.5 578.586 1833.5 578.755V595L1838.48 676.12C1838.49 676.369 1838.57 676.611 1838.7 676.823L1840.78 680.152C1840.92 680.38 1841 680.642 1841.01 680.911L1842.97 763.036C1842.98 763.85 1843.65 764.5 1844.46 764.5H1846.34C1846.76 764.5 1847.16 764.676 1847.45 764.986L1852.31 770.294C1852.44 770.43 1852.53 770.588 1852.6 770.761L1857 782L1858.46 787.821C1858.48 787.94 1858.5 788.062 1858.5 788.185V825.5L1857 843L1852.52 864.388C1852.51 864.463 1852.49 864.536 1852.46 864.607L1848.07 876.32C1848.02 876.44 1847.96 876.553 1847.89 876.657L1838.62 889.832C1838.54 889.944 1838.45 890.044 1838.34 890.13L1833.28 894.272C1833.1 894.422 1832.88 894.526 1832.65 894.577L1821.5 897L1798.5 903.5L1765.5 910L1716.11 919.478C1716.04 919.493 1715.96 919.513 1715.89 919.538L1671.24 935.413C1671.08 935.471 1670.91 935.5 1670.74 935.5H1649.5L1631 935L143.165 939C143.055 939 142.946 938.988 142.839 938.965L118.153 933.534C118.051 933.511 117.952 933.478 117.858 933.436L102.624 926.556C102.542 926.519 102.462 926.474 102.388 926.422L89.6872 917.63C89.5631 917.544 89.4527 917.44 89.3597 917.321L80.6264 906.161C80.5425 906.054 80.4736 905.936 80.4216 905.811L74.5 891.5L65.5 858.5L124.562 860.941C125.366 860.974 126 861.635 126 862.439V871.646C126 873.229 123.866 873.732 123.158 872.317L122.689 871.377C122.565 871.131 122.376 870.923 122.142 870.776L114.658 866.099C114.553 866.033 114.441 865.981 114.323 865.943L99.1761 861.057C99.0591 861.019 98.938 860.996 98.8154 860.988L84 860L65.5 858.5L62.5 823.5V803L63.9817 784.726C63.9938 784.576 64.0283 784.429 64.0841 784.29L69 772L72.3623 765.275C72.4532 765.094 72.58 764.932 72.735 764.801L78.4066 760.002C78.7787 759.687 78.9746 759.211 78.9319 758.726L75.0189 714.214C75.0063 714.072 75.0142 713.929 75.0422 713.789L77 704L80.4062 693.782C80.4681 693.596 80.5659 693.424 80.694 693.275L89.8089 682.721C89.9351 682.575 90.0884 682.455 90.2603 682.367L110.5 672L130.5 664L176.5 646.5L243 626.5L364.5 597.5L466.5 584.5L536.105 581.517C536.364 581.506 536.615 581.428 536.835 581.291L669.5 498.5L807.281 410.14C807.426 410.048 807.586 409.98 807.753 409.942L833.334 404.038C833.444 404.013 833.557 404 833.671 404H1107Z" fill="#247DC9"/>
<mask id="path-2-inside-1_35_86" fill="white">
<path d="M1658 935.5C1658 913.11 1654.06 890.938 1646.39 870.252C1638.73 849.566 1627.49 830.771 1613.33 814.938C1599.17 799.106 1582.36 786.547 1563.86 777.979C1545.36 769.41 1525.53 765 1505.5 765C1485.47 765 1465.64 769.41 1447.14 777.979C1428.64 786.547 1411.83 799.106 1397.67 814.938C1383.51 830.771 1372.27 849.566 1364.61 870.252C1356.94 890.939 1353 913.11 1353 935.5L1505.5 935.5H1658Z"/>
</mask>
<path d="M1658 935.5C1658 913.11 1654.06 890.938 1646.39 870.252C1638.73 849.566 1627.49 830.771 1613.33 814.938C1599.17 799.106 1582.36 786.547 1563.86 777.979C1545.36 769.41 1525.53 765 1505.5 765C1485.47 765 1465.64 769.41 1447.14 777.979C1428.64 786.547 1411.83 799.106 1397.67 814.938C1383.51 830.771 1372.27 849.566 1364.61 870.252C1356.94 890.939 1353 913.11 1353 935.5L1505.5 935.5H1658Z" fill="black" stroke="black" stroke-width="2" mask="url(#path-2-inside-1_35_86)"/>
<circle cx="1505.5" cy="909.5" r="140" fill="black" stroke="white"/>
<circle cx="1505.5" cy="909.5" r="108" fill="#C1BFC0" stroke="black"/>
<path d="M1518.58 816C1519.83 816 1520.78 817.144 1520.54 818.378L1511.31 866.378C1511.13 867.319 1510.31 868 1509.35 868H1502.65C1501.69 868 1500.87 867.319 1500.69 866.378L1491.46 818.378C1491.22 817.144 1492.17 816 1493.42 816H1518.58Z" fill="#434345"/>
<path d="M1493.42 1003C1492.17 1003 1491.22 1001.86 1491.46 1000.62L1500.69 952.622C1500.87 951.681 1501.69 951 1502.65 951H1509.35C1510.31 951 1511.13 951.681 1511.31 952.622L1520.54 1000.62C1520.78 1001.86 1519.83 1003 1518.58 1003H1493.42Z" fill="#434345"/>
<path d="M1412.5 897.279C1412.5 896.023 1413.65 895.078 1414.88 895.315L1462.88 904.546C1463.82 904.727 1464.5 905.551 1464.5 906.51V913.206C1464.5 914.165 1463.82 914.989 1462.88 915.17L1414.88 924.401C1413.65 924.638 1412.5 923.693 1412.5 922.437V897.279Z" fill="#434345"/>
<path d="M1599.5 921.721C1599.5 922.977 1598.35 923.922 1597.12 923.685L1549.12 914.454C1548.18 914.273 1547.5 913.449 1547.5 912.49V905.794C1547.5 904.835 1548.18 904.011 1549.12 903.83L1597.12 894.599C1598.35 894.362 1599.5 895.307 1599.5 896.563V921.721Z" fill="#434345"/>
<path d="M1448.49 834.713C1449.37 833.822 1450.85 833.957 1451.56 834.994L1479.13 875.356C1479.67 876.147 1479.58 877.212 1478.9 877.892L1474.18 882.646C1473.51 883.326 1472.44 883.432 1471.65 882.897L1431.07 855.64C1430.03 854.94 1429.89 853.463 1430.77 852.571L1448.49 834.713Z" fill="#434345"/>
<path d="M1563.51 984.287C1562.63 985.178 1561.15 985.043 1560.44 984.006L1532.87 943.644C1532.33 942.853 1532.43 941.788 1533.1 941.108L1537.82 936.354C1538.49 935.674 1539.56 935.568 1540.35 936.103L1580.93 963.36C1581.97 964.06 1582.12 965.537 1581.23 966.429L1563.51 984.287Z" fill="#434345"/>
<path d="M1431.47 967.262C1430.58 966.377 1430.71 964.899 1431.75 964.191L1472.11 936.62C1472.9 936.079 1473.97 936.177 1474.65 936.852L1479.4 941.568C1480.08 942.244 1480.19 943.307 1479.65 944.103L1452.39 984.678C1451.69 985.72 1450.22 985.867 1449.33 984.982L1431.47 967.262Z" fill="#434345"/>
<path d="M1580.53 851.738C1581.42 852.623 1581.29 854.101 1580.25 854.809L1539.89 882.38C1539.1 882.921 1538.03 882.823 1537.35 882.148L1532.6 877.432C1531.92 876.756 1531.81 875.693 1532.35 874.897L1559.61 834.322C1560.31 833.28 1561.78 833.133 1562.67 834.018L1580.53 851.738Z" fill="#434345"/>
<mask id="path-13-inside-2_35_86" fill="white">
<path d="M560 938.5C560 916.11 556.055 893.938 548.392 873.252C540.728 852.566 529.495 833.771 515.334 817.938C501.173 802.106 484.361 789.547 465.859 780.979C447.357 772.41 427.527 768 407.5 768C387.473 768 367.643 772.41 349.141 780.979C330.639 789.547 313.827 802.106 299.666 817.938C285.505 833.771 274.272 852.566 266.608 873.252C258.945 893.939 255 916.11 255 938.5L407.5 938.5H560Z"/>
</mask>
<path d="M560 938.5C560 916.11 556.055 893.938 548.392 873.252C540.728 852.566 529.495 833.771 515.334 817.938C501.173 802.106 484.361 789.547 465.859 780.979C447.357 772.41 427.527 768 407.5 768C387.473 768 367.643 772.41 349.141 780.979C330.639 789.547 313.827 802.106 299.666 817.938C285.505 833.771 274.272 852.566 266.608 873.252C258.945 893.939 255 916.11 255 938.5L407.5 938.5H560Z" fill="black" stroke="black" stroke-width="2" mask="url(#path-13-inside-2_35_86)"/>
<circle cx="407.5" cy="912.5" r="140" fill="black" stroke="white"/>
<circle cx="407.5" cy="912.5" r="108" fill="#C1BFC0" stroke="black"/>
<path d="M420.579 819C421.835 819 422.78 820.144 422.543 821.378L413.312 869.378C413.131 870.319 412.307 871 411.348 871H404.652C403.693 871 402.869 870.319 402.688 869.378L393.457 821.378C393.22 820.144 394.165 819 395.421 819H420.579Z" fill="#434345"/>
<path d="M395.421 1006C394.165 1006 393.22 1004.86 393.457 1003.62L402.688 955.622C402.869 954.681 403.693 954 404.652 954H411.348C412.307 954 413.131 954.681 413.312 955.622L422.543 1003.62C422.78 1004.86 421.835 1006 420.579 1006H395.421Z" fill="#434345"/>
<path d="M314.501 900.279C314.501 899.023 315.645 898.078 316.879 898.315L364.879 907.546C365.82 907.727 366.501 908.551 366.501 909.51V916.206C366.501 917.165 365.82 917.989 364.879 918.17L316.879 927.401C315.645 927.638 314.501 926.693 314.501 925.437V900.279Z" fill="#434345"/>
<path d="M501.499 924.721C501.499 925.977 500.355 926.922 499.121 926.685L451.121 917.454C450.18 917.273 449.499 916.449 449.499 915.49V908.794C449.499 907.835 450.18 907.011 451.121 906.83L499.121 897.599C500.355 897.362 501.499 898.307 501.499 899.563V924.721Z" fill="#434345"/>
<path d="M350.49 837.713C351.374 836.822 352.852 836.957 353.561 837.994L381.131 878.356C381.672 879.147 381.575 880.212 380.9 880.892L376.183 885.646C375.508 886.326 374.444 886.432 373.648 885.897L333.074 858.64C332.032 857.94 331.885 856.463 332.77 855.571L350.49 837.713Z" fill="#434345"/>
<path d="M465.51 987.287C464.626 988.178 463.148 988.043 462.439 987.006L434.869 946.644C434.328 945.853 434.425 944.788 435.1 944.108L439.817 939.354C440.492 938.674 441.556 938.568 442.352 939.103L482.926 966.36C483.968 967.06 484.115 968.537 483.23 969.429L465.51 987.287Z" fill="#434345"/>
<path d="M333.468 970.262C332.577 969.377 332.712 967.899 333.749 967.191L374.111 939.62C374.903 939.079 375.967 939.177 376.648 939.852L381.401 944.568C382.081 945.244 382.187 946.307 381.652 947.103L354.395 987.678C353.695 988.72 352.218 988.867 351.326 987.982L333.468 970.262Z" fill="#434345"/>
<path d="M482.532 854.738C483.423 855.623 483.288 857.101 482.251 857.809L441.889 885.38C441.098 885.921 440.033 885.823 439.353 885.148L434.6 880.432C433.919 879.756 433.813 878.693 434.348 877.897L461.605 837.322C462.305 836.28 463.782 836.133 464.674 837.018L482.532 854.738Z" fill="#434345"/>
<path d="M75.1507 713.367L76.7632 706.594C77.1945 704.783 78.8188 703.509 80.6809 703.521L153 704L167.197 705.469C167.399 705.49 167.599 705.526 167.795 705.577L178.392 708.341C178.795 708.447 179.179 708.614 179.53 708.837L183.565 711.405C184.177 711.794 184.671 712.343 184.995 712.991L185.578 714.155C185.855 714.711 186 715.323 186 715.944V716.056C186 716.677 185.855 717.289 185.578 717.845L184.834 719.332C184.613 719.773 184.313 720.17 183.947 720.503L179 725L167.857 733.721C167.62 733.906 167.362 734.065 167.09 734.192L151.5 741.5L132 748L117 753L96.5 757L83.0753 758.534C80.8413 758.79 78.8359 757.154 78.6368 754.914L75.0576 714.648C75.0194 714.219 75.0509 713.786 75.1507 713.367Z" fill="white" stroke="black" stroke-width="0.5"/>
<path d="M1786 633.392V617.098C1786 611.414 1788.84 606.106 1793.57 602.953L1796.52 600.989C1798.48 599.678 1800.7 598.791 1803.03 598.386L1809.55 597.251C1810.52 597.084 1811.49 597 1812.47 597H1821.5H1825.17C1830.98 597 1836.37 599.989 1839.44 604.908C1841.11 607.582 1842 610.672 1842 613.825V662.671C1842 663.876 1841.74 665.067 1841.23 666.161C1839.87 669.111 1836.92 671 1833.67 671H1821.51C1818.87 671 1816.27 670.386 1813.91 669.205L1810.99 667.744C1810 667.249 1809.06 666.659 1808.18 665.981L1797.39 657.623C1795.16 655.901 1793.4 653.655 1792.26 651.085L1787.47 640.297C1786.5 638.123 1786 635.771 1786 633.392Z" fill="white" stroke="black" stroke-width="0.5"/>
<path d="M1498 578.5C1498 559.261 1492.5 535.274 1473 517.5C1453.5 499.726 1424.92 483.576 1388.89 469.972C1352.86 456.368 1310.09 445.577 1263.02 438.215C1215.94 430.853 1160.95 432 1110 432L1110 578.5H1498Z" fill="white"/>
<path d="M825.53 435.68L607.32 575.277C605.632 576.357 606.405 578.972 608.409 578.961L1043.49 576.52C1044.59 576.514 1045.48 575.62 1045.48 574.52V435C1045.48 433.895 1044.58 433 1043.48 433H834.691C831.444 433 828.265 433.93 825.53 435.68Z" fill="white"/>
<rect x="442" y="671" width="36" height="20" rx="10" fill="white"/>
<path d="M1078 905V420H833.033C829.748 420 826.534 420.952 823.778 422.74L590.52 574.119C585.814 577.174 582.918 582.354 582.78 587.963L575.427 887.583C575.193 897.132 582.87 905 592.422 905H1078Z" stroke="black" stroke-width="0.5"/>
<path d="M1078 905V420H1239L1324.19 429.303C1325.39 429.434 1326.58 429.693 1327.72 430.075L1399.85 454.118C1400.62 454.372 1401.36 454.681 1402.08 455.04L1465.98 486.988C1467.32 487.66 1468.57 488.506 1469.69 489.506L1502.92 519.147C1504.3 520.374 1505.47 521.817 1506.38 523.419L1525.27 556.588C1526.73 559.152 1527.5 562.052 1527.5 565.002V595.011C1527.5 597.313 1527.03 599.591 1526.13 601.707L1506.17 648.27C1505.4 650.076 1504.31 651.735 1502.97 653.171L1400.5 763L1352.45 813.871C1350.52 815.925 1349.12 818.429 1348.39 821.158L1329.37 892.386C1327.38 899.825 1320.64 905 1312.94 905H1078Z" stroke="black" stroke-width="0.5"/>
<rect x="1506" y="764" width="337" height="0.5" fill="black"/>
<rect x="62" y="799" width="257" height="0.5" fill="black"/>
<rect x="1444" y="618" width="54" height="9" rx="4" fill="white"/>
<rect x="1444" y="618" width="54" height="9" rx="4" fill="white"/>
<rect x="991" y="618" width="54" height="9" rx="4" fill="white"/>
<rect x="991" y="618" width="54" height="9" rx="4" fill="white"/>
<path d="M716.406 759.886H575.757C575.757 771.621 577.523 781.875 581.055 790.647C584.587 799.306 589.429 806.427 595.581 812.01C601.506 817.479 608.512 821.58 616.602 824.314C624.805 827.049 633.805 828.416 643.604 828.416C656.592 828.416 669.637 825.853 682.739 820.726C695.955 815.485 705.355 810.358 710.938 805.345H712.646V840.379C701.823 844.936 690.771 848.753 679.492 851.829C668.213 854.905 656.364 856.443 643.945 856.443C612.272 856.443 587.549 847.898 569.775 830.809C552.002 813.605 543.115 789.223 543.115 757.664C543.115 726.447 551.603 701.666 568.579 683.323C585.669 664.98 608.114 655.809 635.913 655.809C661.662 655.809 681.486 663.328 695.386 678.367C709.399 693.406 716.406 714.769 716.406 742.454V759.886ZM685.132 735.276C685.018 718.414 680.745 705.369 672.314 696.141C663.997 686.912 651.294 682.298 634.204 682.298C617 682.298 603.271 687.368 593.018 697.508C582.878 707.648 577.124 720.237 575.757 735.276H685.132ZM884.229 696.141H882.52C877.734 695.001 873.063 694.204 868.506 693.748C864.062 693.178 858.765 692.894 852.612 692.894C842.7 692.894 833.13 695.115 823.901 699.559C814.673 703.888 805.786 709.528 797.241 716.478V852H765.112V661.106H797.241V689.305C810.002 679.051 821.224 671.816 830.908 667.601C840.706 663.271 850.675 661.106 860.815 661.106C866.398 661.106 870.443 661.277 872.949 661.619C875.456 661.847 879.215 662.36 884.229 663.157V696.141ZM1033.59 696.141H1031.88C1027.1 695.001 1022.43 694.204 1017.87 693.748C1013.43 693.178 1008.13 692.894 1001.98 692.894C992.065 692.894 982.495 695.115 973.267 699.559C964.038 703.888 955.151 709.528 946.606 716.478V852H914.478V661.106H946.606V689.305C959.367 679.051 970.589 671.816 980.273 667.601C990.072 663.271 1000.04 661.106 1010.18 661.106C1015.76 661.106 1019.81 661.277 1022.31 661.619C1024.82 661.847 1028.58 662.36 1033.59 663.157V696.141ZM1226.54 756.639C1226.54 787.742 1218.56 812.295 1202.61 830.296C1186.66 848.297 1165.3 857.298 1138.53 857.298C1111.52 857.298 1090.05 848.297 1074.1 830.296C1058.26 812.295 1050.34 787.742 1050.34 756.639C1050.34 725.535 1058.26 700.983 1074.1 682.981C1090.05 664.866 1111.52 655.809 1138.53 655.809C1165.3 655.809 1186.66 664.866 1202.61 682.981C1218.56 700.983 1226.54 725.535 1226.54 756.639ZM1193.38 756.639C1193.38 731.915 1188.54 713.572 1178.86 701.609C1169.17 689.533 1155.73 683.494 1138.53 683.494C1121.09 683.494 1107.54 689.533 1097.85 701.609C1088.28 713.572 1083.5 731.915 1083.5 756.639C1083.5 780.564 1088.34 798.737 1098.02 811.155C1107.71 823.46 1121.21 829.612 1138.53 829.612C1155.62 829.612 1169 823.517 1178.69 811.326C1188.48 799.021 1193.38 780.792 1193.38 756.639ZM1395.56 696.141H1393.85C1389.06 695.001 1384.39 694.204 1379.83 693.748C1375.39 693.178 1370.09 692.894 1363.94 692.894C1354.03 692.894 1344.46 695.115 1335.23 699.559C1326 703.888 1317.11 709.528 1308.57 716.478V852H1276.44V661.106H1308.57V689.305C1321.33 679.051 1332.55 671.816 1342.24 667.601C1352.03 663.271 1362 661.106 1372.14 661.106C1377.73 661.106 1381.77 661.277 1384.28 661.619C1386.78 661.847 1390.54 662.36 1395.56 663.157V696.141Z" fill="white"/>
<path d="M716.406 759.886V760.886H717.406V759.886H716.406ZM575.757 759.886V758.886H574.757V759.886H575.757ZM581.055 790.647L580.127 791.021L580.129 791.025L581.055 790.647ZM595.581 812.01L596.259 811.275L596.253 811.269L595.581 812.01ZM616.602 824.314L616.281 825.262L616.285 825.263L616.602 824.314ZM682.739 820.726L683.104 821.657L683.108 821.655L682.739 820.726ZM710.938 805.345V804.345H710.554L710.269 804.601L710.938 805.345ZM712.646 805.345H713.646V804.345H712.646V805.345ZM712.646 840.379L713.035 841.301L713.646 841.043V840.379H712.646ZM569.775 830.809L569.08 831.527L569.082 831.529L569.775 830.809ZM568.579 683.323L567.847 682.642L567.845 682.644L568.579 683.323ZM695.386 678.367L694.651 679.046L694.654 679.049L695.386 678.367ZM685.132 735.276V736.276H686.139L686.132 735.27L685.132 735.276ZM672.314 696.141L671.572 696.81L671.576 696.815L672.314 696.141ZM593.018 697.508L592.314 696.797L592.31 696.801L593.018 697.508ZM575.757 735.276L574.761 735.186L574.662 736.276H575.757V735.276ZM716.406 758.886H575.757V760.886H716.406V758.886ZM574.757 759.886C574.757 771.719 576.537 782.105 580.127 791.021L581.982 790.274C578.508 781.645 576.757 771.523 576.757 759.886H574.757ZM580.129 791.025C583.71 799.805 588.633 807.055 594.909 812.75L596.253 811.269C590.225 805.799 585.463 798.808 581.981 790.27L580.129 791.025ZM594.903 812.745C600.936 818.314 608.067 822.485 616.281 825.262L616.922 823.367C608.958 820.675 602.075 816.643 596.259 811.275L594.903 812.745ZM616.285 825.263C624.603 828.036 633.712 829.416 643.604 829.416V827.416C633.899 827.416 625.006 826.062 616.918 823.366L616.285 825.263ZM643.604 829.416C656.727 829.416 669.895 826.825 683.104 821.657L682.375 819.794C669.379 824.88 656.457 827.416 643.604 827.416V829.416ZM683.108 821.655C696.354 816.402 705.888 811.223 711.606 806.089L710.269 804.601C704.822 809.492 695.557 814.567 682.371 819.796L683.108 821.655ZM710.938 806.345H712.646V804.345H710.938V806.345ZM711.646 805.345V840.379H713.646V805.345H711.646ZM712.258 839.457C701.475 843.998 690.466 847.8 679.229 850.864L679.755 852.794C691.077 849.706 702.171 845.875 713.035 841.301L712.258 839.457ZM679.229 850.864C668.041 853.916 656.281 855.443 643.945 855.443V857.443C656.447 857.443 668.385 855.895 679.755 852.794L679.229 850.864ZM643.945 855.443C612.454 855.443 588.007 846.952 570.468 830.088L569.082 831.529C587.091 848.845 612.09 857.443 643.945 857.443V855.443ZM570.471 830.09C552.942 813.123 544.115 789.031 544.115 757.664H542.115C542.115 789.415 551.062 814.086 569.08 831.527L570.471 830.09ZM544.115 757.664C544.115 726.633 552.548 702.118 569.313 684.002L567.845 682.644C550.658 701.215 542.115 726.26 542.115 757.664H544.115ZM569.311 684.005C586.19 665.888 608.358 656.809 635.913 656.809V654.809C607.87 654.809 585.148 664.072 567.847 682.642L569.311 684.005ZM635.913 656.809C661.46 656.809 680.987 664.262 694.651 679.046L696.12 677.688C681.985 662.394 661.864 654.809 635.913 654.809V656.809ZM694.654 679.049C708.443 693.846 715.406 714.932 715.406 742.454H717.406C717.406 714.605 710.356 692.966 696.117 677.685L694.654 679.049ZM715.406 742.454V759.886H717.406V742.454H715.406ZM686.132 735.27C686.017 718.248 681.701 704.933 673.053 695.466L671.576 696.815C679.79 705.805 684.019 718.581 684.132 735.283L686.132 735.27ZM673.057 695.471C664.487 685.962 651.467 681.298 634.204 681.298V683.298C651.121 683.298 663.507 687.862 671.572 696.81L673.057 695.471ZM634.204 681.298C616.791 681.298 602.791 686.437 592.314 696.797L593.721 698.219C603.752 688.299 617.209 683.298 634.204 683.298V681.298ZM592.31 696.801C581.996 707.115 576.148 719.927 574.761 735.186L576.753 735.367C578.1 720.547 583.759 708.18 593.725 698.215L592.31 696.801ZM575.757 736.276H685.132V734.276H575.757V736.276ZM884.229 696.141V697.141H885.229V696.141H884.229ZM882.52 696.141L882.288 697.113L882.402 697.141H882.52V696.141ZM868.506 693.748L868.379 694.74L868.393 694.742L868.406 694.743L868.506 693.748ZM823.901 699.559L824.326 700.464L824.335 700.46L823.901 699.559ZM797.241 716.478L796.61 715.702L796.241 716.002V716.478H797.241ZM797.241 852V853H798.241V852H797.241ZM765.112 852H764.112V853H765.112V852ZM765.112 661.106V660.106H764.112V661.106H765.112ZM797.241 661.106H798.241V660.106H797.241V661.106ZM797.241 689.305H796.241V691.391L797.868 690.084L797.241 689.305ZM830.908 667.601L831.307 668.517L831.312 668.515L830.908 667.601ZM872.949 661.619L872.814 662.61L872.836 662.613L872.859 662.615L872.949 661.619ZM884.229 663.157H885.229V662.304L884.386 662.17L884.229 663.157ZM884.229 695.141H882.52V697.141H884.229V695.141ZM882.751 695.168C877.926 694.019 873.21 693.214 868.605 692.753L868.406 694.743C872.916 695.194 877.543 695.984 882.288 697.113L882.751 695.168ZM868.633 692.756C864.135 692.18 858.793 691.894 852.612 691.894V693.894C858.737 693.894 863.99 694.177 868.379 694.74L868.633 692.756ZM852.612 691.894C842.545 691.894 832.827 694.151 823.468 698.658L824.335 700.46C833.433 696.079 842.855 693.894 852.612 693.894V691.894ZM823.477 698.653C814.169 703.02 805.213 708.705 796.61 715.702L797.872 717.253C806.359 710.351 815.177 704.756 824.326 700.464L823.477 698.653ZM796.241 716.478V852H798.241V716.478H796.241ZM797.241 851H765.112V853H797.241V851ZM766.112 852V661.106H764.112V852H766.112ZM765.112 662.106H797.241V660.106H765.112V662.106ZM796.241 661.106V689.305H798.241V661.106H796.241ZM797.868 690.084C810.592 679.859 821.736 672.684 831.307 668.517L830.509 666.684C820.712 670.949 809.411 678.243 796.615 688.525L797.868 690.084ZM831.312 668.515C840.991 664.239 850.822 662.106 860.815 662.106V660.106C850.528 660.106 840.422 662.303 830.504 666.686L831.312 668.515ZM860.815 662.106C866.393 662.106 870.38 662.278 872.814 662.61L873.084 660.628C870.506 660.277 866.403 660.106 860.815 660.106V662.106ZM872.859 662.615C875.33 662.84 879.063 663.348 884.071 664.145L884.386 662.17C879.368 661.371 875.581 660.854 873.04 660.623L872.859 662.615ZM883.229 663.157V696.141H885.229V663.157H883.229ZM1033.59 696.141V697.141H1034.59V696.141H1033.59ZM1031.88 696.141L1031.65 697.113L1031.77 697.141H1031.88V696.141ZM1017.87 693.748L1017.74 694.74L1017.76 694.742L1017.77 694.743L1017.87 693.748ZM973.267 699.559L973.691 700.464L973.7 700.46L973.267 699.559ZM946.606 716.478L945.975 715.702L945.606 716.002V716.478H946.606ZM946.606 852V853H947.606V852H946.606ZM914.478 852H913.478V853H914.478V852ZM914.478 661.106V660.106H913.478V661.106H914.478ZM946.606 661.106H947.606V660.106H946.606V661.106ZM946.606 689.305H945.606V691.391L947.233 690.084L946.606 689.305ZM980.273 667.601L980.673 668.517L980.678 668.515L980.273 667.601ZM1022.31 661.619L1022.18 662.61L1022.2 662.613L1022.22 662.615L1022.31 661.619ZM1033.59 663.157H1034.59V662.304L1033.75 662.17L1033.59 663.157ZM1033.59 695.141H1031.88V697.141H1033.59V695.141ZM1032.12 695.168C1027.29 694.019 1022.58 693.214 1017.97 692.753L1017.77 694.743C1022.28 695.194 1026.91 695.984 1031.65 697.113L1032.12 695.168ZM1018 692.756C1013.5 692.18 1008.16 691.894 1001.98 691.894V693.894C1008.1 693.894 1013.36 694.177 1017.74 694.74L1018 692.756ZM1001.98 691.894C991.91 691.894 982.192 694.151 972.833 698.658L973.7 700.46C982.798 696.079 992.221 693.894 1001.98 693.894V691.894ZM972.842 698.653C963.534 703.02 954.579 708.705 945.975 715.702L947.237 717.253C955.724 710.351 964.542 704.756 973.691 700.464L972.842 698.653ZM945.606 716.478V852H947.606V716.478H945.606ZM946.606 851H914.478V853H946.606V851ZM915.478 852V661.106H913.478V852H915.478ZM914.478 662.106H946.606V660.106H914.478V662.106ZM945.606 661.106V689.305H947.606V661.106H945.606ZM947.233 690.084C959.957 679.859 971.102 672.684 980.673 668.517L979.874 666.684C970.077 670.949 958.776 678.243 945.98 688.525L947.233 690.084ZM980.678 668.515C990.356 664.239 1000.19 662.106 1010.18 662.106V660.106C999.894 660.106 989.787 662.303 979.869 666.686L980.678 668.515ZM1010.18 662.106C1015.76 662.106 1019.75 662.278 1022.18 662.61L1022.45 660.628C1019.87 660.277 1015.77 660.106 1010.18 660.106V662.106ZM1022.22 662.615C1024.7 662.84 1028.43 663.348 1033.44 664.145L1033.75 662.17C1028.73 661.371 1024.95 660.854 1022.4 660.623L1022.22 662.615ZM1032.59 663.157V696.141H1034.59V663.157H1032.59ZM1202.61 830.296L1203.36 830.959L1202.61 830.296ZM1074.1 830.296L1073.35 830.956L1073.35 830.959L1074.1 830.296ZM1074.1 682.981L1073.35 682.321L1073.35 682.321L1074.1 682.981ZM1202.61 682.981L1201.86 683.642L1201.86 683.645L1202.61 682.981ZM1178.86 701.609L1178.08 702.235L1178.08 702.239L1178.86 701.609ZM1097.85 701.609L1097.07 700.984L1097.07 700.985L1097.85 701.609ZM1098.02 811.155L1097.23 811.77L1097.24 811.774L1098.02 811.155ZM1178.69 811.326L1177.9 810.703L1177.9 810.704L1178.69 811.326ZM1225.54 756.639C1225.54 787.571 1217.61 811.863 1201.86 829.633L1203.36 830.959C1219.52 812.726 1227.54 787.913 1227.54 756.639H1225.54ZM1201.86 829.633C1186.13 847.394 1165.05 856.298 1138.53 856.298V858.298C1165.55 858.298 1187.2 849.2 1203.36 830.959L1201.86 829.633ZM1138.53 856.298C1111.77 856.298 1090.58 847.392 1074.85 829.633L1073.35 830.959C1089.51 849.202 1111.28 858.298 1138.53 858.298V856.298ZM1074.85 829.635C1059.21 811.865 1051.34 787.573 1051.34 756.639H1049.34C1049.34 787.911 1057.31 812.724 1073.35 830.956L1074.85 829.635ZM1051.34 756.639C1051.34 725.704 1059.21 701.412 1074.85 683.642L1073.35 682.321C1057.31 700.554 1049.34 725.366 1049.34 756.639H1051.34ZM1074.85 683.642C1090.58 665.77 1111.77 656.809 1138.53 656.809V654.809C1111.27 654.809 1089.51 663.963 1073.35 682.321L1074.85 683.642ZM1138.53 656.809C1165.05 656.809 1186.12 665.768 1201.86 683.642L1203.36 682.321C1187.2 663.965 1165.55 654.809 1138.53 654.809V656.809ZM1201.86 683.645C1217.61 701.415 1225.54 725.706 1225.54 756.639H1227.54C1227.54 725.364 1219.52 700.551 1203.36 682.318L1201.86 683.645ZM1194.38 756.639C1194.38 731.816 1189.53 713.201 1179.63 700.98L1178.08 702.239C1187.56 713.944 1192.38 732.015 1192.38 756.639H1194.38ZM1179.64 700.984C1169.74 688.642 1155.99 682.494 1138.53 682.494V684.494C1155.46 684.494 1168.61 690.423 1178.08 702.235L1179.64 700.984ZM1138.53 682.494C1120.83 682.494 1106.97 688.638 1097.07 700.984L1098.63 702.235C1108.1 690.427 1121.35 684.494 1138.53 684.494V682.494ZM1097.07 700.985C1087.29 713.205 1082.5 731.818 1082.5 756.639H1084.5C1084.5 732.013 1089.27 713.94 1098.63 702.234L1097.07 700.985ZM1082.5 756.639C1082.5 780.677 1087.36 799.105 1097.23 811.77L1098.81 810.54C1089.32 798.368 1084.5 780.452 1084.5 756.639H1082.5ZM1097.24 811.774C1107.13 824.347 1120.94 830.612 1138.53 830.612V828.612C1121.48 828.612 1108.28 822.573 1098.81 810.537L1097.24 811.774ZM1138.53 830.612C1155.89 830.612 1169.58 824.403 1179.47 811.948L1177.9 810.704C1168.43 822.631 1155.34 828.612 1138.53 828.612V830.612ZM1179.47 811.949C1189.47 799.395 1194.38 780.904 1194.38 756.639H1192.38C1192.38 780.681 1187.5 798.648 1177.9 810.703L1179.47 811.949ZM1395.56 696.141V697.141H1396.56V696.141H1395.56ZM1393.85 696.141L1393.62 697.113L1393.73 697.141H1393.85V696.141ZM1379.83 693.748L1379.71 694.74L1379.72 694.742L1379.73 694.743L1379.83 693.748ZM1335.23 699.559L1335.65 700.464L1335.66 700.46L1335.23 699.559ZM1308.57 716.478L1307.94 715.702L1307.57 716.002V716.478H1308.57ZM1308.57 852V853H1309.57V852H1308.57ZM1276.44 852H1275.44V853H1276.44V852ZM1276.44 661.106V660.106H1275.44V661.106H1276.44ZM1308.57 661.106H1309.57V660.106H1308.57V661.106ZM1308.57 689.305H1307.57V691.391L1309.2 690.084L1308.57 689.305ZM1342.24 667.601L1342.64 668.517L1342.64 668.515L1342.24 667.601ZM1384.28 661.619L1384.14 662.61L1384.16 662.613L1384.19 662.615L1384.28 661.619ZM1395.56 663.157H1396.56V662.304L1395.71 662.17L1395.56 663.157ZM1395.56 695.141H1393.85V697.141H1395.56V695.141ZM1394.08 695.168C1389.25 694.019 1384.54 693.214 1379.93 692.753L1379.73 694.743C1384.24 695.194 1388.87 695.984 1393.62 697.113L1394.08 695.168ZM1379.96 692.756C1375.46 692.18 1370.12 691.894 1363.94 691.894V693.894C1370.06 693.894 1375.32 694.177 1379.71 694.74L1379.96 692.756ZM1363.94 691.894C1353.87 691.894 1344.15 694.151 1334.8 698.658L1335.66 700.46C1344.76 696.079 1354.18 693.894 1363.94 693.894V691.894ZM1334.8 698.653C1325.5 703.02 1316.54 708.705 1307.94 715.702L1309.2 717.253C1317.69 710.351 1326.51 704.756 1335.65 700.464L1334.8 698.653ZM1307.57 716.478V852H1309.57V716.478H1307.57ZM1308.57 851H1276.44V853H1308.57V851ZM1277.44 852V661.106H1275.44V852H1277.44ZM1276.44 662.106H1308.57V660.106H1276.44V662.106ZM1307.57 661.106V689.305H1309.57V661.106H1307.57ZM1309.2 690.084C1321.92 679.859 1333.06 672.684 1342.64 668.517L1341.84 666.684C1332.04 670.949 1320.74 678.243 1307.94 688.525L1309.2 690.084ZM1342.64 668.515C1352.32 664.239 1362.15 662.106 1372.14 662.106V660.106C1361.86 660.106 1351.75 662.303 1341.83 666.686L1342.64 668.515ZM1372.14 662.106C1377.72 662.106 1381.71 662.278 1384.14 662.61L1384.41 660.628C1381.83 660.277 1377.73 660.106 1372.14 660.106V662.106ZM1384.19 662.615C1386.66 662.84 1390.39 663.348 1395.4 664.145L1395.71 662.17C1390.7 661.371 1386.91 660.854 1384.37 660.623L1384.19 662.615ZM1394.56 663.157V696.141H1396.56V663.157H1394.56Z" fill="black"/>
</g>
<defs>
<clipPath id="clip0_35_86">
<rect width="1920" height="1080" fill="white"/>
</clipPath>
</defs>
</svg>
