<svg width="1080" height="1080" viewBox="0 0 1080 1080" fill="none" xmlns="http://www.w3.org/2000/svg">
<path fill-rule="evenodd" clip-rule="evenodd" d="M913.578 799.56C1016.14 727.732 1080 626.624 1080 514.615C1080 296.675 838.234 120 540 120C241.766 120 0 296.675 0 514.615C0 732.555 241.766 909.231 540 909.231C618.04 909.231 692.214 897.133 759.201 875.364L903.462 971.538L913.578 799.56Z" fill="#247DC9"/>
<path d="M425.742 361.488C425.742 369.398 424.131 376.43 420.908 382.582C417.783 388.734 413.438 393.861 407.871 397.963C401.621 402.553 394.785 405.873 387.363 407.924C380.039 409.975 370.371 411 358.359 411H290.684V247.377H353.965C366.172 247.377 375.352 247.816 381.504 248.695C387.754 249.477 393.613 251.283 399.082 254.115C405.234 257.338 409.727 261.537 412.559 266.713C415.488 271.889 416.953 277.992 416.953 285.023C416.953 293.129 414.658 300.16 410.068 306.117C405.479 312.074 399.57 316.713 392.344 320.033V321.498C402.012 323.842 409.971 328.383 416.221 335.121C422.568 341.762 425.742 350.551 425.742 361.488ZM388.682 289.271C388.682 285.756 387.9 282.582 386.338 279.75C384.873 276.918 382.578 274.721 379.453 273.158C375.352 271.107 370.713 269.984 365.537 269.789C360.459 269.496 354.16 269.35 346.641 269.35H317.93V314.174H352.354C359.58 314.174 364.902 313.93 368.32 313.441C371.836 312.855 375.352 311.488 378.867 309.34C382.578 306.996 385.117 304.262 386.484 301.137C387.949 297.914 388.682 293.959 388.682 289.271ZM397.324 361.635C397.324 356.264 396.445 351.918 394.688 348.598C392.93 345.18 389.072 342.055 383.115 339.223C379.404 337.465 375.4 336.439 371.104 336.146C366.807 335.756 360.85 335.561 353.232 335.561H317.93V389.027H344.004C354.941 389.027 363.34 388.686 369.199 388.002C375.156 387.221 380.283 385.609 384.58 383.168C388.877 380.727 392.051 377.748 394.102 374.232C396.25 370.717 397.324 366.518 397.324 361.635ZM498.691 219.984H467.637V191.42H498.691V219.984ZM496.934 411H469.395V247.377H496.934V411ZM699.961 450.258H674.326V410.561H551.279V450.258H525.645V387.562H543.369C554.795 368.715 563.291 346.986 568.857 322.377C574.521 297.67 577.354 272.67 577.354 247.377H680.186V387.562H699.961V450.258ZM652.646 387.562V270.521H603.281C602.012 295.033 598.252 317.396 592.002 337.611C585.752 357.826 578.574 374.477 570.469 387.562H652.646ZM342.1 636.547H282.92V776H255.381V636.547H196.201V612.377H342.1V636.547ZM507.627 697.045H387.07C387.07 707.104 388.584 715.893 391.611 723.412C394.639 730.834 398.789 736.938 404.062 741.723C409.141 746.41 415.146 749.926 422.08 752.27C429.111 754.613 436.826 755.785 445.225 755.785C456.357 755.785 467.539 753.588 478.77 749.193C490.098 744.701 498.154 740.307 502.939 736.01H504.404V766.039C495.127 769.945 485.654 773.217 475.986 775.854C466.318 778.49 456.162 779.809 445.518 779.809C418.369 779.809 397.178 772.484 381.943 757.836C366.709 743.09 359.092 722.191 359.092 695.141C359.092 668.383 366.367 647.143 380.918 631.42C395.566 615.697 414.805 607.836 438.633 607.836C460.703 607.836 477.695 614.281 489.609 627.172C501.621 640.062 507.627 658.373 507.627 682.104V697.045ZM480.82 675.951C480.723 661.498 477.061 650.316 469.834 642.406C462.705 634.496 451.816 630.541 437.168 630.541C422.422 630.541 410.654 634.887 401.865 643.578C393.174 652.27 388.242 663.061 387.07 675.951H480.82ZM669.639 636.547C676.475 643.383 681.65 651.684 685.166 661.449C688.682 671.117 690.439 682.494 690.439 695.58C690.439 719.994 683.115 740.258 668.467 756.371C653.818 772.484 635.801 780.541 614.414 780.541C603.867 780.541 594.15 778.783 585.264 775.268C576.377 771.654 568.809 766.137 562.559 758.715C554.746 749.438 548.887 737.768 544.98 723.705C541.172 709.545 539.268 692.309 539.268 671.996C539.268 664.672 539.609 657.25 540.293 649.73C540.977 642.113 542.539 633.031 544.98 622.484C546.934 613.402 549.766 604.662 553.477 596.264C557.285 587.865 561.777 581.078 566.953 575.902C573.984 568.773 583.213 563.061 594.639 558.764C606.162 554.369 621.396 551.342 640.342 549.682C648.057 548.998 655.234 548.461 661.875 548.07C668.516 547.582 674.473 547.143 679.746 546.752V572.094C673.301 572.484 666.904 572.875 660.557 573.266C654.307 573.656 648.057 574.145 641.807 574.73C629.307 575.805 617.979 577.855 607.822 580.883C597.764 583.91 590.391 587.816 585.703 592.602C580.527 597.777 576.621 604.564 573.984 612.963C571.445 621.264 569.785 629.174 569.004 636.693C576.328 631.42 584.336 627.025 593.027 623.51C601.816 619.896 611.143 618.09 621.006 618.09C630.186 618.09 639.023 619.604 647.52 622.631C656.016 625.658 663.389 630.297 669.639 636.547ZM662.461 697.191C662.461 679.125 658.115 665.648 649.424 656.762C640.732 647.777 629.258 643.285 615 643.285C606.504 643.285 598.35 644.652 590.537 647.387C582.725 650.023 575.303 653.588 568.271 658.08C568.076 660.521 567.881 663.402 567.686 666.723C567.588 669.945 567.539 672.924 567.539 675.658C567.539 692.65 568.955 706.42 571.787 716.967C574.619 727.514 578.623 735.912 583.799 742.162C588.291 747.436 593.174 751.195 598.447 753.441C603.721 755.59 609.385 756.664 615.439 756.664C630.186 756.664 641.709 751.342 650.01 740.697C658.311 730.053 662.461 715.551 662.461 697.191ZM870.615 697.045H750.059C750.059 707.104 751.572 715.893 754.6 723.412C757.627 730.834 761.777 736.938 767.051 741.723C772.129 746.41 778.135 749.926 785.068 752.27C792.1 754.613 799.814 755.785 808.213 755.785C819.346 755.785 830.527 753.588 841.758 749.193C853.086 744.701 861.143 740.307 865.928 736.01H867.393V766.039C858.115 769.945 848.643 773.217 838.975 775.854C829.307 778.49 819.15 779.809 808.506 779.809C781.357 779.809 760.166 772.484 744.932 757.836C729.697 743.09 722.08 722.191 722.08 695.141C722.08 668.383 729.355 647.143 743.906 631.42C758.555 615.697 777.793 607.836 801.621 607.836C823.691 607.836 840.684 614.281 852.598 627.172C864.609 640.062 870.615 658.373 870.615 682.104V697.045ZM843.809 675.951C843.711 661.498 840.049 650.316 832.822 642.406C825.693 634.496 814.805 630.541 800.156 630.541C785.41 630.541 773.643 634.887 764.854 643.578C756.162 652.27 751.23 663.061 750.059 675.951H843.809Z" fill="white"/>
</svg>
