<svg width="100" height="100" viewBox="0 0 100 100" fill="none" xmlns="http://www.w3.org/2000/svg">
<path fill-rule="evenodd" clip-rule="evenodd" d="M84.6827 73.2469C94.0774 66.6676 99.9268 57.4062 99.9268 47.1463C99.9268 27.1833 77.7813 11 50.4634 11C23.1455 11 1 27.1833 1 47.1463C1 67.1094 23.1455 83.2927 50.4634 83.2927C57.6118 83.2927 64.406 82.1846 70.5419 80.1906L83.7561 89L84.6827 73.2469Z" fill="#247DC9"/>
<path d="M40.8594 35.0391C40.8594 35.6719 40.7305 36.2344 40.4727 36.7266C40.2227 37.2188 39.875 37.6289 39.4297 37.957C38.9297 38.3242 38.3828 38.5898 37.7891 38.7539C37.2031 38.918 36.4297 39 35.4688 39H30.0547V25.9102H35.1172C36.0938 25.9102 36.8281 25.9453 37.3203 26.0156C37.8203 26.0781 38.2891 26.2227 38.7266 26.4492C39.2188 26.707 39.5781 27.043 39.8047 27.457C40.0391 27.8711 40.1562 28.3594 40.1562 28.9219C40.1562 29.5703 39.9727 30.1328 39.6055 30.6094C39.2383 31.0859 38.7656 31.457 38.1875 31.7227V31.8398C38.9609 32.0273 39.5977 32.3906 40.0977 32.9297C40.6055 33.4609 40.8594 34.1641 40.8594 35.0391ZM37.8945 29.2617C37.8945 28.9805 37.832 28.7266 37.707 28.5C37.5898 28.2734 37.4062 28.0977 37.1562 27.9727C36.8281 27.8086 36.457 27.7188 36.043 27.7031C35.6367 27.6797 35.1328 27.668 34.5312 27.668H32.2344V31.2539H34.9883C35.5664 31.2539 35.9922 31.2344 36.2656 31.1953C36.5469 31.1484 36.8281 31.0391 37.1094 30.8672C37.4062 30.6797 37.6094 30.4609 37.7188 30.2109C37.8359 29.9531 37.8945 29.6367 37.8945 29.2617ZM38.5859 35.0508C38.5859 34.6211 38.5156 34.2734 38.375 34.0078C38.2344 33.7344 37.9258 33.4844 37.4492 33.2578C37.1523 33.1172 36.832 33.0352 36.4883 33.0117C36.1445 32.9805 35.668 32.9648 35.0586 32.9648H32.2344V37.2422H34.3203C35.1953 37.2422 35.8672 37.2148 36.3359 37.1602C36.8125 37.0977 37.2227 36.9688 37.5664 36.7734C37.9102 36.5781 38.1641 36.3398 38.3281 36.0586C38.5 35.7773 38.5859 35.4414 38.5859 35.0508ZM46.6953 23.7188H44.2109V21.4336H46.6953V23.7188ZM46.5547 39H44.3516V25.9102H46.5547V39ZM62.7969 42.1406H60.7461V38.9648H50.9023V42.1406H48.8516V37.125H50.2695C51.1836 35.6172 51.8633 33.8789 52.3086 31.9102C52.7617 29.9336 52.9883 27.9336 52.9883 25.9102H61.2148V37.125H62.7969V42.1406ZM59.0117 37.125V27.7617H55.0625C54.9609 29.7227 54.6602 31.5117 54.1602 33.1289C53.6602 34.7461 53.0859 36.0781 52.4375 37.125H59.0117ZM34.168 56.8438H29.4336V68H27.2305V56.8438H22.4961V54.9102H34.168V56.8438ZM47.4102 61.6836H37.7656C37.7656 62.4883 37.8867 63.1914 38.1289 63.793C38.3711 64.3867 38.7031 64.875 39.125 65.2578C39.5312 65.6328 40.0117 65.9141 40.5664 66.1016C41.1289 66.2891 41.7461 66.3828 42.418 66.3828C43.3086 66.3828 44.2031 66.207 45.1016 65.8555C46.0078 65.4961 46.6523 65.1445 47.0352 64.8008H47.1523V67.2031C46.4102 67.5156 45.6523 67.7773 44.8789 67.9883C44.1055 68.1992 43.293 68.3047 42.4414 68.3047C40.2695 68.3047 38.5742 67.7188 37.3555 66.5469C36.1367 65.3672 35.5273 63.6953 35.5273 61.5312C35.5273 59.3906 36.1094 57.6914 37.2734 56.4336C38.4453 55.1758 39.9844 54.5469 41.8906 54.5469C43.6562 54.5469 45.0156 55.0625 45.9688 56.0938C46.9297 57.125 47.4102 58.5898 47.4102 60.4883V61.6836ZM45.2656 59.9961C45.2578 58.8398 44.9648 57.9453 44.3867 57.3125C43.8164 56.6797 42.9453 56.3633 41.7734 56.3633C40.5938 56.3633 39.6523 56.7109 38.9492 57.4062C38.2539 58.1016 37.8594 58.9648 37.7656 59.9961H45.2656ZM60.3711 56.8438C60.918 57.3906 61.332 58.0547 61.6133 58.8359C61.8945 59.6094 62.0352 60.5195 62.0352 61.5664C62.0352 63.5195 61.4492 65.1406 60.2773 66.4297C59.1055 67.7188 57.6641 68.3633 55.9531 68.3633C55.1094 68.3633 54.332 68.2227 53.6211 67.9414C52.9102 67.6523 52.3047 67.2109 51.8047 66.6172C51.1797 65.875 50.7109 64.9414 50.3984 63.8164C50.0938 62.6836 49.9414 61.3047 49.9414 59.6797C49.9414 59.0938 49.9688 58.5 50.0234 57.8984C50.0781 57.2891 50.2031 56.5625 50.3984 55.7188C50.5547 54.9922 50.7812 54.293 51.0781 53.6211C51.3828 52.9492 51.7422 52.4062 52.1562 51.9922C52.7188 51.4219 53.457 50.9648 54.3711 50.6211C55.293 50.2695 56.5117 50.0273 58.0273 49.8945C58.6445 49.8398 59.2188 49.7969 59.75 49.7656C60.2812 49.7266 60.7578 49.6914 61.1797 49.6602V51.6875C60.6641 51.7188 60.1523 51.75 59.6445 51.7812C59.1445 51.8125 58.6445 51.8516 58.1445 51.8984C57.1445 51.9844 56.2383 52.1484 55.4258 52.3906C54.6211 52.6328 54.0312 52.9453 53.6562 53.3281C53.2422 53.7422 52.9297 54.2852 52.7188 54.957C52.5156 55.6211 52.3828 56.2539 52.3203 56.8555C52.9062 56.4336 53.5469 56.082 54.2422 55.8008C54.9453 55.5117 55.6914 55.3672 56.4805 55.3672C57.2148 55.3672 57.9219 55.4883 58.6016 55.7305C59.2812 55.9727 59.8711 56.3438 60.3711 56.8438ZM59.7969 61.6953C59.7969 60.25 59.4492 59.1719 58.7539 58.4609C58.0586 57.7422 57.1406 57.3828 56 57.3828C55.3203 57.3828 54.668 57.4922 54.043 57.7109C53.418 57.9219 52.8242 58.207 52.2617 58.5664C52.2461 58.7617 52.2305 58.9922 52.2148 59.2578C52.207 59.5156 52.2031 59.7539 52.2031 59.9727C52.2031 61.332 52.3164 62.4336 52.543 63.2773C52.7695 64.1211 53.0898 64.793 53.5039 65.293C53.8633 65.7148 54.2539 66.0156 54.6758 66.1953C55.0977 66.3672 55.5508 66.4531 56.0352 66.4531C57.2148 66.4531 58.1367 66.0273 58.8008 65.1758C59.4648 64.3242 59.7969 63.1641 59.7969 61.6953ZM76.4492 61.6836H66.8047C66.8047 62.4883 66.9258 63.1914 67.168 63.793C67.4102 64.3867 67.7422 64.875 68.1641 65.2578C68.5703 65.6328 69.0508 65.9141 69.6055 66.1016C70.168 66.2891 70.7852 66.3828 71.457 66.3828C72.3477 66.3828 73.2422 66.207 74.1406 65.8555C75.0469 65.4961 75.6914 65.1445 76.0742 64.8008H76.1914V67.2031C75.4492 67.5156 74.6914 67.7773 73.918 67.9883C73.1445 68.1992 72.332 68.3047 71.4805 68.3047C69.3086 68.3047 67.6133 67.7188 66.3945 66.5469C65.1758 65.3672 64.5664 63.6953 64.5664 61.5312C64.5664 59.3906 65.1484 57.6914 66.3125 56.4336C67.4844 55.1758 69.0234 54.5469 70.9297 54.5469C72.6953 54.5469 74.0547 55.0625 75.0078 56.0938C75.9688 57.125 76.4492 58.5898 76.4492 60.4883V61.6836ZM74.3047 59.9961C74.2969 58.8398 74.0039 57.9453 73.4258 57.3125C72.8555 56.6797 71.9844 56.3633 70.8125 56.3633C69.6328 56.3633 68.6914 56.7109 67.9883 57.4062C67.293 58.1016 66.8984 58.9648 66.8047 59.9961H74.3047Z" fill="white"/>
</svg>
