<svg width="100" height="100" viewBox="0 0 100 100" fill="none" xmlns="http://www.w3.org/2000/svg">
<path fill-rule="evenodd" clip-rule="evenodd" d="M40 87C40 88.6569 41.3431 90 43 90H82C86.4183 90 90 86.4183 90 82V18C90 13.5817 86.4183 10 82 10H43C41.3431 10 40 11.3431 40 13V13C40 14.6569 41.3431 16 43 16H82C83.1046 16 84 16.8954 84 18V82C84 83.1046 83.1046 84 82 84H43C41.3431 84 40 85.3431 40 87V87Z" fill="#247DC9"/>
<path fill-rule="evenodd" clip-rule="evenodd" d="M66.5 52.5981C68.5 51.4434 68.5 48.5566 66.5 47.4019L35 29.2154C33 28.0607 30.5 29.5041 30.5 31.8135V39C30.5 39.5523 30.0523 40 29.5 40H13C11.3431 40 10 41.3431 10 43V57C10 58.6569 11.3431 60 13 60H29.5C30.0523 60 30.5 60.4477 30.5 61V68.1865C30.5 70.4959 33 71.9393 35 70.7846L66.5 52.5981Z" fill="#247DC9"/>
</svg>
