<svg width="100" height="100" viewBox="0 0 100 100" fill="none" xmlns="http://www.w3.org/2000/svg">
<path d="M86.3676 7.47638L81.0885 2.54925C80.6972 2.1841 80.2686 1.86118 79.8097 1.58584L79.6203 1.47217C78.5601 0.836033 77.3294 0.5 76.093 0.5C75.055 0.5 74.0166 0.74168 73.0882 1.2059C72.0474 1.72628 71.1605 2.50926 70.515 3.47744L65.5 11L61.54 17.732C60.8533 18.8994 60.4015 20.1898 60.2099 21.5306C60.0707 22.5053 60.0724 23.5069 60.2117 24.4816C60.4006 25.8042 60.8466 27.1066 61.5095 28.2666C62.1602 29.4054 63.0205 30.4259 64.0356 31.2564L68 34.5L69.6966 36.1966C70.5576 37.0576 71.2464 38.075 71.7261 39.1942L71.8588 39.5038C72.2818 40.491 72.5 41.5538 72.5 42.6278C72.5 43.859 72.2133 45.0733 71.6627 46.1745L71 47.5L69.0737 50.652C66.6948 54.5449 64.02 58.2491 61.073 61.7319L60 63L57.3403 65.6597C55.7825 67.2175 54.105 68.6509 52.3234 69.9466L50.4389 71.3172C49.814 71.7716 49.1527 72.1736 48.4617 72.5192L46.8251 73.3374C45.9537 73.7732 44.9928 74 44.0184 74C43.3439 74 42.6738 73.8913 42.0338 73.6779L41.7235 73.5745C40.588 73.196 39.5478 72.5761 38.6746 71.7575L32.9341 66.3758C32.3147 65.795 31.6142 65.3071 30.8547 64.9274C29.635 64.3175 28.29 64 26.9264 64H25C23.6883 64 22.3983 64.3343 21.2517 64.9713L19.795 65.7805C18.934 66.2589 18.1253 66.8258 17.3821 67.4721L8.24207 75.4199C7.422 76.133 6.7499 77.0002 6.26389 77.9722C6.08819 78.3236 5.93764 78.6871 5.8134 79.0598L5.31155 80.5653C5.1052 81.1844 5 81.8327 5 82.4852C5 84.0954 5.63964 85.6396 6.77821 86.7782L8.5 88.5L10.8338 90.5745C12.2756 91.8561 13.8176 93.0203 15.4451 94.056L16.2583 94.5735C17.749 95.5221 19.3308 96.3195 20.98 96.9538C23.6426 97.9779 26.4529 98.566 29.3027 98.6956L31.9013 98.8137C34.6246 98.9375 37.3532 98.7463 40.0327 98.2439C42.669 97.7496 45.2406 96.9572 47.698 95.8821L48.5147 95.5248C50.8338 94.5102 53.0592 93.2939 55.1653 91.8898L58 90L64.5 85L72 77.5L81 67L86.5 59L87.4566 57.3738C90.1468 52.8004 92.4227 47.9956 94.257 43.0168L95 41L95.3492 39.4286C95.7818 37.482 96 35.494 96 33.5V27.9908C96 26.3353 95.8188 24.6846 95.4597 23.0685C95.1539 21.6925 94.7206 20.348 94.1653 19.0524L93.6427 17.8329C92.5526 15.2893 91.1237 12.9047 89.3949 10.7437C88.4662 9.58276 87.4544 8.49079 86.3676 7.47638Z" fill="white"/>
</svg>
