<svg width="100" height="100" viewBox="0 0 100 100" fill="none" xmlns="http://www.w3.org/2000/svg">
<mask id="path-1-inside-1_122_2" fill="white">
<path fill-rule="evenodd" clip-rule="evenodd" d="M2.42378 53.9195C0.525407 51.2742 0.525408 47.7258 2.42378 45.0805C12.88 30.51 30.0913 21 49.552 21C69.0126 21 86.224 30.51 96.6801 45.0805C98.5785 47.7258 98.5785 51.2742 96.6801 53.9195C86.224 68.49 69.0126 78 49.552 78C30.0913 78 12.88 68.49 2.42378 53.9195Z"/>
</mask>
<path d="M96.6801 45.0805L101.555 41.5823L96.6801 45.0805ZM2.42378 45.0805L-2.45091 41.5823L2.42378 45.0805ZM2.42378 53.9195L-2.45091 57.4177L2.42378 53.9195ZM7.29847 48.5787C16.6645 35.5273 32.0867 27 49.552 27V15C28.0959 15 9.09541 25.4927 -2.45091 41.5823L7.29847 48.5787ZM49.552 27C67.0172 27 82.4394 35.5273 91.8054 48.5787L101.555 41.5823C90.0085 25.4927 71.008 15 49.552 15V27ZM91.8054 50.4213C82.4394 63.4727 67.0172 72 49.552 72V84C71.008 84 90.0085 73.5073 101.555 57.4177L91.8054 50.4213ZM49.552 72C32.0867 72 16.6645 63.4727 7.29846 50.4213L-2.45091 57.4177C9.09541 73.5073 28.0959 84 49.552 84V72ZM91.8054 48.5787C92.2034 49.1332 92.2034 49.8668 91.8054 50.4213L101.555 57.4177C104.954 52.6816 104.954 46.3184 101.555 41.5823L91.8054 48.5787ZM-2.45091 41.5823C-5.8497 46.3184 -5.8497 52.6816 -2.45091 57.4177L7.29846 50.4213C6.90051 49.8668 6.90051 49.1332 7.29847 48.5787L-2.45091 41.5823Z" fill="white" mask="url(#path-1-inside-1_122_2)"/>
<circle cx="49.552" cy="49" r="12.5" stroke="white" stroke-width="9"/>
</svg>
