<svg width="1080" height="1080" viewBox="0 0 1080 1080" fill="none" xmlns="http://www.w3.org/2000/svg">
<rect x="50" width="980" height="1076.92" rx="8" fill="#247DC9"/>
<path d="M819.517 140.596C822.82 140.862 825.714 138.401 825.98 135.098C826.247 131.795 823.785 128.901 820.482 128.635L819.517 140.596ZM254.615 280L248.652 279.338L254.615 280ZM286.923 554.616L283.9 559.798L285.301 560.616H286.923V554.616ZM626.154 554.616L628.837 549.249L627.57 548.616H626.154V554.616ZM825.384 753.846L819.421 754.509L825.384 753.846ZM647.692 920.769L647.539 926.767L648.355 926.788L649.147 926.59L647.692 920.769ZM265.153 905.002C261.84 904.917 259.087 907.534 259.002 910.847C258.917 914.16 261.534 916.913 264.847 916.998L265.153 905.002ZM264.847 916.998L272.206 917.186L272.513 905.19L265.153 905.002L264.847 916.998ZM286.925 917.562L301.644 917.937L301.95 905.941L287.232 905.566L286.925 917.562ZM316.363 918.313L331.082 918.689L331.388 906.693L316.669 906.317L316.363 918.313ZM345.801 919.065L360.52 919.44L360.826 907.444L346.107 907.069L345.801 919.065ZM375.239 919.816L389.958 920.192L390.264 908.196L375.545 907.82L375.239 919.816ZM404.677 920.568L419.396 920.943L419.702 908.947L404.983 908.572L404.677 920.568ZM434.115 921.319L448.833 921.695L449.14 909.699L434.421 909.323L434.115 921.319ZM463.552 922.071L478.271 922.446L478.578 910.45L463.859 910.075L463.552 922.071ZM492.99 922.822L507.709 923.198L508.015 911.202L493.297 910.826L492.99 922.822ZM522.428 923.574L537.147 923.949L537.453 911.953L522.734 911.577L522.428 923.574ZM551.866 924.325L566.585 924.701L566.891 912.705L552.172 912.329L551.866 924.325ZM581.304 925.077L596.023 925.452L596.329 913.456L581.61 913.08L581.304 925.077ZM610.742 925.828L625.461 926.204L625.767 914.208L611.048 913.832L610.742 925.828ZM640.18 926.58L647.539 926.767L647.845 914.771L640.486 914.583L640.18 926.58ZM649.147 926.59C651.294 926.054 653.705 925.444 656.345 924.755L653.316 913.143C650.728 913.819 648.358 914.418 646.237 914.948L649.147 926.59ZM670.882 920.752C675.378 919.444 680.201 917.973 685.267 916.322L681.551 904.912C676.618 906.519 671.918 907.953 667.53 909.23L670.882 920.752ZM699.535 911.401C704.13 909.724 708.848 907.909 713.639 905.947L709.09 894.842C704.455 896.741 699.882 898.5 695.421 900.129L699.535 911.401ZM727.514 899.917C732.041 897.83 736.592 895.608 741.127 893.243L735.578 882.603C731.228 884.871 726.853 887.008 722.49 889.02L727.514 899.917ZM754.418 885.844C758.769 883.258 763.07 880.528 767.282 877.645L760.506 867.742C756.519 870.47 752.435 873.064 748.287 875.529L754.418 885.844ZM779.602 868.547C783.607 865.349 787.49 861.988 791.21 858.456L782.948 849.753C779.493 853.032 775.871 856.17 772.114 859.17L779.602 868.547ZM801.895 847.283C805.278 843.368 808.456 839.27 811.389 834.981L801.483 828.208C798.821 832.102 795.921 835.843 792.815 839.438L801.895 847.283ZM819.389 821.569C821.751 816.966 823.832 812.174 825.593 807.189L814.277 803.193C812.702 807.654 810.837 811.951 808.712 816.091L819.389 821.569ZM829.784 792.087C830.81 787.076 831.522 781.9 831.891 776.557L819.919 775.732C819.587 780.545 818.947 785.192 818.028 789.679L829.784 792.087ZM831.993 760.988C831.855 758.421 831.64 755.819 831.348 753.184L819.421 754.509C819.689 756.922 819.885 759.296 820.01 761.633L831.993 760.988ZM831.348 753.184C831.064 750.627 830.709 748.09 830.288 745.576L818.453 747.559C818.838 749.858 819.162 752.174 819.421 754.509L831.348 753.184ZM826.95 730.65C825.573 725.733 823.946 720.908 822.094 716.178L810.92 720.554C812.632 724.926 814.13 729.371 815.395 733.886L826.95 730.65ZM815.895 702.286C813.631 697.772 811.171 693.352 808.539 689.029L798.289 695.27C800.76 699.327 803.059 703.459 805.167 707.664L815.895 702.286ZM800.209 676.432C797.295 672.352 794.237 668.365 791.056 664.472L781.763 672.065C784.789 675.768 787.689 679.549 790.443 683.406L800.209 676.432ZM781.218 653.128C777.839 649.447 774.361 645.858 770.806 642.361L762.392 650.917C765.81 654.278 769.145 657.72 772.378 661.242L781.218 653.128ZM759.911 632.133C756.192 628.796 752.416 625.552 748.604 622.404L740.962 631.656C744.654 634.706 748.306 637.842 751.896 641.064L759.911 632.133ZM736.938 613.131C732.96 610.086 728.967 607.142 724.984 604.3L718.014 614.069C721.894 616.837 725.778 619.701 729.644 622.66L736.938 613.131ZM712.744 595.853C708.544 593.048 704.382 590.36 700.287 587.791L693.909 597.956C697.913 600.468 701.98 603.094 706.08 605.833L712.744 595.853ZM687.608 580.071C683.2 577.466 678.915 575.012 674.794 572.712L668.946 583.191C672.987 585.446 677.186 587.851 681.502 590.402L687.608 580.071ZM661.745 565.631C656.991 563.123 652.581 560.87 648.603 558.88L643.234 569.612C647.146 571.569 651.478 573.781 656.145 576.244L661.745 565.631ZM635.288 552.369C632.437 551 630.29 549.976 628.837 549.249L623.47 559.982C625.036 560.765 627.314 561.852 630.093 563.187L635.288 552.369ZM626.154 548.616H618.444V560.616H626.154V548.616ZM603.024 548.616H587.605V560.616H603.024V548.616ZM572.185 548.616H556.765V560.616H572.185V548.616ZM541.346 548.616H525.926V560.616H541.346V548.616ZM510.507 548.616H495.087V560.616H510.507V548.616ZM479.668 548.616H464.248V560.616H479.668V548.616ZM448.828 548.616H433.409V560.616H448.828V548.616ZM417.989 548.616H402.57V560.616H417.989V548.616ZM387.15 548.616H371.73V560.616H387.15V548.616ZM356.311 548.616H340.891V560.616H356.311V548.616ZM325.472 548.616H310.052V560.616H325.472V548.616ZM294.633 548.616H286.923V560.616H294.633V548.616ZM289.946 549.433C288.142 548.38 286.385 547.072 284.676 545.497L276.544 554.322C278.833 556.431 281.282 558.271 283.9 559.798L289.946 549.433ZM276.011 534.465C273.697 530.582 271.554 526.112 269.588 521.084L258.412 525.454C260.571 530.975 262.991 536.057 265.702 540.607L276.011 534.465ZM264.847 506.667C263.545 501.96 262.364 496.958 261.3 491.687L249.537 494.061C250.65 499.575 251.895 504.855 253.282 509.867L264.847 506.667ZM258.648 476.398C257.91 471.411 257.26 466.25 256.694 460.933L244.762 462.203C245.344 467.668 246.014 472.991 246.777 478.153L258.648 476.398ZM255.306 445.393C254.931 440.286 254.624 435.067 254.382 429.753L242.394 430.3C242.642 435.718 242.955 441.046 243.338 446.271L255.306 445.393ZM253.856 414.087C253.742 408.92 253.683 403.683 253.676 398.387L241.676 398.404C241.683 403.777 241.743 409.098 241.859 414.351L253.856 414.087ZM253.802 382.679C253.892 377.476 254.027 372.232 254.206 366.959L242.213 366.552C242.032 371.89 241.895 377.201 241.804 382.474L253.802 382.679ZM254.863 351.248C255.122 346.023 255.42 340.782 255.756 335.534L243.781 334.767C243.441 340.071 243.139 345.37 242.878 350.655L254.863 351.248ZM256.872 319.836C257.28 314.599 257.723 309.367 258.2 304.152L246.25 303.06C245.768 308.328 245.32 313.613 244.908 318.904L256.872 319.836ZM259.735 288.481C260.009 285.867 260.29 283.261 260.578 280.663L248.652 279.338C248.36 281.961 248.076 284.593 247.8 287.233L259.735 288.481ZM260.578 280.663C260.85 278.219 261.18 275.812 261.567 273.444L249.725 271.507C249.303 274.082 248.946 276.693 248.652 279.338L260.578 280.663ZM264.653 259.4C265.957 254.731 267.511 250.218 269.31 245.855L258.216 241.28C256.233 246.09 254.525 251.053 253.096 256.173L264.653 259.4ZM275.568 232.984C277.91 228.836 280.508 224.833 283.357 220.97L273.701 213.846C270.567 218.094 267.704 222.505 265.119 227.082L275.568 232.984ZM292.537 209.934C295.763 206.474 299.225 203.138 302.922 199.923L295.047 190.868C291.047 194.346 287.283 197.973 283.76 201.751L292.537 209.934ZM314.307 190.932C318.167 188.159 322.229 185.489 326.492 182.921L320.3 172.642C315.774 175.368 311.44 178.216 307.304 181.187L314.307 190.932ZM339.301 175.818C343.564 173.64 347.993 171.548 352.589 169.541L347.785 158.544C342.98 160.644 338.331 162.838 333.842 165.131L339.301 175.818ZM366.246 164.004C370.758 162.307 375.407 160.681 380.191 159.124L376.48 147.713C371.531 149.322 366.711 151.008 362.022 152.772L366.246 164.004ZM394.368 154.827C399.043 153.508 403.833 152.249 408.736 151.047L405.881 139.392C400.849 140.625 395.924 141.92 391.11 143.278L394.368 154.827ZM423.271 147.727C428.067 146.707 432.96 145.738 437.951 144.818L435.777 133.017C430.683 133.955 425.682 134.946 420.774 135.99L423.271 147.727ZM452.582 142.308C457.415 141.538 462.331 140.81 467.329 140.125L465.699 128.236C460.618 128.933 455.616 129.673 450.694 130.458L452.582 142.308ZM482.192 138.239C487.087 137.666 492.054 137.131 497.094 136.632L495.912 124.691C490.804 125.196 485.765 125.739 480.797 126.321L482.192 138.239ZM511.937 135.286C516.859 134.88 521.846 134.505 526.896 134.163L526.085 122.191C520.978 122.537 515.932 122.915 510.948 123.327L511.937 135.286ZM541.885 133.253C546.799 132.987 551.77 132.75 556.797 132.541L556.299 120.552C551.224 120.762 546.203 121.002 541.238 121.27L541.885 133.253ZM571.836 132.005C576.774 131.857 581.764 131.735 586.804 131.637L586.573 119.64C581.491 119.738 576.459 119.861 571.476 120.01L571.836 132.005ZM601.794 131.424C606.772 131.377 611.796 131.353 616.866 131.353L616.865 119.353C611.758 119.353 606.697 119.377 601.682 119.424L601.794 131.424ZM631.807 131.415C636.795 131.457 641.825 131.52 646.898 131.604L647.095 119.605C641.991 119.521 636.929 119.458 631.908 119.416L631.807 131.415ZM661.846 131.906C666.826 132.025 671.844 132.164 676.902 132.32L677.273 120.326C672.189 120.168 667.142 120.03 662.133 119.91L661.846 131.906ZM691.891 132.835C696.864 133.022 701.873 133.226 706.918 133.447L707.443 121.458C702.374 121.236 697.34 121.031 692.342 120.843L691.891 132.835ZM721.929 134.149C726.899 134.395 731.901 134.658 736.936 134.936L737.597 122.954C732.541 122.675 727.516 122.411 722.525 122.163L721.929 134.149ZM751.955 135.804C756.922 136.104 761.92 136.418 766.949 136.747L767.731 124.772C762.683 124.443 757.666 124.127 752.678 123.826L751.955 135.804ZM781.964 137.763C786.932 138.111 791.929 138.472 796.954 138.846L797.844 126.879C792.802 126.504 787.788 126.141 782.802 125.792L781.964 137.763ZM811.955 139.994C814.469 140.192 816.99 140.392 819.517 140.596L820.482 128.635C817.946 128.43 815.417 128.229 812.895 128.031L811.955 139.994Z" fill="white"/>
<path d="M434.589 236.246C434.589 383.284 253.064 554.012 253.064 554.012C253.064 554.012 71.5385 383.284 71.5385 236.246C71.5385 89.207 152.81 21.5385 253.064 21.5385C353.317 21.5385 434.589 89.207 434.589 236.246Z" fill="white"/>
<path d="M434.589 236.246C434.589 383.284 253.064 554.012 253.064 554.012C253.064 554.012 71.5385 383.284 71.5385 236.246C71.5385 89.207 152.81 21.5385 253.064 21.5385C353.317 21.5385 434.589 89.207 434.589 236.246Z" fill="white"/>
<path d="M318.518 107.334C324.45 122.696 321.491 135.244 313.111 138.48C304.732 141.716 294.107 134.414 288.175 119.053C282.976 105.592 289.54 87.9235 291.244 83.7575C291.451 83.2509 292.029 83.0279 292.522 83.2638C296.584 85.2032 313.32 93.8735 318.518 107.334Z" fill="#75AA00"/>
<path d="M357.852 131.957C344.216 141.189 339.488 153.183 344.524 160.62C349.559 168.058 362.451 168.124 376.087 158.892C388.036 150.802 392.725 132.546 393.702 128.153C393.821 127.618 393.474 127.106 392.934 127.018C388.492 126.293 369.801 123.867 357.852 131.957Z" fill="#75AA00"/>
<path d="M361.747 127.341C353.088 150.304 337.34 161.311 324.814 156.587C312.289 151.864 307.73 133.2 316.389 110.236C324.181 89.5728 350.165 76.2944 355.291 73.8423C355.784 73.606 356.349 73.819 356.564 74.3225C358.794 79.5485 369.54 106.678 361.747 127.341Z" fill="#75AA00"/>
<mask id="path-7-outside-1_2_7" maskUnits="userSpaceOnUse" x="104.425" y="102.9" width="305.664" height="301.262" fill="black">
<rect fill="white" x="104.425" y="102.9" width="305.664" height="301.262"/>
<path fill-rule="evenodd" clip-rule="evenodd" d="M285.379 124.046C278.646 119.96 269.855 122.752 266.713 129.974L192.644 300.265V300.265C192.644 300.265 192.644 300.265 192.644 300.266L163.95 397.09C162.956 400.445 166.955 403.021 169.599 400.729L245.723 334.718C245.723 334.718 245.723 334.717 245.723 334.717V334.717C245.723 334.717 245.723 334.717 245.723 334.717L365.07 189.786C370.104 183.672 368.549 174.517 361.779 170.408L285.379 124.046Z"/>
</mask>
<path fill-rule="evenodd" clip-rule="evenodd" d="M285.379 124.046C278.646 119.96 269.855 122.752 266.713 129.974L192.644 300.265V300.265C192.644 300.265 192.644 300.265 192.644 300.266L163.95 397.09C162.956 400.445 166.955 403.021 169.599 400.729L245.723 334.718C245.723 334.718 245.723 334.717 245.723 334.717V334.717C245.723 334.717 245.723 334.717 245.723 334.717L365.07 189.786C370.104 183.672 368.549 174.517 361.779 170.408L285.379 124.046Z" fill="#FF7B00"/>
<path d="M266.713 129.974L265.796 129.576L265.796 129.576L266.713 129.974ZM285.379 124.046L284.86 124.901L284.86 124.901L285.379 124.046ZM163.95 397.09L162.991 396.806L162.991 396.806L163.95 397.09ZM169.599 400.729L168.944 399.973L168.944 399.973L169.599 400.729ZM365.07 189.786L364.298 189.15L364.298 189.15L365.07 189.786ZM361.779 170.408L362.298 169.553L362.298 169.553L361.779 170.408ZM245.723 334.717L246.495 335.353L245.723 334.717ZM245.723 334.718L245.068 333.962L245.723 334.718ZM192.644 300.266L193.603 300.55L192.644 300.266ZM267.63 130.373C270.53 123.707 278.645 121.129 284.86 124.901L285.898 123.191C278.646 118.791 269.179 121.798 265.796 129.576L267.63 130.373ZM193.561 300.664L267.63 130.373L265.796 129.576L191.727 299.866L193.561 300.664ZM164.909 397.374L193.603 300.55L191.685 299.982L162.991 396.806L164.909 397.374ZM168.944 399.973C167.056 401.611 164.199 399.77 164.909 397.374L162.991 396.806C161.713 401.119 166.855 404.431 170.254 401.484L168.944 399.973ZM245.068 333.962L168.944 399.973L170.254 401.484L246.378 335.473L245.068 333.962ZM364.298 189.15L244.952 334.081L246.495 335.353L365.842 190.421L364.298 189.15ZM361.26 171.263C367.51 175.055 368.945 183.507 364.298 189.15L365.842 190.421C371.263 183.838 369.589 173.978 362.298 169.553L361.26 171.263ZM284.86 124.901L361.26 171.263L362.298 169.553L285.898 123.191L284.86 124.901ZM246.655 335.08C246.613 335.188 246.556 335.279 246.495 335.353L244.952 334.081C244.891 334.155 244.834 334.246 244.791 334.355L246.655 335.08ZM246.378 335.473C246.501 335.366 246.596 335.231 246.655 335.08L244.791 334.355C244.85 334.203 244.945 334.069 245.068 333.962L246.378 335.473ZM191.741 299.835C191.719 299.882 191.7 299.931 191.685 299.982L193.603 300.55C193.588 300.6 193.569 300.648 193.547 300.695L191.741 299.835Z" fill="#D14B02" mask="url(#path-7-outside-1_2_7)"/>
<path d="M243.791 180.326L284.571 205.586C285.51 206.167 285.797 207.404 285.216 208.343V208.343C284.636 209.279 283.407 209.575 282.468 208.999L242.5 184.5L243.791 180.326Z" fill="#D14B02"/>
<path d="M302.751 265.925L267.949 241.16C267.049 240.519 265.8 240.73 265.16 241.63V241.63C264.519 242.529 264.73 243.778 265.63 244.419L300.432 269.184L302.751 265.925Z" fill="#D14B02"/>
<path d="M248.004 331.873L232.949 321.16C232.049 320.519 230.8 320.73 230.16 321.63V321.63C229.519 322.53 229.73 323.778 230.63 324.419L245.685 335.132L248.004 331.873Z" fill="#D14B02"/>
<path d="M209.106 262L233 276.8C233.939 277.382 234.229 278.614 233.647 279.553V279.553C233.066 280.493 231.833 280.782 230.894 280.201L207 265.401L209.106 262Z" fill="#D14B02"/>
<path d="M177.5 349.5L193.772 359.692C194.704 360.276 194.987 361.508 194.408 362.444V362.444C193.826 363.383 192.591 363.677 191.652 363.095L176 353.401L177.5 349.5Z" fill="#D14B02"/>
<path d="M965.385 567.527C965.385 720.184 776.923 897.436 776.923 897.436C776.923 897.436 588.462 720.184 588.462 567.527C588.462 414.87 672.839 344.615 776.923 344.615C881.008 344.615 965.385 414.87 965.385 567.527Z" fill="white"/>
<path d="M965.385 567.527C965.385 720.184 776.923 897.436 776.923 897.436C776.923 897.436 588.462 720.184 588.462 567.527C588.462 414.87 672.839 344.615 776.923 344.615C881.008 344.615 965.385 414.87 965.385 567.527Z" fill="white"/>
<path d="M694.983 459.332L858.863 459.332V721.539H809.699L776.923 533.078L744.147 721.539H694.983V459.332Z" fill="#0078D7"/>
<rect x="694.983" y="442.944" width="163.88" height="16.388" fill="#003FCB"/>
<rect x="760.535" y="442.944" width="32.7759" height="16.388" fill="#92ED4B"/>
<path d="M694.983 721.538H744.147V737.926H694.983V721.538Z" fill="#83BEEC"/>
<path d="M809.699 721.538H858.863V737.926H809.699V721.538Z" fill="#83BEEC"/>
<rect x="772.826" y="459.332" width="8.19398" height="49.1639" fill="#003FCB"/>
</svg>
