<svg width="100" height="100" viewBox="0 0 100 100" fill="none" xmlns="http://www.w3.org/2000/svg">
<g clip-path="url(#clip0_101_52)">
<rect x="4" y="-1" width="91" height="100" rx="8" fill="#247DC9"/>
<path d="M75.5 11.5C44.5 9 24.5 11.5 23 25C21.8 35.8 22 48.1667 26 50.5H57.5C59.5 51.5 74.8 58.2 76 69C77.2 79.8 63.5 83.5 59.5 84.5L29.5 92" stroke="white" stroke-width="2" stroke-dasharray="2 2"/>
<path d="M39.7118 20.9371C39.7118 34.5907 22.8559 50.444 22.8559 50.444C22.8559 50.444 6 34.5907 6 20.9371C6 7.28351 13.5466 1 22.8559 1C32.1652 1 39.7118 7.28351 39.7118 20.9371Z" fill="white"/>
<path d="M39.7118 20.9371C39.7118 34.5907 22.8559 50.444 22.8559 50.444C22.8559 50.444 6 34.5907 6 20.9371C6 7.28351 13.5466 1 22.8559 1C32.1652 1 39.7118 7.28351 39.7118 20.9371Z" fill="white"/>
<path d="M28.9338 8.96683C29.4847 10.3933 29.2098 11.5584 28.4318 11.8589C27.6537 12.1594 26.6671 11.4814 26.1162 10.0549C25.8105 9.26327 25.9429 8.31488 26.1213 7.62759C26.2588 7.09777 26.8406 6.87307 27.2986 7.17294C27.8926 7.56193 28.6281 8.17516 28.9338 8.96683Z" fill="#75AA00"/>
<path d="M32.5862 11.2531C31.32 12.1104 30.8811 13.2241 31.3486 13.9148C31.8162 14.6054 33.0133 14.6115 34.2796 13.7542C34.9823 13.2785 35.4146 12.424 35.6602 11.7578C35.8495 11.2442 35.4999 10.7277 34.9527 10.7127C34.2429 10.6933 33.289 10.7774 32.5862 11.2531Z" fill="#75AA00"/>
<path d="M32.948 10.8246C32.1439 12.9569 30.6815 13.9789 29.5185 13.5403C28.3554 13.1017 27.932 11.3686 28.7361 9.23632C29.255 7.86049 30.6423 6.83725 31.5613 6.28439C32.0304 6.00223 32.6095 6.22064 32.7755 6.74225C33.1006 7.76429 33.4668 9.4488 32.948 10.8246Z" fill="#75AA00"/>
<mask id="path-7-outside-1_101_52" maskUnits="userSpaceOnUse" x="7.76803" y="9.52892" width="29.7501" height="28.2828" fill="black">
<rect fill="white" x="7.76803" y="9.52892" width="29.7501" height="28.2828"/>
<path fill-rule="evenodd" clip-rule="evenodd" d="M29.3889 12.662C26.895 11.1486 23.6389 12.1828 22.4754 14.8579L17.2455 26.8817L17.2455 26.8817L14.7513 35.2981C14.6093 35.7773 15.1807 36.1454 15.5583 35.8179L22.1743 30.0808L30.6079 19.8393C32.4725 17.5749 31.8965 14.1837 29.3889 12.662Z"/>
</mask>
<path fill-rule="evenodd" clip-rule="evenodd" d="M29.3889 12.662C26.895 11.1486 23.6389 12.1828 22.4754 14.8579L17.2455 26.8817L17.2455 26.8817L14.7513 35.2981C14.6093 35.7773 15.1807 36.1454 15.5583 35.8179L22.1743 30.0808L30.6079 19.8393C32.4725 17.5749 31.8965 14.1837 29.3889 12.662Z" fill="#FF7B00"/>
<path d="M22.4754 14.8579L23.3924 15.2567L23.3924 15.2567L22.4754 14.8579ZM29.3889 12.662L28.8701 13.5169L28.8701 13.5169L29.3889 12.662ZM17.2455 26.8817L18.0581 27.4645L18.1201 27.3781L18.1626 27.2805L17.2455 26.8817ZM17.2455 26.8817L16.4329 26.2989L16.3347 26.4359L16.2868 26.5976L17.2455 26.8817ZM14.7513 35.2981L15.7101 35.5822L15.7101 35.5822L14.7513 35.2981ZM15.5583 35.8179L14.9031 35.0624L14.9031 35.0624L15.5583 35.8179ZM22.1743 30.0808L22.8295 30.8363L22.8929 30.7813L22.9463 30.7165L22.1743 30.0808ZM30.6079 19.8393L29.836 19.2036L30.6079 19.8393ZM23.3924 15.2567C24.3143 13.1372 26.8941 12.3178 28.8701 13.5169L29.9077 11.8071C26.8958 9.97939 22.9636 11.2284 21.5584 14.459L23.3924 15.2567ZM18.1626 27.2805L23.3924 15.2567L21.5584 14.459L16.3285 26.4828L18.1626 27.2805ZM18.0581 27.4645L18.0581 27.4645L16.4329 26.2989L16.4329 26.2989L18.0581 27.4645ZM15.7101 35.5822L18.2043 27.1658L16.2868 26.5976L13.7925 35.014L15.7101 35.5822ZM14.9031 35.0624C15.2808 34.735 15.8521 35.103 15.7101 35.5822L13.7925 35.014C13.3665 36.4516 15.0806 37.5558 16.2134 36.5734L14.9031 35.0624ZM21.5192 29.3253L14.9031 35.0624L16.2134 36.5734L22.8295 30.8363L21.5192 29.3253ZM29.836 19.2036L21.4024 29.4451L22.9463 30.7165L31.3799 20.4749L29.836 19.2036ZM28.8701 13.5169C30.857 14.7226 31.3133 17.4095 29.836 19.2036L31.3799 20.4749C33.6317 17.7404 32.9361 13.6448 29.9077 11.8071L28.8701 13.5169Z" fill="#D14B02" mask="url(#path-7-outside-1_101_52)"/>
<path d="M21.7875 14.8871L26.067 17.5379C26.3034 17.6843 26.3763 17.9945 26.2299 18.2309V18.2309C26.0835 18.4673 25.7732 18.5402 25.5369 18.3938L21.2573 15.743L21.7875 14.8871Z" fill="#D14B02"/>
<path d="M27.7773 23.955L24.8044 21.8395C24.5779 21.6783 24.2636 21.7313 24.1024 21.9578V21.9578C23.9412 22.1843 23.9942 22.4986 24.2207 22.6598L27.1935 24.7753L27.7773 23.955Z" fill="#D14B02"/>
<path d="M22.7055 30.3355L21.5664 29.5249C21.3398 29.3637 21.0255 29.4167 20.8643 29.6432V29.6432C20.7031 29.8697 20.7561 30.184 20.9826 30.3452L22.1218 31.1559L22.7055 30.3355Z" fill="#D14B02"/>
<path d="M18.4531 22.4402L20.4018 23.6472C20.6381 23.7936 20.711 24.1039 20.5646 24.3402V24.3402C20.4182 24.5766 20.108 24.6495 19.8716 24.5031L17.9229 23.2961L18.4531 22.4402Z" fill="#D14B02"/>
<path d="M15.358 30.9713L16.5413 31.7042C16.7777 31.8506 16.8506 32.1609 16.7042 32.3973V32.3973C16.5578 32.6336 16.2475 32.7065 16.0112 32.5601L14.8279 31.8272L15.358 30.9713Z" fill="#D14B02"/>
<path d="M89 51.6989C89 65.8742 71.5 82.3333 71.5 82.3333C71.5 82.3333 54 65.8742 54 51.6989C54 37.5236 61.835 31 71.5 31C81.165 31 89 37.5236 89 51.6989Z" fill="white"/>
<path d="M89 51.6989C89 65.8742 71.5 82.3333 71.5 82.3333C71.5 82.3333 54 65.8742 54 51.6989C54 37.5236 61.835 31 71.5 31C81.165 31 89 37.5236 89 51.6989Z" fill="white"/>
<path d="M63.8913 41.6522L79.1087 41.6522V66H74.5435L71.5 48.5L68.4565 66H63.8913V41.6522Z" fill="#0078D7"/>
<rect x="63.8913" y="40.1304" width="15.2174" height="1.52174" fill="#003FCB"/>
<rect x="69.9783" y="40.1304" width="3.04348" height="1.52174" fill="#92ED4B"/>
<path d="M63.8913 66H68.4565V67.5217H63.8913V66Z" fill="#83BEEC"/>
<path d="M74.5435 66H79.1087V67.5217H74.5435V66Z" fill="#83BEEC"/>
<rect x="71.1196" y="41.6522" width="0.76087" height="4.56522" fill="#003FCB"/>
</g>
<defs>
<clipPath id="clip0_101_52">
<rect width="100" height="100" fill="white"/>
</clipPath>
</defs>
</svg>
