<svg width="100" height="100" viewBox="0 0 100 100" fill="none" xmlns="http://www.w3.org/2000/svg">
<g clip-path="url(#clip0_101_22)">
<rect x="9" width="81" height="100" rx="8" fill="#247DC9"/>
<path d="M35.916 6.20703C35.916 6.64974 35.8525 7.05501 35.7256 7.42285C35.5986 7.78743 35.4196 8.09668 35.1885 8.35059C34.9736 8.59147 34.7197 8.77865 34.4268 8.91211C34.137 9.04232 33.8294 9.10742 33.5039 9.10742C33.2207 9.10742 32.9635 9.0765 32.7324 9.01465C32.5046 8.9528 32.2718 8.85677 32.0342 8.72656V11.0117H31.1162V3.5459H32.0342V4.11719C32.2783 3.91211 32.5518 3.74121 32.8545 3.60449C33.1605 3.46452 33.486 3.39453 33.8311 3.39453C34.4886 3.39453 34.9997 3.64355 35.3643 4.1416C35.7321 4.63639 35.916 5.32487 35.916 6.20703ZM34.9688 6.23145C34.9688 5.57389 34.8564 5.08236 34.6318 4.75684C34.4072 4.43132 34.0622 4.26855 33.5967 4.26855C33.333 4.26855 33.0677 4.32552 32.8008 4.43945C32.5339 4.55339 32.2783 4.70312 32.0342 4.88867V7.97949C32.2946 8.09668 32.5176 8.17643 32.7031 8.21875C32.8919 8.26107 33.1051 8.28223 33.3428 8.28223C33.8538 8.28223 34.2526 8.1097 34.5391 7.76465C34.8255 7.4196 34.9688 6.90853 34.9688 6.23145ZM38.333 2.63281H37.2979V1.68066H38.333V2.63281ZM38.2744 9H37.3564V3.5459H38.2744V9ZM44.5146 9H43.5967V8.42871C43.333 8.65658 43.0579 8.83398 42.7715 8.96094C42.485 9.08789 42.1742 9.15137 41.8389 9.15137C41.1878 9.15137 40.6702 8.90072 40.2861 8.39941C39.9053 7.89811 39.7148 7.20312 39.7148 6.31445C39.7148 5.85221 39.7799 5.44043 39.9102 5.0791C40.0436 4.71777 40.2227 4.41016 40.4473 4.15625C40.6686 3.90885 40.9258 3.72005 41.2188 3.58984C41.515 3.45964 41.821 3.39453 42.1367 3.39453C42.4232 3.39453 42.6771 3.42546 42.8984 3.4873C43.1198 3.5459 43.3525 3.63867 43.5967 3.76562V1.40234H44.5146V9ZM43.5967 7.65723V4.52734C43.3493 4.41667 43.1279 4.34017 42.9326 4.29785C42.7373 4.25553 42.5241 4.23438 42.293 4.23438C41.7786 4.23438 41.3783 4.41341 41.0918 4.77148C40.8053 5.12956 40.6621 5.63737 40.6621 6.29492C40.6621 6.94271 40.7728 7.43587 40.9941 7.77441C41.2155 8.1097 41.5703 8.27734 42.0586 8.27734C42.319 8.27734 42.5827 8.22038 42.8496 8.10645C43.1165 7.98926 43.3656 7.83952 43.5967 7.65723ZM51.0381 3.5459L48.8311 9H47.9082L45.7158 3.5459H46.7119L48.4014 7.88672L50.0762 3.5459H51.0381ZM56.7168 6.36816H52.6982C52.6982 6.70345 52.7487 6.99642 52.8496 7.24707C52.9505 7.49447 53.0889 7.69792 53.2646 7.85742C53.4339 8.01367 53.6341 8.13086 53.8652 8.20898C54.0996 8.28711 54.3568 8.32617 54.6367 8.32617C55.0078 8.32617 55.3805 8.25293 55.7549 8.10645C56.1325 7.95671 56.401 7.81022 56.5605 7.66699H56.6094V8.66797C56.3001 8.79818 55.9844 8.90723 55.6621 8.99512C55.3398 9.08301 55.0013 9.12695 54.6465 9.12695C53.7415 9.12695 53.0352 8.88281 52.5273 8.39453C52.0195 7.90299 51.7656 7.20638 51.7656 6.30469C51.7656 5.41276 52.0081 4.70475 52.4932 4.18066C52.9814 3.65658 53.6227 3.39453 54.417 3.39453C55.1527 3.39453 55.7191 3.60938 56.1162 4.03906C56.5166 4.46875 56.7168 5.0791 56.7168 5.87012V6.36816ZM55.8232 5.66504C55.82 5.18327 55.6979 4.81055 55.457 4.54688C55.2194 4.2832 54.8564 4.15137 54.3682 4.15137C53.8766 4.15137 53.4844 4.29622 53.1914 4.58594C52.9017 4.87565 52.7373 5.23535 52.6982 5.66504H55.8232ZM62.0635 9H57.6592V8.32129L60.8379 4.3125H57.7275V3.5459H61.9805V4.2002L58.7871 8.22363H62.0635V9ZM67.8838 9H66.9658V8.39453C66.6566 8.63867 66.3604 8.82585 66.0771 8.95605C65.7939 9.08626 65.4814 9.15137 65.1396 9.15137C64.5667 9.15137 64.1208 8.97721 63.8018 8.62891C63.4827 8.27734 63.3232 7.76302 63.3232 7.08594V3.5459H64.2412V6.65137C64.2412 6.92806 64.2542 7.16569 64.2803 7.36426C64.3063 7.55957 64.3617 7.72721 64.4463 7.86719C64.5342 8.01042 64.6481 8.11458 64.7881 8.17969C64.9281 8.24479 65.1315 8.27734 65.3984 8.27734C65.6361 8.27734 65.8949 8.21549 66.1748 8.0918C66.458 7.9681 66.7217 7.81022 66.9658 7.61816V3.5459H67.8838V9Z" fill="white"/>
<circle cx="50" cy="25" r="12" fill="white"/>
<rect x="17" y="42" width="31" height="4" rx="2" fill="white"/>
<rect x="51" y="42" width="31" height="4" rx="2" fill="white"/>
<rect x="17" y="48" width="31" height="4" rx="2" fill="white"/>
<rect x="51" y="48" width="31" height="4" rx="2" fill="white"/>
<rect x="17" y="54" width="31" height="4" rx="2" fill="white"/>
<rect x="17" y="60" width="31" height="4" rx="2" fill="white"/>
<rect x="51" y="60" width="4" height="4" rx="1" fill="white"/>
<rect x="51" y="54" width="31" height="4" rx="2" fill="white"/>
<rect x="62" y="65" width="20" height="4" rx="1" fill="white"/>
<rect x="17" y="75" width="18" height="4" rx="2" fill="white"/>
<rect x="39" y="75" width="43" height="4" rx="2" fill="white"/>
<rect x="17" y="81" width="37" height="4" rx="2" fill="white"/>
<rect x="58" y="81" width="24" height="4" rx="2" fill="white"/>
<rect x="17" y="87" width="65" height="4" rx="2" fill="white"/>
</g>
<defs>
<clipPath id="clip0_101_22">
<rect width="100" height="100" fill="white"/>
</clipPath>
</defs>
</svg>
