<svg width="100" height="100" viewBox="0 0 100 100" fill="none" xmlns="http://www.w3.org/2000/svg">
<path fill-rule="evenodd" clip-rule="evenodd" d="M60 87C60 88.6569 58.6569 90 57 90H18C13.5817 90 10 86.4183 10 82V18C10 13.5817 13.5817 10 18 10H57C58.6569 10 60 11.3431 60 13V13C60 14.6569 58.6569 16 57 16H18C16.8954 16 16 16.8954 16 18V82C16 83.1046 16.8954 84 18 84H57C58.6569 84 60 85.3431 60 87V87Z" fill="white"/>
<path fill-rule="evenodd" clip-rule="evenodd" d="M88.5 52.5981C90.5 51.4434 90.5 48.5566 88.5 47.4019L57 29.2154C55 28.0607 52.5 29.5041 52.5 31.8135V39C52.5 39.5523 52.0523 40 51.5 40H35C33.3431 40 32 41.3431 32 43V57C32 58.6569 33.3431 60 35 60H51.5C52.0523 60 52.5 60.4477 52.5 61V68.1865C52.5 70.4959 55 71.9393 57 70.7846L88.5 52.5981Z" fill="white"/>
</svg>
