<svg width="100" height="100" viewBox="0 0 100 100" fill="none" xmlns="http://www.w3.org/2000/svg">
<path fill-rule="evenodd" clip-rule="evenodd" d="M65.3082 68.8497L71.7588 62.2216C71.7972 62.2792 71.8383 62.34 71.8817 62.4033C72.1636 62.8133 72.5587 63.342 72.9902 63.7736C73.55 64.3334 74.0605 64.6569 74.5349 64.8296L86 77.5L97.5112 87.316C99.5928 89.0912 99.7399 92.2564 97.8319 94.217C95.9519 96.1487 92.8403 96.1221 90.9937 94.1584L80.5 83L67.999 71.843C67.8547 71.283 67.5116 70.6772 66.8116 70.004C66.3717 69.581 65.8354 69.1964 65.4199 68.9226C65.3817 68.8974 65.3444 68.8731 65.3082 68.8497Z" fill="#142D55"/>
<circle cx="40.5" cy="40.5" r="33.5" stroke="#142D55" stroke-width="10"/>
</svg>
