<svg width="100" height="100" viewBox="0 0 100 100" fill="none" xmlns="http://www.w3.org/2000/svg">
<path fill-rule="evenodd" clip-rule="evenodd" d="M52.222 0C45.4719 0 39.9998 5.47207 39.9998 12.2222V38.1551H12.2222C5.47205 38.1551 0 43.6272 0 50.3773C0 57.1274 5.47206 62.5995 12.2222 62.5995H39.9998V87.7775C39.9998 94.5276 45.4719 99.9996 52.222 99.9996C58.9721 99.9996 64.4442 94.5276 64.4442 87.7774V62.5995H87.7778C94.5279 62.5995 100 57.1274 100 50.3773C100 43.6272 94.5279 38.1551 87.7778 38.1551H64.4442V12.2222C64.4442 5.47205 58.9721 0 52.222 0Z" fill="#142D55"/>
</svg>
