<svg width="100" height="100" viewBox="0 0 100 100" fill="none" xmlns="http://www.w3.org/2000/svg">
<path fill-rule="evenodd" clip-rule="evenodd" d="M49.5 23C47.0147 23 45 25.0147 45 27.5V40.1699H31.5C29.0147 40.1699 27 42.1846 27 44.6699C27 47.1552 29.0147 49.1699 31.5 49.1699H45V63.5C45 65.9853 47.0147 68 49.5 68C51.9853 68 54 65.9853 54 63.5V49.1699H67.5002C69.9855 49.1699 72.0002 47.1552 72.0002 44.6699C72.0002 42.1846 69.9854 40.1699 67.5002 40.1699H54V27.5C54 25.0147 51.9853 23 49.5 23Z" fill="#142D55"/>
<path fill-rule="evenodd" clip-rule="evenodd" d="M50 0C73.196 0 92 15.3858 92 43C92 67.2846 59.5178 92.9393 51.6846 98.7729C50.6738 99.5257 49.3262 99.5257 48.3154 98.7729C40.4822 92.9393 8 67.2846 8 43C8 15.3858 26.804 0 50 0ZM50 10C68.2254 10 83 22.3086 83 44.4C83 63.5262 58.2642 82.5904 51.624 87.3635C50.6403 88.0706 49.3597 88.0706 48.376 87.3635C41.7358 82.5904 17 63.5262 17 44.4C17 22.3086 31.7746 10 50 10Z" fill="#142D55"/>
</svg>
