<svg width="100" height="100" viewBox="0 0 100 100" fill="none" xmlns="http://www.w3.org/2000/svg">
<g clip-path="url(#clip0_8_33)">
<rect x="33" y="88" width="34" height="7" fill="white"/>
<rect x="10" y="53" width="80" height="18" fill="#142D55"/>
<path d="M10 55H39V87C39 91.4183 35.4183 95 31 95H18C13.5817 95 10 91.4183 10 87V55Z" fill="#142D55"/>
<path d="M61 55H90V87C90 91.4183 86.4183 95 82 95H69C64.5817 95 61 91.4183 61 87V55Z" fill="#142D55"/>
<path d="M61 89.0149L39.0135 89.0149L39.0135 70.0791C39.0135 66.7769 41.6819 64.0954 44.9841 64.0792L54.9705 64.0302C58.2957 64.0139 61 66.7049 61 70.0301L61 89.0149Z" fill="white"/>
<path d="M46.1836 5.67764C48.3138 3.62487 51.6862 3.62487 53.8164 5.67763L95.1826 45.5396C98.7464 48.9738 96.3154 55 91.3662 55H8.63383C3.6846 55 1.2536 48.9738 4.81743 45.5396L46.1836 5.67764Z" fill="#142D55"/>
</g>
<defs>
<clipPath id="clip0_8_33">
<rect width="100" height="100" fill="white"/>
</clipPath>
</defs>
</svg>
